<?xml version="1.0" encoding="UTF-8" standalone="no"?>
<svg
   xmlns:dc="http://purl.org/dc/elements/1.1/"
   xmlns:cc="http://creativecommons.org/ns#"
   xmlns:rdf="http://www.w3.org/1999/02/22-rdf-syntax-ns#"
   xmlns:svg="http://www.w3.org/2000/svg"
   xmlns="http://www.w3.org/2000/svg"
   xmlns:xlink="http://www.w3.org/1999/xlink"
   xmlns:sodipodi="http://sodipodi.sourceforge.net/DTD/sodipodi-0.dtd"
   xmlns:inkscape="http://www.inkscape.org/namespaces/inkscape"
   width="248mm"
   height="96mm"
   viewBox="0 0 248 96"
   version="1.1"
   id="svg8"
   inkscape:version="1.0.1 (3bc2e81, 2020-09-07)"
   sodipodi:docname="compare.svg">
  <defs
     id="defs2">
    <style
       type="text/css"
       id="style3395">*{stroke-linecap:butt;stroke-linejoin:round;}</style>
    <path
       d="M 0,0 V 3.5"
       id="m0aaed992e8"
       style="stroke:#000000;stroke-width:0.8" />
    <path
       d="M 40.578125,39.3125 Q 47.65625,37.796875 51.625,33 q 3.984375,-4.78125 3.984375,-11.8125 0,-10.78125 -7.421875,-16.703125 -7.421875,-5.90625 -21.09375,-5.90625 -4.578125,0 -9.4375,0.90625 -4.859375,0.90625 -10.03125,2.71875 v 9.515625 q 4.09375,-2.390625 8.96875,-3.609375 4.890625,-1.21875 10.21875,-1.21875 9.265625,0 14.125,3.65625 4.859375,3.65625 4.859375,10.640625 0,6.453125 -4.515625,10.078125 -4.515625,3.640625 -12.5625,3.640625 h -8.5 v 8.109375 h 8.890625 q 7.265625,0 11.125,2.90625 3.859375,2.90625 3.859375,8.375 0,5.609375 -3.984375,8.609375 -3.96875,3.015625 -11.390625,3.015625 -4.0625,0 -8.703125,-0.890625 Q 15.375,64.15625 9.8125,62.3125 v 8.78125 q 5.625,1.5625 10.53125,2.34375 4.90625,0.78125 9.25,0.78125 11.234375,0 17.765625,-5.109375 6.546875,-5.09375 6.546875,-13.78125 0,-6.0625 -3.46875,-10.234375 -3.46875,-4.171875 -9.859375,-5.78125 z"
       id="DejaVuSans-51" />
    <path
       d="m 31.78125,66.40625 q -7.609375,0 -11.453125,-7.5 Q 16.5,51.421875 16.5,36.375 q 0,-14.984375 3.828125,-22.484375 3.84375,-7.5 11.453125,-7.5 7.671875,0 11.5,7.5 3.84375,7.5 3.84375,22.484375 0,15.046875 -3.84375,22.53125 -3.828125,7.5 -11.5,7.5 z m 0,7.8125 q 12.265625,0 18.734375,-9.703125 6.46875,-9.6875 6.46875,-28.140625 0,-18.40625 -6.46875,-28.109375 -6.46875,-9.6875 -18.734375,-9.6875 -12.25,0 -18.71875,9.6875 Q 6.59375,17.96875 6.59375,36.375 q 0,18.453125 6.46875,28.140625 6.46875,9.703125 18.71875,9.703125 z"
       id="DejaVuSans-48" />
    <path
       d="M 10.984375,1.515625 V 10.5 Q 14.703125,8.734375 18.5,7.8125 q 3.8125,-0.921875 7.484375,-0.921875 9.765625,0 14.90625,6.5625 5.15625,6.5625 5.890625,19.953125 -2.828125,-4.203125 -7.1875,-6.453125 -4.34375,-2.25 -9.609375,-2.25 -10.9375,0 -17.3125,6.609375 -6.375,6.625 -6.375,18.109375 0,11.21875 6.640625,18 6.640625,6.796875 17.671875,6.796875 12.65625,0 19.3125,-9.703125 6.671875,-9.6875 6.671875,-28.140625 0,-17.234375 -8.1875,-27.515625 -8.171875,-10.28125 -21.984375,-10.28125 -3.71875,0 -7.53125,0.734375 -3.796875,0.734375 -7.90625,2.203125 z m 19.625,30.90625 q 6.640625,0 10.515625,4.53125 3.890625,4.546875 3.890625,12.46875 0,7.859375 -3.890625,12.421875 -3.875,4.5625 -10.515625,4.5625 -6.640625,0 -10.515625,-4.5625 -3.875,-4.5625 -3.875,-12.421875 0,-7.921875 3.875,-12.46875 3.875,-4.53125 10.515625,-4.53125 z"
       id="DejaVuSans-57" />
    <path
       d="m 12.40625,8.296875 h 16.109375 v 55.625 L 10.984375,60.40625 v 8.984375 l 17.4375,3.515625 H 38.28125 V 8.296875 H 54.390625 V 0 H 12.40625 Z"
       id="DejaVuSans-49" />
    <path
       d="m 10.796875,72.90625 h 38.71875 v -8.3125 h -29.6875 V 46.734375 q 2.140625,0.734375 4.28125,1.09375 2.15625,0.359375 4.3125,0.359375 Q 40.625,48.1875 47.75,41.5 54.890625,34.8125 54.890625,23.390625 54.890625,11.625 47.5625,5.09375 40.234375,-1.421875 26.90625,-1.421875 q -4.59375,0 -9.359375,0.78125 -4.75,0.78125 -9.828125,2.34375 V 11.625 q 4.390625,-2.390625 9.078125,-3.5625 4.6875,-1.171875 9.90625,-1.171875 8.453125,0 13.375,4.4375 4.9375,4.4375 4.9375,12.0625 0,7.609375 -4.9375,12.046875 -4.921875,4.453125 -13.375,4.453125 -3.953125,0 -7.890625,-0.875 -3.921875,-0.875 -8.015625,-2.734375 z"
       id="DejaVuSans-53" />
    <path
       d="M 19.1875,8.296875 H 53.609375 V 0 H 7.328125 v 8.296875 q 5.609375,5.8125 15.296875,15.59375 9.703125,9.796875 12.1875,12.640625 4.734375,5.3125 6.609375,9 1.890625,3.6875 1.890625,7.25 0,5.8125 -4.078125,9.46875 -4.078125,3.671875 -10.625,3.671875 -4.640625,0 -9.796875,-1.609375 -5.140625,-1.609375 -11,-4.890625 v 9.96875 Q 13.765625,71.78125 18.9375,73 q 5.1875,1.21875 9.484375,1.21875 11.328125,0 18.0625,-5.671875 6.734375,-5.65625 6.734375,-15.125 0,-4.5 -1.6875,-8.53125 Q 49.859375,40.875 45.40625,35.40625 44.1875,33.984375 37.640625,27.21875 31.109375,20.453125 19.1875,8.296875 Z"
       id="DejaVuSans-50" />
    <path
       d="m 8.203125,72.90625 h 46.875 V 68.703125 L 28.609375,0 H 18.3125 L 43.21875,64.59375 H 8.203125 Z"
       id="DejaVuSans-55" />
    <path
       d="M -0.296875,72.90625 H 61.375 v -8.3125 H 35.5 V 0 H 25.59375 V 64.59375 H -0.296875 Z"
       id="DejaVuSans-84" />
    <path
       d="m 34.28125,27.484375 q -10.890625,0 -15.09375,-2.484375 -4.203125,-2.484375 -4.203125,-8.5 0,-4.78125 3.15625,-7.59375 3.15625,-2.796875 8.5625,-2.796875 7.484375,0 12,5.296875 4.515625,5.296875 4.515625,14.078125 v 2 z m 17.921875,3.71875 V 0 H 43.21875 v 8.296875 q -3.078125,-4.96875 -7.671875,-7.34375 -4.59375,-2.375 -11.234375,-2.375 -8.390625,0 -13.359375,4.71875 Q 6,8.015625 6,15.921875 q 0,9.21875 6.171875,13.90625 6.1875,4.6875 18.4375,4.6875 H 43.21875 v 0.890625 q 0,6.203125 -4.078125,9.59375 -4.078125,3.390625 -11.453125,3.390625 -4.6875,0 -9.140625,-1.125 -4.4375,-1.125 -8.53125,-3.375 v 8.3125 q 4.921875,1.90625 9.5625,2.84375 Q 24.21875,56 28.609375,56 q 11.875,0 17.734375,-6.15625 5.859375,-6.140625 5.859375,-18.640625 z"
       id="DejaVuSans-97" />
    <path
       d="m 41.109375,46.296875 q -1.515625,0.875 -3.296875,1.28125 Q 36.03125,48 33.890625,48 26.265625,48 22.1875,43.046875 18.109375,38.09375 18.109375,28.8125 V 0 h -9.03125 v 54.6875 h 9.03125 v -8.5 q 2.84375,4.984375 7.375,7.390625 Q 30.03125,56 36.53125,56 q 0.921875,0 2.046875,-0.125 1.125,-0.109375 2.484375,-0.359375 z"
       id="DejaVuSans-114" />
    <path
       d="m 45.40625,27.984375 q 0,9.765625 -4.03125,15.125 -4.015625,5.375 -11.296875,5.375 -7.21875,0 -11.25,-5.375 -4.03125,-5.359375 -4.03125,-15.125 0,-9.71875 4.03125,-15.09375 4.03125,-5.375 11.25,-5.375 7.28125,0 11.296875,5.375 4.03125,5.375 4.03125,15.09375 z M 54.390625,6.78125 q 0,-13.953125 -6.203125,-20.765625 -6.1875,-6.8125 -18.984375,-6.8125 -4.734375,0 -8.9375,0.703125 -4.203125,0.703125 -8.15625,2.171875 V -9.1875 q 3.953125,-2.140625 7.8125,-3.15625 3.859375,-1.03125 7.859375,-1.03125 8.84375,0 13.234375,4.609375 4.390625,4.609375 4.390625,13.9375 V 9.625 Q 42.625,4.78125 38.28125,2.390625 33.9375,0 27.875,0 17.828125,0 11.671875,7.65625 q -6.15625,7.671875 -6.15625,20.328125 0,12.6875 6.15625,20.34375 Q 17.828125,56 27.875,56 q 6.0625,0 10.40625,-2.390625 4.34375,-2.390625 7.125,-7.21875 V 54.6875 h 8.984375 z"
       id="DejaVuSans-103" />
    <path
       d="m 56.203125,29.59375 v -4.390625 h -41.3125 q 0.59375,-9.28125 5.59375,-14.140625 5,-4.859375 13.9375,-4.859375 5.171875,0 10.03125,1.265625 4.859375,1.265625 9.65625,3.8125 v -8.5 q -4.84375,-2.046875 -9.921875,-3.125 -5.078125,-1.078125 -10.296875,-1.078125 -13.09375,0 -20.734375,7.609375 -7.640625,7.625 -7.640625,20.625 0,13.421875 7.25,21.296875 Q 20.015625,56 32.328125,56 q 11.03125,0 17.453125,-7.109375 6.421875,-7.09375 6.421875,-19.296875 z m -8.984375,2.640625 q -0.09375,7.359375 -4.125,11.75 -4.03125,4.40625 -10.671875,4.40625 -7.515625,0 -12.03125,-4.25 -4.515625,-4.25 -5.203125,-11.96875 z"
       id="DejaVuSans-101" />
    <path
       d="M 18.3125,70.21875 V 54.6875 h 18.5 v -6.984375 h -18.5 v -29.6875 q 0,-6.6875 1.828125,-8.59375 1.828125,-1.90625 7.453125,-1.90625 H 36.8125 V 0 H 27.59375 Q 17.1875,0 13.234375,3.875 9.28125,7.765625 9.28125,18.015625 v 29.6875 H 2.6875 V 54.6875 h 6.59375 v 15.53125 z"
       id="DejaVuSans-116" />
    <path
       id="DejaVuSans-32"
       d="" />
    <path
       d="M 37.109375,75.984375 V 68.5 h -8.59375 q -4.828125,0 -6.71875,-1.953125 -1.875,-1.953125 -1.875,-7.03125 V 54.6875 H 34.71875 V 47.703125 H 19.921875 V 0 h -9.03125 V 47.703125 H 2.296875 V 54.6875 h 8.59375 V 58.5 q 0,9.125 4.25,13.296875 4.25,4.1875 13.46875,4.1875 z"
       id="DejaVuSans-102" />
    <path
       d="M 9.421875,54.6875 H 18.40625 V 0 H 9.421875 Z m 0,21.296875 H 18.40625 V 64.59375 H 9.421875 Z"
       id="DejaVuSans-105" />
    <path
       d="M 9.421875,75.984375 H 18.40625 V 0 H 9.421875 Z"
       id="DejaVuSans-108" />
    <path
       d="M 2.984375,54.6875 H 12.5 L 29.59375,8.796875 46.6875,54.6875 h 9.515625 L 35.6875,0 H 23.484375 Z"
       id="DejaVuSans-118" />
    <path
       d="M 31,75.875 Q 24.46875,64.65625 21.28125,53.65625 18.109375,42.671875 18.109375,31.390625 18.109375,20.125 21.3125,9.0625 24.515625,-2 31,-13.1875 H 23.1875 Q 15.875,-1.703125 12.234375,9.375 8.59375,20.453125 8.59375,31.390625 q 0,10.890625 3.609375,21.921875 3.625,11.046875 10.984375,22.5625 z"
       id="DejaVuSans-40" />
    <path
       d="M 52,44.1875 Q 55.375,50.25 60.0625,53.125 64.75,56 71.09375,56 q 8.546875,0 13.1875,-5.984375 4.640625,-5.96875 4.640625,-17 V 0 h -9.03125 v 32.71875 q 0,7.859375 -2.796875,11.65625 -2.78125,3.8125 -8.484375,3.8125 -6.984375,0 -11.046875,-4.640625 -4.046875,-4.625 -4.046875,-12.640625 V 0 h -9.03125 v 32.71875 q 0,7.90625 -2.78125,11.6875 -2.78125,3.78125 -8.59375,3.78125 -6.890625,0 -10.953125,-4.65625 -4.046875,-4.65625 -4.046875,-12.625 V 0 h -9.03125 v 54.6875 h 9.03125 v -8.5 q 3.078125,5.03125 7.375,7.421875 Q 29.78125,56 35.6875,56 41.65625,56 45.828125,52.96875 50,49.953125 52,44.1875 Z"
       id="DejaVuSans-109" />
    <path
       d="m 8.015625,75.875 h 7.8125 q 7.3125,-11.515625 10.953125,-22.5625 3.640625,-11.03125 3.640625,-21.921875 0,-10.9375 -3.640625,-22.015625 -3.640625,-11.078125 -10.953125,-22.5625 h -7.8125 Q 14.5,-2 17.703125,9.0625 20.90625,20.125 20.90625,31.390625 q 0,11.28125 -3.203125,22.265625 -3.203125,11 -9.6875,22.21875 z"
       id="DejaVuSans-41" />
    <path
       d="M 0,0 H -3.5"
       id="mfc9b43449d"
       style="stroke:#000000;stroke-width:0.8" />
    <path
       d="M 19.671875,64.796875 V 8.109375 H 31.59375 q 15.09375,0 22.09375,6.828125 7,6.84375 7,21.59375 0,14.640625 -7,21.453125 -7,6.8125 -22.09375,6.8125 z M 9.8125,72.90625 h 20.265625 q 21.1875,0 31.09375,-8.8125 9.921875,-8.8125 9.921875,-27.5625 0,-18.859375 -9.96875,-27.703125 Q 51.171875,0 30.078125,0 H 9.8125 Z"
       id="DejaVuSans-68" />
    <path
       d="m 30.609375,48.390625 q -7.21875,0 -11.421875,-5.640625 -4.203125,-5.640625 -4.203125,-15.453125 0,-9.8125 4.171875,-15.453125 4.1875,-5.640625 11.453125,-5.640625 7.1875,0 11.375,5.65625 4.203125,5.671875 4.203125,15.4375 0,9.71875 -4.203125,15.40625 -4.1875,5.6875 -11.375,5.6875 z m 0,7.609375 q 11.71875,0 18.40625,-7.625 6.703125,-7.609375 6.703125,-21.078125 0,-13.421875 -6.703125,-21.078125 -6.6875,-7.640625 -18.40625,-7.640625 -11.765625,0 -18.4375,7.640625 -6.65625,7.65625 -6.65625,21.078125 0,13.46875 6.65625,21.078125 Q 18.84375,56 30.609375,56 Z"
       id="DejaVuSans-111" />
    <path
       d="M 54.890625,33.015625 V 0 H 45.90625 v 32.71875 q 0,7.765625 -3.03125,11.609375 -3.03125,3.859375 -9.078125,3.859375 -7.28125,0 -11.484375,-4.640625 -4.203125,-4.625 -4.203125,-12.640625 V 0 h -9.03125 v 54.6875 h 9.03125 v -8.5 q 3.234375,4.9375 7.59375,7.375 4.375,2.4375 10.09375,2.4375 9.421875,0 14.25,-5.828125 4.84375,-5.828125 4.84375,-17.15625 z"
       id="DejaVuSans-110" />
    <path
       d="m 48.6875,27.296875 q 0,9.90625 -4.078125,15.546875 -4.078125,5.640625 -11.203125,5.640625 -7.140625,0 -11.21875,-5.640625 -4.078125,-5.640625 -4.078125,-15.546875 0,-9.90625 4.078125,-15.546875 4.078125,-5.640625 11.21875,-5.640625 7.125,0 11.203125,5.640625 4.078125,5.640625 4.078125,15.546875 z m -30.578125,19.09375 q 2.84375,4.875 7.15625,7.234375 Q 29.59375,56 35.59375,56 q 9.96875,0 16.1875,-7.90625 6.234375,-7.90625 6.234375,-20.796875 0,-12.890625 -6.234375,-20.8125 -6.21875,-7.90625 -16.1875,-7.90625 -6,0 -10.328125,2.375 -4.3125,2.375 -7.15625,7.25 V 0 h -9.03125 v 75.984375 h 9.03125 z"
       id="DejaVuSans-98" />
    <path
       d="m 44.28125,53.078125 v -8.5 Q 40.484375,46.53125 36.375,47.5 q -4.09375,0.984375 -8.5,0.984375 -6.6875,0 -10.03125,-2.046875 Q 14.5,44.390625 14.5,40.28125 q 0,-3.125 2.390625,-4.90625 2.390625,-1.78125 9.625,-3.390625 l 3.078125,-0.6875 Q 39.15625,29.25 43.1875,25.515625 47.21875,21.78125 47.21875,15.09375 q 0,-7.625 -6.03125,-12.078125 -6.03125,-4.4375 -16.578125,-4.4375 -4.390625,0 -9.15625,0.859375 Q 10.6875,0.296875 5.421875,2 v 9.28125 q 4.984375,-2.59375 9.8125,-3.890625 4.828125,-1.28125 9.578125,-1.28125 6.34375,0 9.75,2.171875 3.421875,2.171875 3.421875,6.125 0,3.65625 -2.46875,5.609375 -2.453125,1.953125 -10.8125,3.765625 l -3.125,0.734375 q -8.34375,1.75 -12.0625,5.390625 -3.703125,3.640625 -3.703125,9.984375 0,7.71875 5.46875,11.90625 Q 16.75,56 26.8125,56 q 4.96875,0 9.359375,-0.734375 4.40625,-0.71875 8.109375,-2.1875 z"
       id="DejaVuSans-115" />
    <clipPath
       id="p5c76e20aa6">
      <rect
         height="235.24001"
         width="664.63"
         x="44.57"
         y="10.8"
         id="rect3822" />
    </clipPath>
  </defs>
  <sodipodi:namedview
     id="base"
     pagecolor="#ffffff"
     bordercolor="#666666"
     borderopacity="1.0"
     inkscape:pageopacity="0.0"
     inkscape:pageshadow="2"
     inkscape:zoom="0.7"
     inkscape:cx="400"
     inkscape:cy="560"
     inkscape:document-units="mm"
     inkscape:current-layer="layer1"
     inkscape:document-rotation="0"
     showgrid="false"
     inkscape:window-width="1853"
     inkscape:window-height="1025"
     inkscape:window-x="67"
     inkscape:window-y="27"
     inkscape:window-maximized="1" />
  <metadata
     id="metadata5">
    <rdf:RDF>
      <cc:Work
         rdf:about="">
        <dc:format>image/svg+xml</dc:format>
        <dc:type
           rdf:resource="http://purl.org/dc/dcmitype/StillImage" />
        <dc:title></dc:title>
      </cc:Work>
    </rdf:RDF>
  </metadata>
  <g
     inkscape:label="Layer 1"
     inkscape:groupmode="layer"
     id="layer1">
    <g
       id="axes_1"
       transform="matrix(0.35277778,0,0,0.35277778,-2.7894895,-2.6162725)">
      <g
         id="patch_2">
        <path
           d="M 44.57,246.04 H 709.2 V 10.8 H 44.57 Z"
           style="fill:#ffffff"
           id="path3402" />
      </g>
      <g
         id="matplotlib.axis_1">
        <g
           id="xtick_1">
          <g
             id="line2d_1">
            <defs
               id="defs3406">
              <path
                 d="M 0,0 V 3.5"
                 id="path3866"
                 style="stroke:#000000;stroke-width:0.8" />
            </defs>
            <g
               id="g3410">
              <use
                 style="stroke:#000000;stroke-width:0.8"
                 x="44.57"
                 xlink:href="#m0aaed992e8"
                 y="246.03999"
                 id="use3408"
                 width="100%"
                 height="100%" />
            </g>
          </g>
          <g
             id="text_1">
            <!-- 30 -->
            <g
               transform="matrix(0.1,0,0,-0.1,38.2075,260.63844)"
               id="g3421">
              <defs
                 id="defs3415">
                <path
                   d="M 40.578125,39.3125 Q 47.65625,37.796875 51.625,33 q 3.984375,-4.78125 3.984375,-11.8125 0,-10.78125 -7.421875,-16.703125 -7.421875,-5.90625 -21.09375,-5.90625 -4.578125,0 -9.4375,0.90625 -4.859375,0.90625 -10.03125,2.71875 v 9.515625 q 4.09375,-2.390625 8.96875,-3.609375 4.890625,-1.21875 10.21875,-1.21875 9.265625,0 14.125,3.65625 4.859375,3.65625 4.859375,10.640625 0,6.453125 -4.515625,10.078125 -4.515625,3.640625 -12.5625,3.640625 h -8.5 v 8.109375 h 8.890625 q 7.265625,0 11.125,2.90625 3.859375,2.90625 3.859375,8.375 0,5.609375 -3.984375,8.609375 -3.96875,3.015625 -11.390625,3.015625 -4.0625,0 -8.703125,-0.890625 Q 15.375,64.15625 9.8125,62.3125 v 8.78125 q 5.625,1.5625 10.53125,2.34375 4.90625,0.78125 9.25,0.78125 11.234375,0 17.765625,-5.109375 6.546875,-5.09375 6.546875,-13.78125 0,-6.0625 -3.46875,-10.234375 -3.46875,-4.171875 -9.859375,-5.78125 z"
                   id="path3872" />
                <path
                   d="m 31.78125,66.40625 q -7.609375,0 -11.453125,-7.5 Q 16.5,51.421875 16.5,36.375 q 0,-14.984375 3.828125,-22.484375 3.84375,-7.5 11.453125,-7.5 7.671875,0 11.5,7.5 3.84375,7.5 3.84375,22.484375 0,15.046875 -3.84375,22.53125 -3.828125,7.5 -11.5,7.5 z m 0,7.8125 q 12.265625,0 18.734375,-9.703125 6.46875,-9.6875 6.46875,-28.140625 0,-18.40625 -6.46875,-28.109375 -6.46875,-9.6875 -18.734375,-9.6875 -12.25,0 -18.71875,9.6875 Q 6.59375,17.96875 6.59375,36.375 q 0,18.453125 6.46875,28.140625 6.46875,9.703125 18.71875,9.703125 z"
                   id="path3874" />
              </defs>
              <use
                 xlink:href="#DejaVuSans-51"
                 id="use3417"
                 x="0"
                 y="0"
                 width="100%"
                 height="100%" />
              <use
                 x="63.623047"
                 xlink:href="#DejaVuSans-48"
                 id="use3419"
                 y="0"
                 width="100%"
                 height="100%" />
            </g>
          </g>
        </g>
        <g
           id="xtick_2">
          <g
             id="line2d_2">
            <g
               id="g3427">
              <use
                 style="stroke:#000000;stroke-width:0.8"
                 x="185.98064"
                 xlink:href="#m0aaed992e8"
                 y="246.03999"
                 id="use3425"
                 width="100%"
                 height="100%" />
            </g>
          </g>
          <g
             id="text_2">
            <!-- 90 -->
            <g
               transform="matrix(0.1,0,0,-0.1,179.61814,260.63844)"
               id="g3437">
              <defs
                 id="defs3431">
                <path
                   d="M 10.984375,1.515625 V 10.5 Q 14.703125,8.734375 18.5,7.8125 q 3.8125,-0.921875 7.484375,-0.921875 9.765625,0 14.90625,6.5625 5.15625,6.5625 5.890625,19.953125 -2.828125,-4.203125 -7.1875,-6.453125 -4.34375,-2.25 -9.609375,-2.25 -10.9375,0 -17.3125,6.609375 -6.375,6.625 -6.375,18.109375 0,11.21875 6.640625,18 6.640625,6.796875 17.671875,6.796875 12.65625,0 19.3125,-9.703125 6.671875,-9.6875 6.671875,-28.140625 0,-17.234375 -8.1875,-27.515625 -8.171875,-10.28125 -21.984375,-10.28125 -3.71875,0 -7.53125,0.734375 -3.796875,0.734375 -7.90625,2.203125 z m 19.625,30.90625 q 6.640625,0 10.515625,4.53125 3.890625,4.546875 3.890625,12.46875 0,7.859375 -3.890625,12.421875 -3.875,4.5625 -10.515625,4.5625 -6.640625,0 -10.515625,-4.5625 -3.875,-4.5625 -3.875,-12.421875 0,-7.921875 3.875,-12.46875 3.875,-4.53125 10.515625,-4.53125 z"
                   id="path3885" />
              </defs>
              <use
                 xlink:href="#DejaVuSans-57"
                 id="use3433"
                 x="0"
                 y="0"
                 width="100%"
                 height="100%" />
              <use
                 x="63.623047"
                 xlink:href="#DejaVuSans-48"
                 id="use3435"
                 y="0"
                 width="100%"
                 height="100%" />
            </g>
          </g>
        </g>
        <g
           id="xtick_3">
          <g
             id="line2d_3">
            <g
               id="g3443">
              <use
                 style="stroke:#000000;stroke-width:0.8"
                 x="327.39127"
                 xlink:href="#m0aaed992e8"
                 y="246.03999"
                 id="use3441"
                 width="100%"
                 height="100%" />
            </g>
          </g>
          <g
             id="text_3">
            <!-- 150 -->
            <g
               transform="matrix(0.1,0,0,-0.1,317.84753,260.63844)"
               id="g3456">
              <defs
                 id="defs3448">
                <path
                   d="m 12.40625,8.296875 h 16.109375 v 55.625 L 10.984375,60.40625 v 8.984375 l 17.4375,3.515625 H 38.28125 V 8.296875 H 54.390625 V 0 H 12.40625 Z"
                   id="path3896" />
                <path
                   d="m 10.796875,72.90625 h 38.71875 v -8.3125 h -29.6875 V 46.734375 q 2.140625,0.734375 4.28125,1.09375 2.15625,0.359375 4.3125,0.359375 Q 40.625,48.1875 47.75,41.5 54.890625,34.8125 54.890625,23.390625 54.890625,11.625 47.5625,5.09375 40.234375,-1.421875 26.90625,-1.421875 q -4.59375,0 -9.359375,0.78125 -4.75,0.78125 -9.828125,2.34375 V 11.625 q 4.390625,-2.390625 9.078125,-3.5625 4.6875,-1.171875 9.90625,-1.171875 8.453125,0 13.375,4.4375 4.9375,4.4375 4.9375,12.0625 0,7.609375 -4.9375,12.046875 -4.921875,4.453125 -13.375,4.453125 -3.953125,0 -7.890625,-0.875 -3.921875,-0.875 -8.015625,-2.734375 z"
                   id="path3898" />
              </defs>
              <use
                 xlink:href="#DejaVuSans-49"
                 id="use3450"
                 x="0"
                 y="0"
                 width="100%"
                 height="100%" />
              <use
                 x="63.623047"
                 xlink:href="#DejaVuSans-53"
                 id="use3452"
                 y="0"
                 width="100%"
                 height="100%" />
              <use
                 x="127.24609"
                 xlink:href="#DejaVuSans-48"
                 id="use3454"
                 y="0"
                 width="100%"
                 height="100%" />
            </g>
          </g>
        </g>
        <g
           id="xtick_4">
          <g
             id="line2d_4">
            <g
               id="g3462">
              <use
                 style="stroke:#000000;stroke-width:0.8"
                 x="468.80191"
                 xlink:href="#m0aaed992e8"
                 y="246.03999"
                 id="use3460"
                 width="100%"
                 height="100%" />
            </g>
          </g>
          <g
             id="text_4">
            <!-- 210 -->
            <g
               transform="matrix(0.1,0,0,-0.1,459.25817,260.63844)"
               id="g3474">
              <defs
                 id="defs3466">
                <path
                   d="M 19.1875,8.296875 H 53.609375 V 0 H 7.328125 v 8.296875 q 5.609375,5.8125 15.296875,15.59375 9.703125,9.796875 12.1875,12.640625 4.734375,5.3125 6.609375,9 1.890625,3.6875 1.890625,7.25 0,5.8125 -4.078125,9.46875 -4.078125,3.671875 -10.625,3.671875 -4.640625,0 -9.796875,-1.609375 -5.140625,-1.609375 -11,-4.890625 v 9.96875 Q 13.765625,71.78125 18.9375,73 q 5.1875,1.21875 9.484375,1.21875 11.328125,0 18.0625,-5.671875 6.734375,-5.65625 6.734375,-15.125 0,-4.5 -1.6875,-8.53125 Q 49.859375,40.875 45.40625,35.40625 44.1875,33.984375 37.640625,27.21875 31.109375,20.453125 19.1875,8.296875 Z"
                   id="path3910" />
              </defs>
              <use
                 xlink:href="#DejaVuSans-50"
                 id="use3468"
                 x="0"
                 y="0"
                 width="100%"
                 height="100%" />
              <use
                 x="63.623047"
                 xlink:href="#DejaVuSans-49"
                 id="use3470"
                 y="0"
                 width="100%"
                 height="100%" />
              <use
                 x="127.24609"
                 xlink:href="#DejaVuSans-48"
                 id="use3472"
                 y="0"
                 width="100%"
                 height="100%" />
            </g>
          </g>
        </g>
        <g
           id="xtick_5">
          <g
             id="line2d_5">
            <g
               id="g3480">
              <use
                 style="stroke:#000000;stroke-width:0.8"
                 x="610.21252"
                 xlink:href="#m0aaed992e8"
                 y="246.03999"
                 id="use3478"
                 width="100%"
                 height="100%" />
            </g>
          </g>
          <g
             id="text_5">
            <!-- 270 -->
            <g
               transform="matrix(0.1,0,0,-0.1,600.6688,260.63844)"
               id="g3492">
              <defs
                 id="defs3484">
                <path
                   d="m 8.203125,72.90625 h 46.875 V 68.703125 L 28.609375,0 H 18.3125 L 43.21875,64.59375 H 8.203125 Z"
                   id="path3922" />
              </defs>
              <use
                 xlink:href="#DejaVuSans-50"
                 id="use3486"
                 x="0"
                 y="0"
                 width="100%"
                 height="100%" />
              <use
                 x="63.623047"
                 xlink:href="#DejaVuSans-55"
                 id="use3488"
                 y="0"
                 width="100%"
                 height="100%" />
              <use
                 x="127.24609"
                 xlink:href="#DejaVuSans-48"
                 id="use3490"
                 y="0"
                 width="100%"
                 height="100%" />
            </g>
          </g>
        </g>
        <g
           id="text_6">
          <!-- Target fill level (ml) -->
          <g
             transform="matrix(0.1,0,0,-0.1,328.66703,274.31656)"
             id="g3556">
            <defs
               id="defs3510">
              <path
                 d="M -0.296875,72.90625 H 61.375 v -8.3125 H 35.5 V 0 H 25.59375 V 64.59375 H -0.296875 Z"
                 id="path3931" />
              <path
                 d="m 34.28125,27.484375 q -10.890625,0 -15.09375,-2.484375 -4.203125,-2.484375 -4.203125,-8.5 0,-4.78125 3.15625,-7.59375 3.15625,-2.796875 8.5625,-2.796875 7.484375,0 12,5.296875 4.515625,5.296875 4.515625,14.078125 v 2 z m 17.921875,3.71875 V 0 H 43.21875 v 8.296875 q -3.078125,-4.96875 -7.671875,-7.34375 -4.59375,-2.375 -11.234375,-2.375 -8.390625,0 -13.359375,4.71875 Q 6,8.015625 6,15.921875 q 0,9.21875 6.171875,13.90625 6.1875,4.6875 18.4375,4.6875 H 43.21875 v 0.890625 q 0,6.203125 -4.078125,9.59375 -4.078125,3.390625 -11.453125,3.390625 -4.6875,0 -9.140625,-1.125 -4.4375,-1.125 -8.53125,-3.375 v 8.3125 q 4.921875,1.90625 9.5625,2.84375 Q 24.21875,56 28.609375,56 q 11.875,0 17.734375,-6.15625 5.859375,-6.140625 5.859375,-18.640625 z"
                 id="path3933" />
              <path
                 d="m 41.109375,46.296875 q -1.515625,0.875 -3.296875,1.28125 Q 36.03125,48 33.890625,48 26.265625,48 22.1875,43.046875 18.109375,38.09375 18.109375,28.8125 V 0 h -9.03125 v 54.6875 h 9.03125 v -8.5 q 2.84375,4.984375 7.375,7.390625 Q 30.03125,56 36.53125,56 q 0.921875,0 2.046875,-0.125 1.125,-0.109375 2.484375,-0.359375 z"
                 id="path3935" />
              <path
                 d="m 45.40625,27.984375 q 0,9.765625 -4.03125,15.125 -4.015625,5.375 -11.296875,5.375 -7.21875,0 -11.25,-5.375 -4.03125,-5.359375 -4.03125,-15.125 0,-9.71875 4.03125,-15.09375 4.03125,-5.375 11.25,-5.375 7.28125,0 11.296875,5.375 4.03125,5.375 4.03125,15.09375 z M 54.390625,6.78125 q 0,-13.953125 -6.203125,-20.765625 -6.1875,-6.8125 -18.984375,-6.8125 -4.734375,0 -8.9375,0.703125 -4.203125,0.703125 -8.15625,2.171875 V -9.1875 q 3.953125,-2.140625 7.8125,-3.15625 3.859375,-1.03125 7.859375,-1.03125 8.84375,0 13.234375,4.609375 4.390625,4.609375 4.390625,13.9375 V 9.625 Q 42.625,4.78125 38.28125,2.390625 33.9375,0 27.875,0 17.828125,0 11.671875,7.65625 q -6.15625,7.671875 -6.15625,20.328125 0,12.6875 6.15625,20.34375 Q 17.828125,56 27.875,56 q 6.0625,0 10.40625,-2.390625 4.34375,-2.390625 7.125,-7.21875 V 54.6875 h 8.984375 z"
                 id="path3937" />
              <path
                 d="m 56.203125,29.59375 v -4.390625 h -41.3125 q 0.59375,-9.28125 5.59375,-14.140625 5,-4.859375 13.9375,-4.859375 5.171875,0 10.03125,1.265625 4.859375,1.265625 9.65625,3.8125 v -8.5 q -4.84375,-2.046875 -9.921875,-3.125 -5.078125,-1.078125 -10.296875,-1.078125 -13.09375,0 -20.734375,7.609375 -7.640625,7.625 -7.640625,20.625 0,13.421875 7.25,21.296875 Q 20.015625,56 32.328125,56 q 11.03125,0 17.453125,-7.109375 6.421875,-7.09375 6.421875,-19.296875 z m -8.984375,2.640625 q -0.09375,7.359375 -4.125,11.75 -4.03125,4.40625 -10.671875,4.40625 -7.515625,0 -12.03125,-4.25 -4.515625,-4.25 -5.203125,-11.96875 z"
                 id="path3939" />
              <path
                 d="M 18.3125,70.21875 V 54.6875 h 18.5 v -6.984375 h -18.5 v -29.6875 q 0,-6.6875 1.828125,-8.59375 1.828125,-1.90625 7.453125,-1.90625 H 36.8125 V 0 H 27.59375 Q 17.1875,0 13.234375,3.875 9.28125,7.765625 9.28125,18.015625 v 29.6875 H 2.6875 V 54.6875 h 6.59375 v 15.53125 z"
                 id="path3941" />
              <path
                 id="path3943"
                 d="" />
              <path
                 d="M 37.109375,75.984375 V 68.5 h -8.59375 q -4.828125,0 -6.71875,-1.953125 -1.875,-1.953125 -1.875,-7.03125 V 54.6875 H 34.71875 V 47.703125 H 19.921875 V 0 h -9.03125 V 47.703125 H 2.296875 V 54.6875 h 8.59375 V 58.5 q 0,9.125 4.25,13.296875 4.25,4.1875 13.46875,4.1875 z"
                 id="path3945" />
              <path
                 d="M 9.421875,54.6875 H 18.40625 V 0 H 9.421875 Z m 0,21.296875 H 18.40625 V 64.59375 H 9.421875 Z"
                 id="path3947" />
              <path
                 d="M 9.421875,75.984375 H 18.40625 V 0 H 9.421875 Z"
                 id="path3949" />
              <path
                 d="M 2.984375,54.6875 H 12.5 L 29.59375,8.796875 46.6875,54.6875 h 9.515625 L 35.6875,0 H 23.484375 Z"
                 id="path3951" />
              <path
                 d="M 31,75.875 Q 24.46875,64.65625 21.28125,53.65625 18.109375,42.671875 18.109375,31.390625 18.109375,20.125 21.3125,9.0625 24.515625,-2 31,-13.1875 H 23.1875 Q 15.875,-1.703125 12.234375,9.375 8.59375,20.453125 8.59375,31.390625 q 0,10.890625 3.609375,21.921875 3.625,11.046875 10.984375,22.5625 z"
                 id="path3953" />
              <path
                 d="M 52,44.1875 Q 55.375,50.25 60.0625,53.125 64.75,56 71.09375,56 q 8.546875,0 13.1875,-5.984375 4.640625,-5.96875 4.640625,-17 V 0 h -9.03125 v 32.71875 q 0,7.859375 -2.796875,11.65625 -2.78125,3.8125 -8.484375,3.8125 -6.984375,0 -11.046875,-4.640625 -4.046875,-4.625 -4.046875,-12.640625 V 0 h -9.03125 v 32.71875 q 0,7.90625 -2.78125,11.6875 -2.78125,3.78125 -8.59375,3.78125 -6.890625,0 -10.953125,-4.65625 -4.046875,-4.65625 -4.046875,-12.625 V 0 h -9.03125 v 54.6875 h 9.03125 v -8.5 q 3.078125,5.03125 7.375,7.421875 Q 29.78125,56 35.6875,56 41.65625,56 45.828125,52.96875 50,49.953125 52,44.1875 Z"
                 id="path3955" />
              <path
                 d="m 8.015625,75.875 h 7.8125 q 7.3125,-11.515625 10.953125,-22.5625 3.640625,-11.03125 3.640625,-21.921875 0,-10.9375 -3.640625,-22.015625 -3.640625,-11.078125 -10.953125,-22.5625 h -7.8125 Q 14.5,-2 17.703125,9.0625 20.90625,20.125 20.90625,31.390625 q 0,11.28125 -3.203125,22.265625 -3.203125,11 -9.6875,22.21875 z"
                 id="path3957" />
            </defs>
            <use
               xlink:href="#DejaVuSans-84"
               id="use3512"
               x="0"
               y="0"
               width="100%"
               height="100%" />
            <use
               x="44.583984"
               xlink:href="#DejaVuSans-97"
               id="use3514"
               y="0"
               width="100%"
               height="100%" />
            <use
               x="105.86328"
               xlink:href="#DejaVuSans-114"
               id="use3516"
               y="0"
               width="100%"
               height="100%" />
            <use
               x="145.22656"
               xlink:href="#DejaVuSans-103"
               id="use3518"
               y="0"
               width="100%"
               height="100%" />
            <use
               x="208.70312"
               xlink:href="#DejaVuSans-101"
               id="use3520"
               y="0"
               width="100%"
               height="100%" />
            <use
               x="270.22656"
               xlink:href="#DejaVuSans-116"
               id="use3522"
               y="0"
               width="100%"
               height="100%" />
            <use
               x="309.43555"
               xlink:href="#DejaVuSans-32"
               id="use3524"
               y="0"
               width="100%"
               height="100%" />
            <use
               x="341.22266"
               xlink:href="#DejaVuSans-102"
               id="use3526"
               y="0"
               width="100%"
               height="100%" />
            <use
               x="376.42773"
               xlink:href="#DejaVuSans-105"
               id="use3528"
               y="0"
               width="100%"
               height="100%" />
            <use
               x="404.21094"
               xlink:href="#DejaVuSans-108"
               id="use3530"
               y="0"
               width="100%"
               height="100%" />
            <use
               x="431.99414"
               xlink:href="#DejaVuSans-108"
               id="use3532"
               y="0"
               width="100%"
               height="100%" />
            <use
               x="459.77734"
               xlink:href="#DejaVuSans-32"
               id="use3534"
               y="0"
               width="100%"
               height="100%" />
            <use
               x="491.56445"
               xlink:href="#DejaVuSans-108"
               id="use3536"
               y="0"
               width="100%"
               height="100%" />
            <use
               x="519.34766"
               xlink:href="#DejaVuSans-101"
               id="use3538"
               y="0"
               width="100%"
               height="100%" />
            <use
               x="580.87109"
               xlink:href="#DejaVuSans-118"
               id="use3540"
               y="0"
               width="100%"
               height="100%" />
            <use
               x="640.05078"
               xlink:href="#DejaVuSans-101"
               id="use3542"
               y="0"
               width="100%"
               height="100%" />
            <use
               x="701.57422"
               xlink:href="#DejaVuSans-108"
               id="use3544"
               y="0"
               width="100%"
               height="100%" />
            <use
               x="729.35742"
               xlink:href="#DejaVuSans-32"
               id="use3546"
               y="0"
               width="100%"
               height="100%" />
            <use
               x="761.14453"
               xlink:href="#DejaVuSans-40"
               id="use3548"
               y="0"
               width="100%"
               height="100%" />
            <use
               x="800.1582"
               xlink:href="#DejaVuSans-109"
               id="use3550"
               y="0"
               width="100%"
               height="100%" />
            <use
               x="897.57031"
               xlink:href="#DejaVuSans-108"
               id="use3552"
               y="0"
               width="100%"
               height="100%" />
            <use
               x="925.35352"
               xlink:href="#DejaVuSans-41"
               id="use3554"
               y="0"
               width="100%"
               height="100%" />
          </g>
        </g>
      </g>
      <g
         id="matplotlib.axis_2">
        <g
           id="ytick_1">
          <g
             id="line2d_6">
            <defs
               id="defs3561">
              <path
                 d="M 0,0 H -3.5"
                 id="path3985"
                 style="stroke:#000000;stroke-width:0.8" />
            </defs>
            <g
               id="g3565">
              <use
                 style="stroke:#000000;stroke-width:0.8"
                 x="44.57"
                 xlink:href="#mfc9b43449d"
                 y="217.02284"
                 id="use3563"
                 width="100%"
                 height="100%" />
            </g>
          </g>
          <g
             id="text_7">
            <!-- 5 -->
            <g
               transform="matrix(0.1,0,0,-0.1,31.2075,220.82207)"
               id="g3570">
              <use
                 xlink:href="#DejaVuSans-53"
                 id="use3568"
                 x="0"
                 y="0"
                 width="100%"
                 height="100%" />
            </g>
          </g>
        </g>
        <g
           id="ytick_2">
          <g
             id="line2d_7">
            <g
               id="g3576">
              <use
                 style="stroke:#000000;stroke-width:0.8"
                 x="44.57"
                 xlink:href="#mfc9b43449d"
                 y="180.96915"
                 id="use3574"
                 width="100%"
                 height="100%" />
            </g>
          </g>
          <g
             id="text_8">
            <!-- 10 -->
            <g
               transform="matrix(0.1,0,0,-0.1,24.845,184.76837)"
               id="g3583">
              <use
                 xlink:href="#DejaVuSans-49"
                 id="use3579"
                 x="0"
                 y="0"
                 width="100%"
                 height="100%" />
              <use
                 x="63.623047"
                 xlink:href="#DejaVuSans-48"
                 id="use3581"
                 y="0"
                 width="100%"
                 height="100%" />
            </g>
          </g>
        </g>
        <g
           id="ytick_3">
          <g
             id="line2d_8">
            <g
               id="g3589">
              <use
                 style="stroke:#000000;stroke-width:0.8"
                 x="44.57"
                 xlink:href="#mfc9b43449d"
                 y="144.91547"
                 id="use3587"
                 width="100%"
                 height="100%" />
            </g>
          </g>
          <g
             id="text_9">
            <!-- 15 -->
            <g
               transform="matrix(0.1,0,0,-0.1,24.845,148.71468)"
               id="g3596">
              <use
                 xlink:href="#DejaVuSans-49"
                 id="use3592"
                 x="0"
                 y="0"
                 width="100%"
                 height="100%" />
              <use
                 x="63.623047"
                 xlink:href="#DejaVuSans-53"
                 id="use3594"
                 y="0"
                 width="100%"
                 height="100%" />
            </g>
          </g>
        </g>
        <g
           id="ytick_4">
          <g
             id="line2d_9">
            <g
               id="g3602">
              <use
                 style="stroke:#000000;stroke-width:0.8"
                 x="44.57"
                 xlink:href="#mfc9b43449d"
                 y="108.86176"
                 id="use3600"
                 width="100%"
                 height="100%" />
            </g>
          </g>
          <g
             id="text_10">
            <!-- 20 -->
            <g
               transform="matrix(0.1,0,0,-0.1,24.845,112.66098)"
               id="g3609">
              <use
                 xlink:href="#DejaVuSans-50"
                 id="use3605"
                 x="0"
                 y="0"
                 width="100%"
                 height="100%" />
              <use
                 x="63.623047"
                 xlink:href="#DejaVuSans-48"
                 id="use3607"
                 y="0"
                 width="100%"
                 height="100%" />
            </g>
          </g>
        </g>
        <g
           id="ytick_5">
          <g
             id="line2d_10">
            <g
               id="g3615">
              <use
                 style="stroke:#000000;stroke-width:0.8"
                 x="44.57"
                 xlink:href="#mfc9b43449d"
                 y="72.808075"
                 id="use3613"
                 width="100%"
                 height="100%" />
            </g>
          </g>
          <g
             id="text_11">
            <!-- 25 -->
            <g
               transform="matrix(0.1,0,0,-0.1,24.845,76.607291)"
               id="g3622">
              <use
                 xlink:href="#DejaVuSans-50"
                 id="use3618"
                 x="0"
                 y="0"
                 width="100%"
                 height="100%" />
              <use
                 x="63.623047"
                 xlink:href="#DejaVuSans-53"
                 id="use3620"
                 y="0"
                 width="100%"
                 height="100%" />
            </g>
          </g>
        </g>
        <g
           id="ytick_6">
          <g
             id="line2d_11">
            <g
               id="g3628">
              <use
                 style="stroke:#000000;stroke-width:0.8"
                 x="44.57"
                 xlink:href="#mfc9b43449d"
                 y="36.754379"
                 id="use3626"
                 width="100%"
                 height="100%" />
            </g>
          </g>
          <g
             id="text_12">
            <!-- 30 -->
            <g
               transform="matrix(0.1,0,0,-0.1,24.845,40.553597)"
               id="g3635">
              <use
                 xlink:href="#DejaVuSans-51"
                 id="use3631"
                 x="0"
                 y="0"
                 width="100%"
                 height="100%" />
              <use
                 x="63.623047"
                 xlink:href="#DejaVuSans-48"
                 id="use3633"
                 y="0"
                 width="100%"
                 height="100%" />
            </g>
          </g>
        </g>
        <g
           id="text_13">
          <!-- Deviation from target fill level (ml) -->
          <g
             transform="matrix(0,-0.1,-0.1,0,18.765313,215.09656)"
             id="g3718">
            <defs
               id="defs3642">
              <path
                 d="M 19.671875,64.796875 V 8.109375 H 31.59375 q 15.09375,0 22.09375,6.828125 7,6.84375 7,21.59375 0,14.640625 -7,21.453125 -7,6.8125 -22.09375,6.8125 z M 9.8125,72.90625 h 20.265625 q 21.1875,0 31.09375,-8.8125 9.921875,-8.8125 9.921875,-27.5625 0,-18.859375 -9.96875,-27.703125 Q 51.171875,0 30.078125,0 H 9.8125 Z"
                 id="path4035" />
              <path
                 d="m 30.609375,48.390625 q -7.21875,0 -11.421875,-5.640625 -4.203125,-5.640625 -4.203125,-15.453125 0,-9.8125 4.171875,-15.453125 4.1875,-5.640625 11.453125,-5.640625 7.1875,0 11.375,5.65625 4.203125,5.671875 4.203125,15.4375 0,9.71875 -4.203125,15.40625 -4.1875,5.6875 -11.375,5.6875 z m 0,7.609375 q 11.71875,0 18.40625,-7.625 6.703125,-7.609375 6.703125,-21.078125 0,-13.421875 -6.703125,-21.078125 -6.6875,-7.640625 -18.40625,-7.640625 -11.765625,0 -18.4375,7.640625 -6.65625,7.65625 -6.65625,21.078125 0,13.46875 6.65625,21.078125 Q 18.84375,56 30.609375,56 Z"
                 id="path4037" />
              <path
                 d="M 54.890625,33.015625 V 0 H 45.90625 v 32.71875 q 0,7.765625 -3.03125,11.609375 -3.03125,3.859375 -9.078125,3.859375 -7.28125,0 -11.484375,-4.640625 -4.203125,-4.625 -4.203125,-12.640625 V 0 h -9.03125 v 54.6875 h 9.03125 v -8.5 q 3.234375,4.9375 7.59375,7.375 4.375,2.4375 10.09375,2.4375 9.421875,0 14.25,-5.828125 4.84375,-5.828125 4.84375,-17.15625 z"
                 id="path4039" />
            </defs>
            <use
               xlink:href="#DejaVuSans-68"
               id="use3644"
               x="0"
               y="0"
               width="100%"
               height="100%" />
            <use
               x="77.001953"
               xlink:href="#DejaVuSans-101"
               id="use3646"
               y="0"
               width="100%"
               height="100%" />
            <use
               x="138.52539"
               xlink:href="#DejaVuSans-118"
               id="use3648"
               y="0"
               width="100%"
               height="100%" />
            <use
               x="197.70508"
               xlink:href="#DejaVuSans-105"
               id="use3650"
               y="0"
               width="100%"
               height="100%" />
            <use
               x="225.48828"
               xlink:href="#DejaVuSans-97"
               id="use3652"
               y="0"
               width="100%"
               height="100%" />
            <use
               x="286.76758"
               xlink:href="#DejaVuSans-116"
               id="use3654"
               y="0"
               width="100%"
               height="100%" />
            <use
               x="325.97656"
               xlink:href="#DejaVuSans-105"
               id="use3656"
               y="0"
               width="100%"
               height="100%" />
            <use
               x="353.75977"
               xlink:href="#DejaVuSans-111"
               id="use3658"
               y="0"
               width="100%"
               height="100%" />
            <use
               x="414.94141"
               xlink:href="#DejaVuSans-110"
               id="use3660"
               y="0"
               width="100%"
               height="100%" />
            <use
               x="478.32031"
               xlink:href="#DejaVuSans-32"
               id="use3662"
               y="0"
               width="100%"
               height="100%" />
            <use
               x="510.10742"
               xlink:href="#DejaVuSans-102"
               id="use3664"
               y="0"
               width="100%"
               height="100%" />
            <use
               x="545.3125"
               xlink:href="#DejaVuSans-114"
               id="use3666"
               y="0"
               width="100%"
               height="100%" />
            <use
               x="584.17578"
               xlink:href="#DejaVuSans-111"
               id="use3668"
               y="0"
               width="100%"
               height="100%" />
            <use
               x="645.35742"
               xlink:href="#DejaVuSans-109"
               id="use3670"
               y="0"
               width="100%"
               height="100%" />
            <use
               x="742.76953"
               xlink:href="#DejaVuSans-32"
               id="use3672"
               y="0"
               width="100%"
               height="100%" />
            <use
               x="774.55664"
               xlink:href="#DejaVuSans-116"
               id="use3674"
               y="0"
               width="100%"
               height="100%" />
            <use
               x="813.76562"
               xlink:href="#DejaVuSans-97"
               id="use3676"
               y="0"
               width="100%"
               height="100%" />
            <use
               x="875.04492"
               xlink:href="#DejaVuSans-114"
               id="use3678"
               y="0"
               width="100%"
               height="100%" />
            <use
               x="914.4082"
               xlink:href="#DejaVuSans-103"
               id="use3680"
               y="0"
               width="100%"
               height="100%" />
            <use
               x="977.88477"
               xlink:href="#DejaVuSans-101"
               id="use3682"
               y="0"
               width="100%"
               height="100%" />
            <use
               x="1039.4082"
               xlink:href="#DejaVuSans-116"
               id="use3684"
               y="0"
               width="100%"
               height="100%" />
            <use
               x="1078.6172"
               xlink:href="#DejaVuSans-32"
               id="use3686"
               y="0"
               width="100%"
               height="100%" />
            <use
               x="1110.4043"
               xlink:href="#DejaVuSans-102"
               id="use3688"
               y="0"
               width="100%"
               height="100%" />
            <use
               x="1145.6094"
               xlink:href="#DejaVuSans-105"
               id="use3690"
               y="0"
               width="100%"
               height="100%" />
            <use
               x="1173.3926"
               xlink:href="#DejaVuSans-108"
               id="use3692"
               y="0"
               width="100%"
               height="100%" />
            <use
               x="1201.1758"
               xlink:href="#DejaVuSans-108"
               id="use3694"
               y="0"
               width="100%"
               height="100%" />
            <use
               x="1228.959"
               xlink:href="#DejaVuSans-32"
               id="use3696"
               y="0"
               width="100%"
               height="100%" />
            <use
               x="1260.7461"
               xlink:href="#DejaVuSans-108"
               id="use3698"
               y="0"
               width="100%"
               height="100%" />
            <use
               x="1288.5293"
               xlink:href="#DejaVuSans-101"
               id="use3700"
               y="0"
               width="100%"
               height="100%" />
            <use
               x="1350.0527"
               xlink:href="#DejaVuSans-118"
               id="use3702"
               y="0"
               width="100%"
               height="100%" />
            <use
               x="1409.2324"
               xlink:href="#DejaVuSans-101"
               id="use3704"
               y="0"
               width="100%"
               height="100%" />
            <use
               x="1470.7559"
               xlink:href="#DejaVuSans-108"
               id="use3706"
               y="0"
               width="100%"
               height="100%" />
            <use
               x="1498.5391"
               xlink:href="#DejaVuSans-32"
               id="use3708"
               y="0"
               width="100%"
               height="100%" />
            <use
               x="1530.3262"
               xlink:href="#DejaVuSans-40"
               id="use3710"
               y="0"
               width="100%"
               height="100%" />
            <use
               x="1569.3398"
               xlink:href="#DejaVuSans-109"
               id="use3712"
               y="0"
               width="100%"
               height="100%" />
            <use
               x="1666.752"
               xlink:href="#DejaVuSans-108"
               id="use3714"
               y="0"
               width="100%"
               height="100%" />
            <use
               x="1694.5352"
               xlink:href="#DejaVuSans-41"
               id="use3716"
               y="0"
               width="100%"
               height="100%" />
          </g>
        </g>
      </g>
      <g
         id="line2d_12">
        <path
           clip-path="url(#p5c76e20aa6)"
           d="m 44.57,233.00344 2.547939,0.12223 3.397253,0.43621 4.246566,0.85696 3.397252,0.65656 2.54794,0.25802 1.698626,-0.0149 1.698626,-0.19862 1.698627,-0.40087 1.698626,-0.60835 1.698626,-0.81139 1.698626,-1.00238 2.54794,-1.8116 3.397252,-2.81937 5.945192,-5.08549 2.54794,-1.86741 2.547939,-1.54919 2.54794,-1.21495 2.547939,-0.90645 2.54794,-0.63741 2.547939,-0.4076 2.547942,-0.20617 3.39725,-0.003 3.39725,0.26346 2.54794,0.37305 2.54794,0.56768 2.54794,0.84635 1.69863,0.76929 1.69862,0.96301 1.69863,1.16824 2.54794,2.11469 3.39725,3.26985 3.39725,3.221 1.69863,1.36408 1.69863,1.09528 1.69862,0.77424 1.69863,0.42968 1.69863,0.091 1.69862,-0.21925 1.69863,-0.48793 1.69862,-0.70652 2.54794,-1.36397 3.39726,-2.18136 11.04107,-7.49803 4.24656,-2.39179 10.19176,-5.32607 2.54794,-1.10344 1.69863,-0.56046 1.69862,-0.37469 1.69863,-0.16503 1.69862,0.057 1.69863,0.27384 1.69863,0.47794 1.69862,0.66179 2.54794,1.29777 2.54794,1.61958 2.54794,1.88552 5.94519,4.66007 1.69863,1.07077 1.69863,0.79089 1.69862,0.43598 1.69863,0.03 1.69863,-0.39661 1.69862,-0.81497 1.69863,-1.19696 1.69862,-1.53016 1.69863,-1.80036 2.54794,-3.07174 8.49313,-10.86313 2.54794,-2.68698 2.54794,-2.2341 2.54794,-1.82961 2.54794,-1.53257 2.54794,-1.30075 2.54794,-1.02751 1.69862,-0.46172 1.69863,-0.22393 1.69863,0.0501 1.69862,0.33149 1.69863,0.58216 2.54794,1.19197 4.24657,2.09523 2.54793,0.93048 1.69863,0.42534 2.54794,0.36917 2.54794,0.12366 3.39725,-0.11034 2.54794,-0.27417 2.54794,-0.45742 2.54794,-0.64746 3.39725,-1.11107 10.19176,-3.63998 2.54794,-0.61138 2.54794,-0.33379 1.69863,-0.0377 1.69862,0.11932 2.54794,0.46209 2.54794,0.75674 2.54794,1.00543 2.54794,1.25196 2.54794,1.55682 1.69863,1.25301 1.69862,1.45045 2.54794,2.55321 2.54794,2.94221 7.64382,9.24758 2.54794,2.51981 1.69862,1.39891 1.69863,1.15168 1.69863,0.89495 1.69862,0.63581 1.69863,0.37614 1.69863,0.11336 1.69862,-0.15319 1.69863,-0.4171 1.69862,-0.67647 1.69863,-0.92365 1.69863,-1.14982 2.54794,-2.06985 7.64382,-6.80987 1.69862,-1.15024 1.69863,-0.85464 1.69862,-0.50349 1.69863,-0.11583 1.69863,0.28018 1.69862,0.65566 1.69863,0.98535 1.69863,1.24314 3.39725,2.90096 3.39725,2.83914 1.69863,1.20894 1.69862,1.00947 1.69863,0.79263 1.69863,0.57792 1.69862,0.37987 1.69863,0.2083 2.54794,0.0605 3.39725,-0.20818 5.94519,-0.41627 2.54794,0.0315 3.39725,0.30844 7.64382,0.96806 2.54794,0.0563 3.39725,-0.20199 5.9452,-0.49793 3.39725,0.001 4.24656,0.31949 7.64382,0.84345 3.39726,0.59944 2.54793,0.65386 4.24657,1.38848 3.39725,1.0484 2.54794,0.50514 1.69863,0.12363 1.69863,-0.0866 1.69862,-0.32489 1.69863,-0.58628 1.69863,-0.86294 1.69862,-1.14465 1.69863,-1.41753 2.54794,-2.5528 5.94519,-6.41857 1.69862,-1.40566 1.69863,-0.99749 0.84931,-0.3225 0.84932,-0.19941 0.84931,-0.0758 0.84931,0.0442 1.69863,0.4139 1.69863,0.76195 2.54794,1.50142 2.54793,1.51951 1.69863,0.85499 1.69863,0.68467 2.54794,0.76671 4.24656,1.22075 2.54794,1.09078 2.54794,1.43442 5.09588,3.06539 1.69863,0.73468 1.69862,0.42714 1.69863,0.0359 0.84931,-0.1534 0.84932,-0.27735 0.84931,-0.40843 0.84931,-0.54481 0.84932,-0.68722 1.69862,-1.80791 1.69863,-2.37997 1.69862,-2.90945 1.69863,-3.35315 3.39725,-7.44343 2.54794,-5.44923 1.69863,-3.15916 1.69862,-2.55325 0.84932,-1.00412 0.84931,-0.8044 0.84931,-0.59754 0.84932,-0.38873 0.84931,-0.18134 0.84931,0.0202 0.84932,0.21109 0.84931,0.38742 0.84931,0.54956 1.69863,1.50931 1.69863,1.92684 2.54793,3.3439 6.79451,9.20185 3.39725,4.14845 2.54794,2.77359 1.69863,1.59534 1.69862,1.30193 1.69863,0.92751 0.84931,0.29845 0.84932,0.17895 0.84931,0.0533 0.84931,-0.0719 0.84932,-0.19959 1.69862,-0.76106 1.69863,-1.18013 1.69863,-1.48959 5.09588,-4.73933 1.69862,-1.1293 1.69863,-0.68817 0.84931,-0.15721 0.84931,-0.0282 0.84932,0.1 1.69862,0.55977 1.69863,0.96263 2.54794,1.90768 2.54794,1.97986 1.69862,1.09454 1.69863,0.7715 1.69863,0.37568 1.69862,-0.032 1.69863,-0.39974 1.69863,-0.67742 5.94519,-2.75458 1.69862,-0.41738 1.69863,-0.1265 1.69863,0.16629 1.69862,0.42677 2.54794,0.99237 9.34245,4.18459 4.24656,1.52082 3.39725,1.00022 1.69863,0.33434 1.69863,0.1483 1.69862,-0.0948 1.69863,-0.37689 1.69863,-0.67458 1.69862,-0.95282 1.69863,-1.18524 3.39725,-2.77426 3.39725,-2.76914 2.54794,-1.74165 1.69863,-0.91645 1.69863,-0.69233 1.69862,-0.44826 1.69863,-0.19419 1.69862,0.0647 1.69863,0.32697 1.69863,0.57496 1.69862,0.80296 2.54794,1.52759 5.09588,3.24377 1.69863,0.78485 1.69863,0.50174 1.69862,0.187 1.69863,-0.11669 1.69862,-0.35878 5.9452,-1.62795 1.69862,-0.12325 1.69863,0.1517 1.69862,0.42805 1.69863,0.66477 2.54794,1.29421 5.94519,3.20002 2.92468,1.35891 v 0"
           style="fill:none;stroke:#006400;stroke-width:1.5;stroke-linecap:square"
           id="path3722" />
      </g>
      <g
         id="line2d_13">
        <path
           clip-path="url(#p5c76e20aa6)"
           d="m 44.57,207.86237 1.330591,-0.25251 1.33059,-0.57189 1.330591,-0.86312 1.33059,-1.10971 1.995886,-2.01464 2.661181,-3.07151 9.314135,-11.369 3.326476,-3.93979 1.995886,-1.95384 1.330591,-0.99176 1.33059,-0.68647 1.330591,-0.36498 1.33059,-0.0643 1.330591,0.18086 1.995886,0.55922 4.657067,1.44597 5.322362,1.42251 1.995886,0.80323 2.661181,1.37838 3.991772,2.4463 3.991767,2.38804 2.66119,1.32258 3.32647,1.3311 3.99177,1.57868 3.99178,1.91236 2.66118,1.1838 1.99588,0.62019 1.33059,0.22564 1.33059,0.0493 1.33059,-0.13266 1.33059,-0.31711 1.3306,-0.4938 1.99588,-1.03321 1.99589,-1.30538 5.98765,-4.13342 1.99589,-0.9878 1.99589,-0.69837 2.66118,-0.64725 2.66118,-0.66644 1.99588,-0.74898 1.99589,-1.04932 1.99589,-1.34752 2.66118,-2.16535 2.66118,-2.48492 2.66118,-2.81575 2.66118,-3.22134 3.32648,-4.51861 7.98354,-11.41906 3.99177,-6.30648 2.66118,-4.0635 1.99589,-2.56081 1.33059,-1.36584 1.33059,-1.07662 1.33059,-0.80906 1.99589,-0.85156 2.66118,-0.98702 1.33059,-0.68542 1.33059,-0.9518 1.33059,-1.27275 1.33059,-1.58634 2.66118,-3.73497 1.99589,-2.63129 1.33059,-1.3303 1.33059,-0.83587 0.6653,-0.21367 0.66529,-0.0787 0.6653,0.05 1.33059,0.4407 1.33059,0.79516 1.99588,1.57989 4.65707,4.18976 7.31825,6.74378 1.33059,0.79548 1.33059,0.48765 1.33059,0.14574 1.33059,-0.19254 1.33059,-0.49328 1.99589,-1.14504 2.66118,-1.65728 1.33059,-0.54382 0.66529,-0.12753 0.6653,-0.001 0.66529,0.13903 0.6653,0.29923 0.6653,0.47131 0.66529,0.6549 0.6653,0.83956 1.33059,2.23115 1.33059,2.89435 1.99588,5.22526 3.32648,8.95298 1.33059,2.9059 1.33059,2.22851 0.6653,0.83117 0.66529,0.63974 0.6653,0.45199 0.66529,0.27462 0.6653,0.1087 0.66529,-0.0419 1.33059,-0.45211 1.33059,-0.80659 5.32237,-3.74803 1.33059,-0.50651 1.33059,-0.18148 1.33059,0.18564 1.33059,0.57375 1.33059,0.95641 1.33059,1.28857 1.99589,2.38121 3.32647,4.2018 1.33059,1.44033 1.33059,1.19187 1.33059,0.92527 1.3306,0.67368 1.33058,0.46432 1.99589,0.43464 15.30179,2.27998 1.99589,-0.0392 1.99588,-0.29257 1.99589,-0.5149 5.98766,-1.76121 1.99588,-0.2793 1.99589,-0.0269 1.99589,0.22907 1.99588,0.47917 1.99589,0.7003 2.66118,1.17761 3.99177,1.81243 2.66118,0.91635 2.66118,0.63832 4.65707,1.05221 2.66118,0.92087 2.66118,1.19839 3.99177,2.09632 4.65707,2.42837 1.99589,0.75516 1.33059,0.26883 1.33059,0.003 1.33059,-0.3161 1.33059,-0.66422 1.33059,-0.99859 1.33059,-1.28482 2.66118,-3.04789 1.99589,-2.26816 1.33059,-1.31346 1.33059,-1.08452 1.33059,-0.82831 1.33059,-0.57572 1.33059,-0.34705 1.33059,-0.14573 1.33059,0.024 1.99589,0.30193 1.99588,0.57524 2.66118,1.08241 3.99178,1.70167 1.33059,0.37151 1.33059,0.18081 1.33059,-0.05 1.33059,-0.29826 1.33059,-0.55049 1.33059,-0.7761 1.99589,-1.49912 3.32647,-2.94979 3.32648,-2.84296 1.99588,-1.42936 1.99589,-1.14946 1.99589,-0.84403 1.99588,-0.53012 1.99589,-0.22644 1.99588,0.0543 1.99589,0.29816 2.66118,0.65958 3.32648,0.82809 1.33059,0.15515 1.33059,-0.0479 1.33059,-0.31344 1.33059,-0.63756 1.33059,-1.00067 1.33059,-1.386 1.33059,-1.76998 1.33059,-2.13712 1.99589,-3.81455 1.99588,-4.39739 3.32648,-8.09771 5.98766,-14.84009 2.66118,-6.02605 1.99588,-3.95697 1.3306,-2.21143 1.33059,-1.75374 1.33059,-1.20468 0.66529,-0.3772 0.6653,-0.21157 0.66529,-0.0464 0.6653,0.1179 0.66529,0.27807 0.6653,0.43594 1.33059,1.29252 1.33059,1.7537 1.99589,3.12837 1.99588,3.0941 1.33059,1.64471 0.6653,0.60257 0.66529,0.42178 0.6653,0.21245 0.66529,-0.0238 0.6653,-0.27862 0.66529,-0.55241 0.6653,-0.84157 0.66529,-1.1416 0.6653,-1.44478 1.33059,-3.79659 1.33059,-4.94732 1.33059,-5.95375 1.99589,-10.29262 3.99177,-21.305235 1.33059,-5.914154 1.33059,-4.747124 0.6653,-1.856736 0.66529,-1.486053 0.6653,-1.100769 0.66529,-0.711658 0.6653,-0.32674 0.66529,0.04338 0.6653,0.397508 0.66529,0.721266 0.6653,1.018694 1.33059,2.764546 1.33059,3.442187 3.32648,9.012306 1.33059,2.800982 0.66529,1.076332 0.6653,0.829018 0.66529,0.56268 0.6653,0.288402 0.66529,0.01261 0.6653,-0.253359 0.66529,-0.506212 0.6653,-0.73245 1.33059,-2.02742 1.99589,-3.854376 1.99588,-3.809992 1.33059,-2.019634 0.6653,-0.771097 0.66529,-0.589141 0.6653,-0.405577 0.66529,-0.217493 0.6653,-0.03625 0.66529,0.132079 0.6653,0.283867 1.33059,0.94631 1.33059,1.301462 9.97943,11.002406 1.33059,1.827926 1.99589,3.235208 1.99588,3.754954 5.98766,11.750927 1.99589,3.28876 1.99588,2.90335 3.32648,4.35693 5.98766,7.43814 2.66118,2.89374 1.99588,1.87349 2.66118,2.18426 5.32237,3.98447 1.99588,1.18194 1.33059,0.49453 1.33059,0.14593 0.6653,-0.0837 0.66529,-0.19818 1.33059,-0.7513 1.33059,-1.22497 1.3306,-1.6644 1.33059,-2.02283 1.99588,-3.48062 3.32648,-5.97886 1.33059,-2.09923 1.33059,-1.75118 1.33059,-1.29502 0.6653,-0.44247 0.66529,-0.29587 0.6653,-0.13824 0.66529,0.0282 0.6653,0.19598 0.66529,0.3653 0.6653,0.53452 1.33059,1.54599 1.33059,2.10771 1.33059,2.54048 5.32236,10.91917 1.33059,2.10348 1.33059,1.66026 1.33059,1.21091 1.33059,0.80599 1.33059,0.47859 1.33059,0.24932 4.65707,0.58073 1.33059,0.45858 1.33059,0.70342 1.33059,0.97083 1.33059,1.23074 1.99589,2.2411 5.98766,7.27856 2.66118,2.62526 3.32648,3.13596 1.99588,2.27946 1.33059,1.8446 1.33059,2.15796 1.33059,2.485 1.99589,4.29451 2.66118,6.47456 5.98766,14.90506 2.66118,5.93042 1.99589,4.02866 1.99588,3.59272 1.99589,3.06309 1.33059,1.70295 1.33059,1.4151 1.33059,1.12777 1.33059,0.8483 1.33059,0.5817 1.33059,0.32392 1.33059,0.0631 1.33059,-0.22187 1.33059,-0.53881 1.33059,-0.91414 1.33059,-1.35628 1.33059,-1.86221 1.33059,-2.42357 1.3306,-3.00521 1.33059,-3.58437 1.99588,-6.31402 2.66118,-9.62916 5.32237,-19.78272 5.32236,-19.33194 1.99588,-8.34376 1.99589,-9.44394 2.66118,-14.15018 3.99177,-21.582374 1.33059,-6.113278 1.33059,-5.037751 0.6653,-2.024191 0.66529,-1.656503 0.6653,-1.262809 0.6653,-0.852203 0.66529,-0.429552 v 0"
           style="fill:none;stroke:#00008b;stroke-width:1.5;stroke-linecap:square"
           id="path3725" />
      </g>
      <g
         id="patch_3">
        <path
           d="M 44.57,246.04 V 10.8"
           style="fill:none;stroke:#000000;stroke-width:0.8;stroke-linecap:square;stroke-linejoin:miter"
           id="path3728" />
      </g>
      <g
         id="patch_4">
        <path
           d="M 709.2,246.04 V 10.8"
           style="fill:none;stroke:#000000;stroke-width:0.8;stroke-linecap:square;stroke-linejoin:miter"
           id="path3731" />
      </g>
      <g
         id="patch_5">
        <path
           d="M 44.57,246.04 H 709.2"
           style="fill:none;stroke:#000000;stroke-width:0.8;stroke-linecap:square;stroke-linejoin:miter"
           id="path3734" />
      </g>
      <g
         id="patch_6">
        <path
           d="M 44.57,10.8 H 709.2"
           style="fill:none;stroke:#000000;stroke-width:0.8;stroke-linecap:square;stroke-linejoin:miter"
           id="path3737" />
      </g>
      <g
         id="legend_1">
        <g
           id="patch_7">
          <path
             d="M 598.89219,48.15625 H 702.2 q 2,0 2,-2 V 17.8 q 0,-2 -2,-2 H 598.89219 q -2,0 -2,2 v 28.35625 q 0,2 2,2 z"
             style="opacity:0.8;fill:#ffffff;stroke:#cccccc;stroke-linejoin:miter"
             id="path3740" />
        </g>
        <g
           id="line2d_14">
          <path
             d="m 600.89219,23.898438 h 20"
             style="fill:none;stroke:#006400;stroke-width:1.5;stroke-linecap:square"
             id="path3743" />
        </g>
        <g
           id="line2d_15" />
        <g
           id="text_14">
          <!-- bottle to glass -->
          <g
             transform="matrix(0.1,0,0,-0.1,628.89219,27.398438)"
             id="g3781">
            <defs
               id="defs3749">
              <path
                 d="m 48.6875,27.296875 q 0,9.90625 -4.078125,15.546875 -4.078125,5.640625 -11.203125,5.640625 -7.140625,0 -11.21875,-5.640625 -4.078125,-5.640625 -4.078125,-15.546875 0,-9.90625 4.078125,-15.546875 4.078125,-5.640625 11.21875,-5.640625 7.125,0 11.203125,5.640625 4.078125,5.640625 4.078125,15.546875 z m -30.578125,19.09375 q 2.84375,4.875 7.15625,7.234375 Q 29.59375,56 35.59375,56 q 9.96875,0 16.1875,-7.90625 6.234375,-7.90625 6.234375,-20.796875 0,-12.890625 -6.234375,-20.8125 -6.21875,-7.90625 -16.1875,-7.90625 -6,0 -10.328125,2.375 -4.3125,2.375 -7.15625,7.25 V 0 h -9.03125 v 75.984375 h 9.03125 z"
                 id="path4099" />
              <path
                 d="m 44.28125,53.078125 v -8.5 Q 40.484375,46.53125 36.375,47.5 q -4.09375,0.984375 -8.5,0.984375 -6.6875,0 -10.03125,-2.046875 Q 14.5,44.390625 14.5,40.28125 q 0,-3.125 2.390625,-4.90625 2.390625,-1.78125 9.625,-3.390625 l 3.078125,-0.6875 Q 39.15625,29.25 43.1875,25.515625 47.21875,21.78125 47.21875,15.09375 q 0,-7.625 -6.03125,-12.078125 -6.03125,-4.4375 -16.578125,-4.4375 -4.390625,0 -9.15625,0.859375 Q 10.6875,0.296875 5.421875,2 v 9.28125 q 4.984375,-2.59375 9.8125,-3.890625 4.828125,-1.28125 9.578125,-1.28125 6.34375,0 9.75,2.171875 3.421875,2.171875 3.421875,6.125 0,3.65625 -2.46875,5.609375 -2.453125,1.953125 -10.8125,3.765625 l -3.125,0.734375 q -8.34375,1.75 -12.0625,5.390625 -3.703125,3.640625 -3.703125,9.984375 0,7.71875 5.46875,11.90625 Q 16.75,56 26.8125,56 q 4.96875,0 9.359375,-0.734375 4.40625,-0.71875 8.109375,-2.1875 z"
                 id="path4101" />
            </defs>
            <use
               xlink:href="#DejaVuSans-98"
               id="use3751"
               x="0"
               y="0"
               width="100%"
               height="100%" />
            <use
               x="63.476562"
               xlink:href="#DejaVuSans-111"
               id="use3753"
               y="0"
               width="100%"
               height="100%" />
            <use
               x="124.6582"
               xlink:href="#DejaVuSans-116"
               id="use3755"
               y="0"
               width="100%"
               height="100%" />
            <use
               x="163.86719"
               xlink:href="#DejaVuSans-116"
               id="use3757"
               y="0"
               width="100%"
               height="100%" />
            <use
               x="203.07617"
               xlink:href="#DejaVuSans-108"
               id="use3759"
               y="0"
               width="100%"
               height="100%" />
            <use
               x="230.85938"
               xlink:href="#DejaVuSans-101"
               id="use3761"
               y="0"
               width="100%"
               height="100%" />
            <use
               x="292.38281"
               xlink:href="#DejaVuSans-32"
               id="use3763"
               y="0"
               width="100%"
               height="100%" />
            <use
               x="324.16992"
               xlink:href="#DejaVuSans-116"
               id="use3765"
               y="0"
               width="100%"
               height="100%" />
            <use
               x="363.37891"
               xlink:href="#DejaVuSans-111"
               id="use3767"
               y="0"
               width="100%"
               height="100%" />
            <use
               x="424.56055"
               xlink:href="#DejaVuSans-32"
               id="use3769"
               y="0"
               width="100%"
               height="100%" />
            <use
               x="456.34766"
               xlink:href="#DejaVuSans-103"
               id="use3771"
               y="0"
               width="100%"
               height="100%" />
            <use
               x="519.82422"
               xlink:href="#DejaVuSans-108"
               id="use3773"
               y="0"
               width="100%"
               height="100%" />
            <use
               x="547.60742"
               xlink:href="#DejaVuSans-97"
               id="use3775"
               y="0"
               width="100%"
               height="100%" />
            <use
               x="608.88672"
               xlink:href="#DejaVuSans-115"
               id="use3777"
               y="0"
               width="100%"
               height="100%" />
            <use
               x="660.98633"
               xlink:href="#DejaVuSans-115"
               id="use3779"
               y="0"
               width="100%"
               height="100%" />
          </g>
        </g>
        <g
           id="line2d_16">
          <path
             d="m 600.89219,38.576562 h 20"
             style="fill:none;stroke:#00008b;stroke-width:1.5;stroke-linecap:square"
             id="path3784" />
        </g>
        <g
           id="line2d_17" />
        <g
           id="text_15">
          <!-- glass to glass -->
          <g
             transform="matrix(0.1,0,0,-0.1,628.89219,42.076562)"
             id="g3816">
            <use
               xlink:href="#DejaVuSans-103"
               id="use3788"
               x="0"
               y="0"
               width="100%"
               height="100%" />
            <use
               x="63.476562"
               xlink:href="#DejaVuSans-108"
               id="use3790"
               y="0"
               width="100%"
               height="100%" />
            <use
               x="91.259766"
               xlink:href="#DejaVuSans-97"
               id="use3792"
               y="0"
               width="100%"
               height="100%" />
            <use
               x="152.53906"
               xlink:href="#DejaVuSans-115"
               id="use3794"
               y="0"
               width="100%"
               height="100%" />
            <use
               x="204.63867"
               xlink:href="#DejaVuSans-115"
               id="use3796"
               y="0"
               width="100%"
               height="100%" />
            <use
               x="256.73828"
               xlink:href="#DejaVuSans-32"
               id="use3798"
               y="0"
               width="100%"
               height="100%" />
            <use
               x="288.52539"
               xlink:href="#DejaVuSans-116"
               id="use3800"
               y="0"
               width="100%"
               height="100%" />
            <use
               x="327.73438"
               xlink:href="#DejaVuSans-111"
               id="use3802"
               y="0"
               width="100%"
               height="100%" />
            <use
               x="388.91602"
               xlink:href="#DejaVuSans-32"
               id="use3804"
               y="0"
               width="100%"
               height="100%" />
            <use
               x="420.70312"
               xlink:href="#DejaVuSans-103"
               id="use3806"
               y="0"
               width="100%"
               height="100%" />
            <use
               x="484.17969"
               xlink:href="#DejaVuSans-108"
               id="use3808"
               y="0"
               width="100%"
               height="100%" />
            <use
               x="511.96289"
               xlink:href="#DejaVuSans-97"
               id="use3810"
               y="0"
               width="100%"
               height="100%" />
            <use
               x="573.24219"
               xlink:href="#DejaVuSans-115"
               id="use3812"
               y="0"
               width="100%"
               height="100%" />
            <use
               x="625.3418"
               xlink:href="#DejaVuSans-115"
               id="use3814"
               y="0"
               width="100%"
               height="100%" />
          </g>
        </g>
      </g>
    </g>
  </g>
</svg>
