<?xml version="1.0" encoding="UTF-8" standalone="no"?>
<svg
   xmlns:dc="http://purl.org/dc/elements/1.1/"
   xmlns:cc="http://creativecommons.org/ns#"
   xmlns:rdf="http://www.w3.org/1999/02/22-rdf-syntax-ns#"
   xmlns:svg="http://www.w3.org/2000/svg"
   xmlns="http://www.w3.org/2000/svg"
   xmlns:xlink="http://www.w3.org/1999/xlink"
   xmlns:sodipodi="http://sodipodi.sourceforge.net/DTD/sodipodi-0.dtd"
   xmlns:inkscape="http://www.inkscape.org/namespaces/inkscape"
   width="303mm"
   height="118mm"
   viewBox="0 0 303 118"
   version="1.1"
   id="svg8"
   inkscape:version="1.0.1 (3bc2e81, 2020-09-07)"
   sodipodi:docname="layer_compare.svg">
  <defs
     id="defs2">
    <marker
       style="overflow:visible"
       id="marker5588"
       refX="0"
       refY="0"
       orient="auto"
       inkscape:stockid="Arrow2Lend"
       inkscape:isstock="true">
      <path
         transform="matrix(-1.1,0,0,-1.1,-1.1,0)"
         d="M 8.7185878,4.0337352 -2.2072895,0.01601326 8.7185884,-4.0017078 c -1.7454984,2.3720609 -1.7354408,5.6174519 -6e-7,8.035443 z"
         style="fill:#000000;fill-opacity:1;fill-rule:evenodd;stroke:#000000;stroke-width:0.625;stroke-linejoin:round;stroke-opacity:1"
         id="path5586" />
    </marker>
    <marker
       style="overflow:visible"
       id="marker5552"
       refX="0"
       refY="0"
       orient="auto"
       inkscape:stockid="Arrow2Lend"
       inkscape:isstock="true">
      <path
         transform="matrix(-1.1,0,0,-1.1,-1.1,0)"
         d="M 8.7185878,4.0337352 -2.2072895,0.01601326 8.7185884,-4.0017078 c -1.7454984,2.3720609 -1.7354408,5.6174519 -6e-7,8.035443 z"
         style="fill:#000000;fill-opacity:1;fill-rule:evenodd;stroke:#000000;stroke-width:0.625;stroke-linejoin:round;stroke-opacity:1"
         id="path5550" />
    </marker>
    <marker
       style="overflow:visible"
       id="marker5082"
       refX="0"
       refY="0"
       orient="auto"
       inkscape:stockid="Arrow2Lend"
       inkscape:isstock="true">
      <path
         transform="matrix(-1.1,0,0,-1.1,-1.1,0)"
         d="M 8.7185878,4.0337352 -2.2072895,0.01601326 8.7185884,-4.0017078 c -1.7454984,2.3720609 -1.7354408,5.6174519 -6e-7,8.035443 z"
         style="fill:#000000;fill-opacity:1;fill-rule:evenodd;stroke:#000000;stroke-width:0.625;stroke-linejoin:round;stroke-opacity:1"
         id="path5080" />
    </marker>
    <marker
       style="overflow:visible"
       id="Arrow2Lend"
       refX="0"
       refY="0"
       orient="auto"
       inkscape:stockid="Arrow2Lend"
       inkscape:isstock="true"
       inkscape:collect="always">
      <path
         transform="matrix(-1.1,0,0,-1.1,-1.1,0)"
         d="M 8.7185878,4.0337352 -2.2072895,0.01601326 8.7185884,-4.0017078 c -1.7454984,2.3720609 -1.7354408,5.6174519 -6e-7,8.035443 z"
         style="fill:#000000;fill-opacity:1;fill-rule:evenodd;stroke:#000000;stroke-width:0.625;stroke-linejoin:round;stroke-opacity:1"
         id="path4785" />
    </marker>
    <marker
       style="overflow:visible"
       id="Arrow2Mend"
       refX="0"
       refY="0"
       orient="auto"
       inkscape:stockid="Arrow2Mend"
       inkscape:isstock="true">
      <path
         transform="scale(-0.6)"
         d="M 8.7185878,4.0337352 -2.2072895,0.01601326 8.7185884,-4.0017078 c -1.7454984,2.3720609 -1.7354408,5.6174519 -6e-7,8.035443 z"
         style="fill:#000000;fill-opacity:1;fill-rule:evenodd;stroke:#000000;stroke-width:0.625;stroke-linejoin:round;stroke-opacity:1"
         id="path4791" />
    </marker>
    <style
       type="text/css"
       id="style2164">*{stroke-linecap:butt;stroke-linejoin:round;}</style>
    <path
       d="M 0,0 V 3.5"
       id="m8c25438e73"
       style="stroke:#000000;stroke-width:0.8" />
    <path
       d="m 31.78125,66.40625 q -7.609375,0 -11.453125,-7.5 Q 16.5,51.421875 16.5,36.375 q 0,-14.984375 3.828125,-22.484375 3.84375,-7.5 11.453125,-7.5 7.671875,0 11.5,7.5 3.84375,7.5 3.84375,22.484375 0,15.046875 -3.84375,22.53125 -3.828125,7.5 -11.5,7.5 z m 0,7.8125 q 12.265625,0 18.734375,-9.703125 6.46875,-9.6875 6.46875,-28.140625 0,-18.40625 -6.46875,-28.109375 -6.46875,-9.6875 -18.734375,-9.6875 -12.25,0 -18.71875,9.6875 Q 6.59375,17.96875 6.59375,36.375 q 0,18.453125 6.46875,28.140625 6.46875,9.703125 18.71875,9.703125 z"
       id="DejaVuSans-48" />
    <path
       d="M 10.6875,12.40625 H 21 V 0 H 10.6875 Z"
       id="DejaVuSans-46" />
    <path
       d="M 19.1875,8.296875 H 53.609375 V 0 H 7.328125 v 8.296875 q 5.609375,5.8125 15.296875,15.59375 9.703125,9.796875 12.1875,12.640625 4.734375,5.3125 6.609375,9 1.890625,3.6875 1.890625,7.25 0,5.8125 -4.078125,9.46875 -4.078125,3.671875 -10.625,3.671875 -4.640625,0 -9.796875,-1.609375 -5.140625,-1.609375 -11,-4.890625 v 9.96875 Q 13.765625,71.78125 18.9375,73 q 5.1875,1.21875 9.484375,1.21875 11.328125,0 18.0625,-5.671875 6.734375,-5.65625 6.734375,-15.125 0,-4.5 -1.6875,-8.53125 Q 49.859375,40.875 45.40625,35.40625 44.1875,33.984375 37.640625,27.21875 31.109375,20.453125 19.1875,8.296875 Z"
       id="DejaVuSans-50" />
    <path
       d="M 37.796875,64.3125 12.890625,25.390625 h 24.90625 z m -2.59375,8.59375 h 12.40625 V 25.390625 h 10.40625 V 17.1875 H 47.609375 V 0 h -9.8125 V 17.1875 H 4.890625 v 9.515625 z"
       id="DejaVuSans-52" />
    <path
       d="m 33.015625,40.375 q -6.640625,0 -10.53125,-4.546875 -3.875,-4.53125 -3.875,-12.4375 0,-7.859375 3.875,-12.4375 3.890625,-4.5625 10.53125,-4.5625 6.640625,0 10.515625,4.5625 3.875,4.578125 3.875,12.4375 0,7.90625 -3.875,12.4375 Q 39.65625,40.375 33.015625,40.375 Z M 52.59375,71.296875 V 62.3125 q -3.71875,1.75 -7.5,2.671875 -3.78125,0.9375 -7.5,0.9375 -9.765625,0 -14.921875,-6.59375 -5.140625,-6.59375 -5.875,-19.921875 2.875,4.25 7.21875,6.515625 4.359375,2.265625 9.578125,2.265625 10.984375,0 17.359375,-6.671875 6.375,-6.65625 6.375,-18.125 0,-11.234375 -6.640625,-18.03125 -6.640625,-6.78125 -17.671875,-6.78125 -12.65625,0 -19.34375,9.6875 -6.6875,9.703125 -6.6875,28.109375 0,17.28125 8.203125,27.5625 8.203125,10.28125 22.015625,10.28125 3.71875,0 7.5,-0.734375 3.78125,-0.734375 7.890625,-2.1875 z"
       id="DejaVuSans-54" />
    <path
       d="m 31.78125,34.625 q -7.03125,0 -11.0625,-3.765625 -4.015625,-3.765625 -4.015625,-10.34375 0,-6.59375 4.015625,-10.359375 4.03125,-3.765625 11.0625,-3.765625 7.03125,0 11.078125,3.78125 4.0625,3.796875 4.0625,10.34375 0,6.578125 -4.03125,10.34375 Q 38.875,34.625 31.78125,34.625 Z m -9.859375,4.1875 Q 15.578125,40.375 12.03125,44.71875 8.5,49.078125 8.5,55.328125 q 0,8.734375 6.21875,13.8125 6.234375,5.078125 17.0625,5.078125 10.890625,0 17.09375,-5.078125 6.203125,-5.078125 6.203125,-13.8125 0,-6.25 -3.546875,-10.609375 Q 48,40.375 41.703125,38.8125 q 7.125,-1.65625 11.09375,-6.5 3.984375,-4.828125 3.984375,-11.796875 0,-10.609375 -6.46875,-16.28125 -6.46875,-5.65625 -18.53125,-5.65625 -12.046875,0 -18.53125,5.65625 -6.46875,5.671875 -6.46875,16.28125 0,6.96875 4,11.796875 4.015625,4.84375 11.140625,6.5 z M 18.3125,54.390625 q 0,-5.65625 3.53125,-8.828125 3.546875,-3.171875 9.9375,-3.171875 6.359375,0 9.9375,3.171875 3.59375,3.171875 3.59375,8.828125 0,5.671875 -3.59375,8.84375 -3.578125,3.171875 -9.9375,3.171875 -6.390625,0 -9.9375,-3.171875 Q 18.3125,60.0625 18.3125,54.390625 Z"
       id="DejaVuSans-56" />
    <path
       d="m 12.40625,8.296875 h 16.109375 v 55.625 L 10.984375,60.40625 v 8.984375 l 17.4375,3.515625 H 38.28125 V 8.296875 H 54.390625 V 0 H 12.40625 Z"
       id="DejaVuSans-49" />
    <path
       d="M -0.296875,72.90625 H 61.375 v -8.3125 H 35.5 V 0 H 25.59375 V 64.59375 H -0.296875 Z"
       id="DejaVuSans-84" />
    <path
       d="m 41.109375,46.296875 q -1.515625,0.875 -3.296875,1.28125 Q 36.03125,48 33.890625,48 26.265625,48 22.1875,43.046875 18.109375,38.09375 18.109375,28.8125 V 0 h -9.03125 v 54.6875 h 9.03125 v -8.5 q 2.84375,4.984375 7.375,7.390625 Q 30.03125,56 36.53125,56 q 0.921875,0 2.046875,-0.125 1.125,-0.109375 2.484375,-0.359375 z"
       id="DejaVuSans-114" />
    <path
       d="m 34.28125,27.484375 q -10.890625,0 -15.09375,-2.484375 -4.203125,-2.484375 -4.203125,-8.5 0,-4.78125 3.15625,-7.59375 3.15625,-2.796875 8.5625,-2.796875 7.484375,0 12,5.296875 4.515625,5.296875 4.515625,14.078125 v 2 z m 17.921875,3.71875 V 0 H 43.21875 v 8.296875 q -3.078125,-4.96875 -7.671875,-7.34375 -4.59375,-2.375 -11.234375,-2.375 -8.390625,0 -13.359375,4.71875 Q 6,8.015625 6,15.921875 q 0,9.21875 6.171875,13.90625 6.1875,4.6875 18.4375,4.6875 H 43.21875 v 0.890625 q 0,6.203125 -4.078125,9.59375 -4.078125,3.390625 -11.453125,3.390625 -4.6875,0 -9.140625,-1.125 -4.4375,-1.125 -8.53125,-3.375 v 8.3125 q 4.921875,1.90625 9.5625,2.84375 Q 24.21875,56 28.609375,56 q 11.875,0 17.734375,-6.15625 5.859375,-6.140625 5.859375,-18.640625 z"
       id="DejaVuSans-97" />
    <path
       d="M 9.421875,54.6875 H 18.40625 V 0 H 9.421875 Z m 0,21.296875 H 18.40625 V 64.59375 H 9.421875 Z"
       id="DejaVuSans-105" />
    <path
       d="M 54.890625,33.015625 V 0 H 45.90625 v 32.71875 q 0,7.765625 -3.03125,11.609375 -3.03125,3.859375 -9.078125,3.859375 -7.28125,0 -11.484375,-4.640625 -4.203125,-4.625 -4.203125,-12.640625 V 0 h -9.03125 v 54.6875 h 9.03125 v -8.5 q 3.234375,4.9375 7.59375,7.375 4.375,2.4375 10.09375,2.4375 9.421875,0 14.25,-5.828125 4.84375,-5.828125 4.84375,-17.15625 z"
       id="DejaVuSans-110" />
    <path
       d="m 45.40625,27.984375 q 0,9.765625 -4.03125,15.125 -4.015625,5.375 -11.296875,5.375 -7.21875,0 -11.25,-5.375 -4.03125,-5.359375 -4.03125,-15.125 0,-9.71875 4.03125,-15.09375 4.03125,-5.375 11.25,-5.375 7.28125,0 11.296875,5.375 4.03125,5.375 4.03125,15.09375 z M 54.390625,6.78125 q 0,-13.953125 -6.203125,-20.765625 -6.1875,-6.8125 -18.984375,-6.8125 -4.734375,0 -8.9375,0.703125 -4.203125,0.703125 -8.15625,2.171875 V -9.1875 q 3.953125,-2.140625 7.8125,-3.15625 3.859375,-1.03125 7.859375,-1.03125 8.84375,0 13.234375,4.609375 4.390625,4.609375 4.390625,13.9375 V 9.625 Q 42.625,4.78125 38.28125,2.390625 33.9375,0 27.875,0 17.828125,0 11.671875,7.65625 q -6.15625,7.671875 -6.15625,20.328125 0,12.6875 6.15625,20.34375 Q 17.828125,56 27.875,56 q 6.0625,0 10.40625,-2.390625 4.34375,-2.390625 7.125,-7.21875 V 54.6875 h 8.984375 z"
       id="DejaVuSans-103" />
    <path
       id="DejaVuSans-32"
       d="" />
    <path
       d="m 44.28125,53.078125 v -8.5 Q 40.484375,46.53125 36.375,47.5 q -4.09375,0.984375 -8.5,0.984375 -6.6875,0 -10.03125,-2.046875 Q 14.5,44.390625 14.5,40.28125 q 0,-3.125 2.390625,-4.90625 2.390625,-1.78125 9.625,-3.390625 l 3.078125,-0.6875 Q 39.15625,29.25 43.1875,25.515625 47.21875,21.78125 47.21875,15.09375 q 0,-7.625 -6.03125,-12.078125 -6.03125,-4.4375 -16.578125,-4.4375 -4.390625,0 -9.15625,0.859375 Q 10.6875,0.296875 5.421875,2 v 9.28125 q 4.984375,-2.59375 9.8125,-3.890625 4.828125,-1.28125 9.578125,-1.28125 6.34375,0 9.75,2.171875 3.421875,2.171875 3.421875,6.125 0,3.65625 -2.46875,5.609375 -2.453125,1.953125 -10.8125,3.765625 l -3.125,0.734375 q -8.34375,1.75 -12.0625,5.390625 -3.703125,3.640625 -3.703125,9.984375 0,7.71875 5.46875,11.90625 Q 16.75,56 26.8125,56 q 4.96875,0 9.359375,-0.734375 4.40625,-0.71875 8.109375,-2.1875 z"
       id="DejaVuSans-115" />
    <path
       d="M 18.3125,70.21875 V 54.6875 h 18.5 v -6.984375 h -18.5 v -29.6875 q 0,-6.6875 1.828125,-8.59375 1.828125,-1.90625 7.453125,-1.90625 H 36.8125 V 0 H 27.59375 Q 17.1875,0 13.234375,3.875 9.28125,7.765625 9.28125,18.015625 v 29.6875 H 2.6875 V 54.6875 h 6.59375 v 15.53125 z"
       id="DejaVuSans-116" />
    <path
       d="m 56.203125,29.59375 v -4.390625 h -41.3125 q 0.59375,-9.28125 5.59375,-14.140625 5,-4.859375 13.9375,-4.859375 5.171875,0 10.03125,1.265625 4.859375,1.265625 9.65625,3.8125 v -8.5 q -4.84375,-2.046875 -9.921875,-3.125 -5.078125,-1.078125 -10.296875,-1.078125 -13.09375,0 -20.734375,7.609375 -7.640625,7.625 -7.640625,20.625 0,13.421875 7.25,21.296875 Q 20.015625,56 32.328125,56 q 11.03125,0 17.453125,-7.109375 6.421875,-7.09375 6.421875,-19.296875 z m -8.984375,2.640625 q -0.09375,7.359375 -4.125,11.75 -4.03125,4.40625 -10.671875,4.40625 -7.515625,0 -12.03125,-4.25 -4.515625,-4.25 -5.203125,-11.96875 z"
       id="DejaVuSans-101" />
    <path
       d="m 18.109375,8.203125 v -29 H 9.078125 V 54.6875 h 9.03125 v -8.296875 q 2.84375,4.875 7.15625,7.234375 Q 29.59375,56 35.59375,56 q 9.96875,0 16.1875,-7.90625 6.234375,-7.90625 6.234375,-20.796875 0,-12.890625 -6.234375,-20.8125 -6.21875,-7.90625 -16.1875,-7.90625 -6,0 -10.328125,2.375 -4.3125,2.375 -7.15625,7.25 z M 48.6875,27.296875 q 0,9.90625 -4.078125,15.546875 -4.078125,5.640625 -11.203125,5.640625 -7.140625,0 -11.21875,-5.640625 -4.078125,-5.640625 -4.078125,-15.546875 0,-9.90625 4.078125,-15.546875 4.078125,-5.640625 11.21875,-5.640625 7.125,0 11.203125,5.640625 4.078125,5.640625 4.078125,15.546875 z"
       id="DejaVuSans-112" />
    <path
       d="M 0,0 H -3.5"
       id="mdde43a083d"
       style="stroke:#000000;stroke-width:0.8" />
    <path
       d="m 39.40625,66.21875 q -10.75,0 -17.078125,-8.015625 -6.3125,-8 -6.3125,-21.828125 0,-13.765625 6.3125,-21.78125 6.328125,-8 17.078125,-8 10.734375,0 17.015625,8 6.28125,8.015625 6.28125,21.78125 0,13.828125 -6.28125,21.828125 -6.28125,8.015625 -17.015625,8.015625 z m 13.8125,-64.90625 13,-14.203125 H 54.296875 L 43.5,-1.21875 q -1.609375,-0.09375 -2.46875,-0.140625 -0.84375,-0.0625 -1.625,-0.0625 -15.375,0 -24.59375,10.28125 -9.203125,10.28125 -9.203125,27.515625 0,17.28125 9.203125,27.5625 9.21875,10.28125 24.59375,10.28125 15.328125,0 24.5,-10.28125 9.1875,-10.28125 9.1875,-27.5625 0,-12.6875 -5.109375,-21.734375 Q 62.890625,5.609375 53.21875,1.3125 Z"
       id="DejaVuSans-81" />
    <path
       d="m 4.890625,31.390625 h 26.3125 v -8 h -26.3125 z"
       id="DejaVuSans-45" />
    <path
       d="M 2.984375,54.6875 H 12.5 L 29.59375,8.796875 46.6875,54.6875 h 9.515625 L 35.6875,0 H 23.484375 Z"
       id="DejaVuSans-118" />
    <path
       d="M 9.421875,75.984375 H 18.40625 V 0 H 9.421875 Z"
       id="DejaVuSans-108" />
    <path
       d="M 8.5,21.578125 V 54.6875 h 8.984375 V 21.921875 q 0,-7.765625 3.015625,-11.65625 3.03125,-3.875 9.09375,-3.875 7.265625,0 11.484375,4.640625 4.234375,4.640625 4.234375,12.65625 v 31 h 8.984375 V 0 H 45.3125 V 8.40625 Q 42.046875,3.421875 37.71875,1 33.40625,-1.421875 27.6875,-1.421875 18.265625,-1.421875 13.375,4.4375 8.5,10.296875 8.5,21.578125 Z M 31.109375,56 Z"
       id="DejaVuSans-117" />
    <path
       d="M 9.8125,72.90625 H 23.09375 L 55.421875,11.921875 V 72.90625 h 9.5625 V 0 h -13.28125 l -32.3125,60.984375 V 0 H 9.8125 Z"
       id="DejaVuSans-78" />
    <path
       d="m 30.609375,48.390625 q -7.21875,0 -11.421875,-5.640625 -4.203125,-5.640625 -4.203125,-15.453125 0,-9.8125 4.171875,-15.453125 4.1875,-5.640625 11.453125,-5.640625 7.1875,0 11.375,5.65625 4.203125,5.671875 4.203125,15.4375 0,9.71875 -4.203125,15.40625 -4.1875,5.6875 -11.375,5.6875 z m 0,7.609375 q 11.71875,0 18.40625,-7.625 6.703125,-7.609375 6.703125,-21.078125 0,-13.421875 -6.703125,-21.078125 -6.6875,-7.640625 -18.40625,-7.640625 -11.765625,0 -18.4375,7.640625 -6.65625,7.65625 -6.65625,21.078125 0,13.46875 6.65625,21.078125 Q 18.84375,56 30.609375,56 Z"
       id="DejaVuSans-111" />
    <path
       d="M 52,44.1875 Q 55.375,50.25 60.0625,53.125 64.75,56 71.09375,56 q 8.546875,0 13.1875,-5.984375 4.640625,-5.96875 4.640625,-17 V 0 h -9.03125 v 32.71875 q 0,7.859375 -2.796875,11.65625 -2.78125,3.8125 -8.484375,3.8125 -6.984375,0 -11.046875,-4.640625 -4.046875,-4.625 -4.046875,-12.640625 V 0 h -9.03125 v 32.71875 q 0,7.90625 -2.78125,11.6875 -2.78125,3.78125 -8.59375,3.78125 -6.890625,0 -10.953125,-4.65625 -4.046875,-4.65625 -4.046875,-12.625 V 0 h -9.03125 v 54.6875 h 9.03125 v -8.5 q 3.078125,5.03125 7.375,7.421875 Q 29.78125,56 35.6875,56 41.65625,56 45.828125,52.96875 50,49.953125 52,44.1875 Z"
       id="DejaVuSans-109" />
    <path
       d="M 5.515625,54.6875 H 48.1875 V 46.484375 L 14.40625,7.171875 H 48.1875 V 0 H 4.296875 v 8.203125 l 33.796875,39.3125 H 5.515625 Z"
       id="DejaVuSans-122" />
    <path
       d="m 3.328125,72.90625 h 9.953125 l 15.328125,-61.625 15.28125,61.625 h 11.09375 l 15.328125,-61.625 15.28125,61.625 H 95.609375 L 77.296875,0 H 64.890625 L 49.515625,63.28125 33.984375,0 h -12.40625 z"
       id="DejaVuSans-87" />
    <path
       d="M 54.890625,33.015625 V 0 H 45.90625 v 32.71875 q 0,7.765625 -3.03125,11.609375 -3.03125,3.859375 -9.078125,3.859375 -7.28125,0 -11.484375,-4.640625 -4.203125,-4.625 -4.203125,-12.640625 V 0 h -9.03125 v 75.984375 h 9.03125 V 46.1875 q 3.234375,4.9375 7.59375,7.375 4.375,2.4375 10.09375,2.4375 9.421875,0 14.25,-5.828125 4.84375,-5.828125 4.84375,-17.15625 z"
       id="DejaVuSans-104" />
    <path
       d="m 9.8125,72.90625 h 9.859375 V 8.296875 h 35.5 V 0 H 9.8125 Z"
       id="DejaVuSans-76" />
    <path
       d="M 32.171875,-5.078125 Q 28.375,-14.84375 24.75,-17.8125 q -3.609375,-2.984375 -9.65625,-2.984375 h -7.1875 v 7.515625 h 5.28125 q 3.703125,0 5.75,1.765625 2.0625,1.75 4.546875,8.296875 L 25.09375,0.875 2.984375,54.6875 H 12.5 L 29.59375,11.921875 46.6875,54.6875 h 9.515625 z"
       id="DejaVuSans-121" />
    <clipPath
       id="p861d25af30">
      <rect
         height="266.112"
         width="357.12"
         x="57.599998"
         y="41.472"
         id="rect2584" />
    </clipPath>
    <style
       type="text/css"
       id="style2920">*{stroke-linecap:butt;stroke-linejoin:round;}</style>
    <path
       d="M 0,0 V 3.5"
       id="m910e6098da"
       style="stroke:#000000;stroke-width:0.8" />
    <path
       d="m 31.78125,66.40625 q -7.609375,0 -11.453125,-7.5 Q 16.5,51.421875 16.5,36.375 q 0,-14.984375 3.828125,-22.484375 3.84375,-7.5 11.453125,-7.5 7.671875,0 11.5,7.5 3.84375,7.5 3.84375,22.484375 0,15.046875 -3.84375,22.53125 -3.828125,7.5 -11.5,7.5 z m 0,7.8125 q 12.265625,0 18.734375,-9.703125 6.46875,-9.6875 6.46875,-28.140625 0,-18.40625 -6.46875,-28.109375 -6.46875,-9.6875 -18.734375,-9.6875 -12.25,0 -18.71875,9.6875 Q 6.59375,17.96875 6.59375,36.375 q 0,18.453125 6.46875,28.140625 6.46875,9.703125 18.71875,9.703125 z"
       id="DejaVuSans-48-9" />
    <path
       d="M 10.6875,12.40625 H 21 V 0 H 10.6875 Z"
       id="DejaVuSans-46-1" />
    <path
       d="M 19.1875,8.296875 H 53.609375 V 0 H 7.328125 v 8.296875 q 5.609375,5.8125 15.296875,15.59375 9.703125,9.796875 12.1875,12.640625 4.734375,5.3125 6.609375,9 1.890625,3.6875 1.890625,7.25 0,5.8125 -4.078125,9.46875 -4.078125,3.671875 -10.625,3.671875 -4.640625,0 -9.796875,-1.609375 -5.140625,-1.609375 -11,-4.890625 v 9.96875 Q 13.765625,71.78125 18.9375,73 q 5.1875,1.21875 9.484375,1.21875 11.328125,0 18.0625,-5.671875 6.734375,-5.65625 6.734375,-15.125 0,-4.5 -1.6875,-8.53125 Q 49.859375,40.875 45.40625,35.40625 44.1875,33.984375 37.640625,27.21875 31.109375,20.453125 19.1875,8.296875 Z"
       id="DejaVuSans-50-9" />
    <path
       d="M 37.796875,64.3125 12.890625,25.390625 h 24.90625 z m -2.59375,8.59375 h 12.40625 V 25.390625 h 10.40625 V 17.1875 H 47.609375 V 0 h -9.8125 V 17.1875 H 4.890625 v 9.515625 z"
       id="DejaVuSans-52-6" />
    <path
       d="m 33.015625,40.375 q -6.640625,0 -10.53125,-4.546875 -3.875,-4.53125 -3.875,-12.4375 0,-7.859375 3.875,-12.4375 3.890625,-4.5625 10.53125,-4.5625 6.640625,0 10.515625,4.5625 3.875,4.578125 3.875,12.4375 0,7.90625 -3.875,12.4375 Q 39.65625,40.375 33.015625,40.375 Z M 52.59375,71.296875 V 62.3125 q -3.71875,1.75 -7.5,2.671875 -3.78125,0.9375 -7.5,0.9375 -9.765625,0 -14.921875,-6.59375 -5.140625,-6.59375 -5.875,-19.921875 2.875,4.25 7.21875,6.515625 4.359375,2.265625 9.578125,2.265625 10.984375,0 17.359375,-6.671875 6.375,-6.65625 6.375,-18.125 0,-11.234375 -6.640625,-18.03125 -6.640625,-6.78125 -17.671875,-6.78125 -12.65625,0 -19.34375,9.6875 -6.6875,9.703125 -6.6875,28.109375 0,17.28125 8.203125,27.5625 8.203125,10.28125 22.015625,10.28125 3.71875,0 7.5,-0.734375 3.78125,-0.734375 7.890625,-2.1875 z"
       id="DejaVuSans-54-8" />
    <path
       d="m 31.78125,34.625 q -7.03125,0 -11.0625,-3.765625 -4.015625,-3.765625 -4.015625,-10.34375 0,-6.59375 4.015625,-10.359375 4.03125,-3.765625 11.0625,-3.765625 7.03125,0 11.078125,3.78125 4.0625,3.796875 4.0625,10.34375 0,6.578125 -4.03125,10.34375 Q 38.875,34.625 31.78125,34.625 Z m -9.859375,4.1875 Q 15.578125,40.375 12.03125,44.71875 8.5,49.078125 8.5,55.328125 q 0,8.734375 6.21875,13.8125 6.234375,5.078125 17.0625,5.078125 10.890625,0 17.09375,-5.078125 6.203125,-5.078125 6.203125,-13.8125 0,-6.25 -3.546875,-10.609375 Q 48,40.375 41.703125,38.8125 q 7.125,-1.65625 11.09375,-6.5 3.984375,-4.828125 3.984375,-11.796875 0,-10.609375 -6.46875,-16.28125 -6.46875,-5.65625 -18.53125,-5.65625 -12.046875,0 -18.53125,5.65625 -6.46875,5.671875 -6.46875,16.28125 0,6.96875 4,11.796875 4.015625,4.84375 11.140625,6.5 z M 18.3125,54.390625 q 0,-5.65625 3.53125,-8.828125 3.546875,-3.171875 9.9375,-3.171875 6.359375,0 9.9375,3.171875 3.59375,3.171875 3.59375,8.828125 0,5.671875 -3.59375,8.84375 -3.578125,3.171875 -9.9375,3.171875 -6.390625,0 -9.9375,-3.171875 Q 18.3125,60.0625 18.3125,54.390625 Z"
       id="DejaVuSans-56-0" />
    <path
       d="m 12.40625,8.296875 h 16.109375 v 55.625 L 10.984375,60.40625 v 8.984375 l 17.4375,3.515625 H 38.28125 V 8.296875 H 54.390625 V 0 H 12.40625 Z"
       id="DejaVuSans-49-5" />
    <path
       d="M -0.296875,72.90625 H 61.375 v -8.3125 H 35.5 V 0 H 25.59375 V 64.59375 H -0.296875 Z"
       id="DejaVuSans-84-2" />
    <path
       d="m 41.109375,46.296875 q -1.515625,0.875 -3.296875,1.28125 Q 36.03125,48 33.890625,48 26.265625,48 22.1875,43.046875 18.109375,38.09375 18.109375,28.8125 V 0 h -9.03125 v 54.6875 h 9.03125 v -8.5 q 2.84375,4.984375 7.375,7.390625 Q 30.03125,56 36.53125,56 q 0.921875,0 2.046875,-0.125 1.125,-0.109375 2.484375,-0.359375 z"
       id="DejaVuSans-114-2" />
    <path
       d="m 34.28125,27.484375 q -10.890625,0 -15.09375,-2.484375 -4.203125,-2.484375 -4.203125,-8.5 0,-4.78125 3.15625,-7.59375 3.15625,-2.796875 8.5625,-2.796875 7.484375,0 12,5.296875 4.515625,5.296875 4.515625,14.078125 v 2 z m 17.921875,3.71875 V 0 H 43.21875 v 8.296875 q -3.078125,-4.96875 -7.671875,-7.34375 -4.59375,-2.375 -11.234375,-2.375 -8.390625,0 -13.359375,4.71875 Q 6,8.015625 6,15.921875 q 0,9.21875 6.171875,13.90625 6.1875,4.6875 18.4375,4.6875 H 43.21875 v 0.890625 q 0,6.203125 -4.078125,9.59375 -4.078125,3.390625 -11.453125,3.390625 -4.6875,0 -9.140625,-1.125 -4.4375,-1.125 -8.53125,-3.375 v 8.3125 q 4.921875,1.90625 9.5625,2.84375 Q 24.21875,56 28.609375,56 q 11.875,0 17.734375,-6.15625 5.859375,-6.140625 5.859375,-18.640625 z"
       id="DejaVuSans-97-8" />
    <path
       d="M 9.421875,54.6875 H 18.40625 V 0 H 9.421875 Z m 0,21.296875 H 18.40625 V 64.59375 H 9.421875 Z"
       id="DejaVuSans-105-9" />
    <path
       d="M 54.890625,33.015625 V 0 H 45.90625 v 32.71875 q 0,7.765625 -3.03125,11.609375 -3.03125,3.859375 -9.078125,3.859375 -7.28125,0 -11.484375,-4.640625 -4.203125,-4.625 -4.203125,-12.640625 V 0 h -9.03125 v 54.6875 h 9.03125 v -8.5 q 3.234375,4.9375 7.59375,7.375 4.375,2.4375 10.09375,2.4375 9.421875,0 14.25,-5.828125 4.84375,-5.828125 4.84375,-17.15625 z"
       id="DejaVuSans-110-7" />
    <path
       d="m 45.40625,27.984375 q 0,9.765625 -4.03125,15.125 -4.015625,5.375 -11.296875,5.375 -7.21875,0 -11.25,-5.375 -4.03125,-5.359375 -4.03125,-15.125 0,-9.71875 4.03125,-15.09375 4.03125,-5.375 11.25,-5.375 7.28125,0 11.296875,5.375 4.03125,5.375 4.03125,15.09375 z M 54.390625,6.78125 q 0,-13.953125 -6.203125,-20.765625 -6.1875,-6.8125 -18.984375,-6.8125 -4.734375,0 -8.9375,0.703125 -4.203125,0.703125 -8.15625,2.171875 V -9.1875 q 3.953125,-2.140625 7.8125,-3.15625 3.859375,-1.03125 7.859375,-1.03125 8.84375,0 13.234375,4.609375 4.390625,4.609375 4.390625,13.9375 V 9.625 Q 42.625,4.78125 38.28125,2.390625 33.9375,0 27.875,0 17.828125,0 11.671875,7.65625 q -6.15625,7.671875 -6.15625,20.328125 0,12.6875 6.15625,20.34375 Q 17.828125,56 27.875,56 q 6.0625,0 10.40625,-2.390625 4.34375,-2.390625 7.125,-7.21875 V 54.6875 h 8.984375 z"
       id="DejaVuSans-103-3" />
    <path
       id="DejaVuSans-32-6"
       d="" />
    <path
       d="m 44.28125,53.078125 v -8.5 Q 40.484375,46.53125 36.375,47.5 q -4.09375,0.984375 -8.5,0.984375 -6.6875,0 -10.03125,-2.046875 Q 14.5,44.390625 14.5,40.28125 q 0,-3.125 2.390625,-4.90625 2.390625,-1.78125 9.625,-3.390625 l 3.078125,-0.6875 Q 39.15625,29.25 43.1875,25.515625 47.21875,21.78125 47.21875,15.09375 q 0,-7.625 -6.03125,-12.078125 -6.03125,-4.4375 -16.578125,-4.4375 -4.390625,0 -9.15625,0.859375 Q 10.6875,0.296875 5.421875,2 v 9.28125 q 4.984375,-2.59375 9.8125,-3.890625 4.828125,-1.28125 9.578125,-1.28125 6.34375,0 9.75,2.171875 3.421875,2.171875 3.421875,6.125 0,3.65625 -2.46875,5.609375 -2.453125,1.953125 -10.8125,3.765625 l -3.125,0.734375 q -8.34375,1.75 -12.0625,5.390625 -3.703125,3.640625 -3.703125,9.984375 0,7.71875 5.46875,11.90625 Q 16.75,56 26.8125,56 q 4.96875,0 9.359375,-0.734375 4.40625,-0.71875 8.109375,-2.1875 z"
       id="DejaVuSans-115-1" />
    <path
       d="M 18.3125,70.21875 V 54.6875 h 18.5 v -6.984375 h -18.5 v -29.6875 q 0,-6.6875 1.828125,-8.59375 1.828125,-1.90625 7.453125,-1.90625 H 36.8125 V 0 H 27.59375 Q 17.1875,0 13.234375,3.875 9.28125,7.765625 9.28125,18.015625 v 29.6875 H 2.6875 V 54.6875 h 6.59375 v 15.53125 z"
       id="DejaVuSans-116-2" />
    <path
       d="m 56.203125,29.59375 v -4.390625 h -41.3125 q 0.59375,-9.28125 5.59375,-14.140625 5,-4.859375 13.9375,-4.859375 5.171875,0 10.03125,1.265625 4.859375,1.265625 9.65625,3.8125 v -8.5 q -4.84375,-2.046875 -9.921875,-3.125 -5.078125,-1.078125 -10.296875,-1.078125 -13.09375,0 -20.734375,7.609375 -7.640625,7.625 -7.640625,20.625 0,13.421875 7.25,21.296875 Q 20.015625,56 32.328125,56 q 11.03125,0 17.453125,-7.109375 6.421875,-7.09375 6.421875,-19.296875 z m -8.984375,2.640625 q -0.09375,7.359375 -4.125,11.75 -4.03125,4.40625 -10.671875,4.40625 -7.515625,0 -12.03125,-4.25 -4.515625,-4.25 -5.203125,-11.96875 z"
       id="DejaVuSans-101-9" />
    <path
       d="m 18.109375,8.203125 v -29 H 9.078125 V 54.6875 h 9.03125 v -8.296875 q 2.84375,4.875 7.15625,7.234375 Q 29.59375,56 35.59375,56 q 9.96875,0 16.1875,-7.90625 6.234375,-7.90625 6.234375,-20.796875 0,-12.890625 -6.234375,-20.8125 -6.21875,-7.90625 -16.1875,-7.90625 -6,0 -10.328125,2.375 -4.3125,2.375 -7.15625,7.25 z M 48.6875,27.296875 q 0,9.90625 -4.078125,15.546875 -4.078125,5.640625 -11.203125,5.640625 -7.140625,0 -11.21875,-5.640625 -4.078125,-5.640625 -4.078125,-15.546875 0,-9.90625 4.078125,-15.546875 4.078125,-5.640625 11.21875,-5.640625 7.125,0 11.203125,5.640625 4.078125,5.640625 4.078125,15.546875 z"
       id="DejaVuSans-112-3" />
    <path
       d="M 0,0 H -3.5"
       id="m8e4dd0477b"
       style="stroke:#000000;stroke-width:0.8" />
    <path
       d="M 10.59375,35.5 H 73.1875 V 27.203125 H 10.59375 Z"
       id="DejaVuSans-8722" />
    <path
       d="M 40.578125,39.3125 Q 47.65625,37.796875 51.625,33 q 3.984375,-4.78125 3.984375,-11.8125 0,-10.78125 -7.421875,-16.703125 -7.421875,-5.90625 -21.09375,-5.90625 -4.578125,0 -9.4375,0.90625 -4.859375,0.90625 -10.03125,2.71875 v 9.515625 q 4.09375,-2.390625 8.96875,-3.609375 4.890625,-1.21875 10.21875,-1.21875 9.265625,0 14.125,3.65625 4.859375,3.65625 4.859375,10.640625 0,6.453125 -4.515625,10.078125 -4.515625,3.640625 -12.5625,3.640625 h -8.5 v 8.109375 h 8.890625 q 7.265625,0 11.125,2.90625 3.859375,2.90625 3.859375,8.375 0,5.609375 -3.984375,8.609375 -3.96875,3.015625 -11.390625,3.015625 -4.0625,0 -8.703125,-0.890625 Q 15.375,64.15625 9.8125,62.3125 v 8.78125 q 5.625,1.5625 10.53125,2.34375 4.90625,0.78125 9.25,0.78125 11.234375,0 17.765625,-5.109375 6.546875,-5.09375 6.546875,-13.78125 0,-6.0625 -3.46875,-10.234375 -3.46875,-4.171875 -9.859375,-5.78125 z"
       id="DejaVuSans-51" />
    <path
       d="m 30.609375,48.390625 q -7.21875,0 -11.421875,-5.640625 -4.203125,-5.640625 -4.203125,-15.453125 0,-9.8125 4.171875,-15.453125 4.1875,-5.640625 11.453125,-5.640625 7.1875,0 11.375,5.65625 4.203125,5.671875 4.203125,15.4375 0,9.71875 -4.203125,15.40625 -4.1875,5.6875 -11.375,5.6875 z m 0,7.609375 q 11.71875,0 18.40625,-7.625 6.703125,-7.609375 6.703125,-21.078125 0,-13.421875 -6.703125,-21.078125 -6.6875,-7.640625 -18.40625,-7.640625 -11.765625,0 -18.4375,7.640625 -6.65625,7.65625 -6.65625,21.078125 0,13.46875 6.65625,21.078125 Q 18.84375,56 30.609375,56 Z"
       id="DejaVuSans-111-9" />
    <path
       d="M 9.421875,75.984375 H 18.40625 V 0 H 9.421875 Z"
       id="DejaVuSans-108-3" />
    <path
       d="M 8.5,21.578125 V 54.6875 h 8.984375 V 21.921875 q 0,-7.765625 3.015625,-11.65625 3.03125,-3.875 9.09375,-3.875 7.265625,0 11.484375,4.640625 4.234375,4.640625 4.234375,12.65625 v 31 h 8.984375 V 0 H 45.3125 V 8.40625 Q 42.046875,3.421875 37.71875,1 33.40625,-1.421875 27.6875,-1.421875 18.265625,-1.421875 13.375,4.4375 8.5,10.296875 8.5,21.578125 Z M 31.109375,56 Z"
       id="DejaVuSans-117-7" />
    <clipPath
       id="p1ca27fe8a1">
      <rect
         height="266.112"
         width="357.12"
         x="57.599998"
         y="41.472"
         id="rect3280" />
    </clipPath>
  </defs>
  <sodipodi:namedview
     id="base"
     pagecolor="#ffffff"
     bordercolor="#666666"
     borderopacity="1.0"
     inkscape:pageopacity="0.0"
     inkscape:pageshadow="2"
     inkscape:zoom="0.70710678"
     inkscape:cx="641.5"
     inkscape:cy="321.86292"
     inkscape:document-units="mm"
     inkscape:current-layer="layer1"
     inkscape:document-rotation="0"
     showgrid="false"
     inkscape:window-width="1853"
     inkscape:window-height="1025"
     inkscape:window-x="67"
     inkscape:window-y="27"
     inkscape:window-maximized="1" />
  <metadata
     id="metadata5">
    <rdf:RDF>
      <cc:Work
         rdf:about="">
        <dc:format>image/svg+xml</dc:format>
        <dc:type
           rdf:resource="http://purl.org/dc/dcmitype/StillImage" />
        <dc:title></dc:title>
      </cc:Work>
    </rdf:RDF>
  </metadata>
  <g
     inkscape:label="Layer 1"
     inkscape:groupmode="layer"
     id="layer1">
    <path
       d="m 167.48226,106.61778 h 125.984 V 12.739399 h -125.984 z"
       style="fill:#ffffff;stroke-width:0.352778"
       id="path2171" />
    <g
       id="xtick_1"
       transform="matrix(0.35277777,0,0,0.35277777,147.16226,-1.890999)">
      <g
         id="line2d_1">
        <defs
           id="defs2175" />
        <g
           id="g2179">
          <use
             style="stroke:#000000;stroke-width:0.8"
             x="57.599998"
             xlink:href="#m8c25438e73"
             y="307.58401"
             id="use2177"
             width="100%"
             height="100%" />
        </g>
      </g>
      <g
         id="text_1">
        <!-- 0.0 -->
        <g
           transform="matrix(0.1,0,0,-0.1,49.648438,322.18244)"
           id="g2192">
          <defs
             id="defs2184" />
          <use
             xlink:href="#DejaVuSans-48"
             id="use2186"
             x="0"
             y="0"
             width="100%"
             height="100%" />
          <use
             x="63.623047"
             xlink:href="#DejaVuSans-46"
             id="use2188"
             y="0"
             width="100%"
             height="100%" />
          <use
             x="95.410156"
             xlink:href="#DejaVuSans-48"
             id="use2190"
             y="0"
             width="100%"
             height="100%" />
        </g>
      </g>
    </g>
    <g
       id="xtick_2"
       transform="matrix(0.35277777,0,0,0.35277777,147.16226,-1.890999)">
      <g
         id="line2d_2">
        <g
           id="g2198">
          <use
             style="stroke:#000000;stroke-width:0.8"
             x="129.024"
             xlink:href="#m8c25438e73"
             y="307.58401"
             id="use2196"
             width="100%"
             height="100%" />
        </g>
      </g>
      <g
         id="text_2">
        <!-- 0.2 -->
        <g
           transform="matrix(0.1,0,0,-0.1,121.07244,322.18244)"
           id="g2210">
          <defs
             id="defs2202" />
          <use
             xlink:href="#DejaVuSans-48"
             id="use2204"
             x="0"
             y="0"
             width="100%"
             height="100%" />
          <use
             x="63.623047"
             xlink:href="#DejaVuSans-46"
             id="use2206"
             y="0"
             width="100%"
             height="100%" />
          <use
             x="95.410156"
             xlink:href="#DejaVuSans-50"
             id="use2208"
             y="0"
             width="100%"
             height="100%" />
        </g>
      </g>
    </g>
    <g
       id="xtick_3"
       transform="matrix(0.35277777,0,0,0.35277777,147.16226,-1.890999)">
      <g
         id="line2d_3">
        <g
           id="g2216">
          <use
             style="stroke:#000000;stroke-width:0.8"
             x="200.448"
             xlink:href="#m8c25438e73"
             y="307.58401"
             id="use2214"
             width="100%"
             height="100%" />
        </g>
      </g>
      <g
         id="text_3">
        <!-- 0.4 -->
        <g
           transform="matrix(0.1,0,0,-0.1,192.49644,322.18244)"
           id="g2228">
          <defs
             id="defs2220" />
          <use
             xlink:href="#DejaVuSans-48"
             id="use2222"
             x="0"
             y="0"
             width="100%"
             height="100%" />
          <use
             x="63.623047"
             xlink:href="#DejaVuSans-46"
             id="use2224"
             y="0"
             width="100%"
             height="100%" />
          <use
             x="95.410156"
             xlink:href="#DejaVuSans-52"
             id="use2226"
             y="0"
             width="100%"
             height="100%" />
        </g>
      </g>
    </g>
    <g
       id="xtick_4"
       transform="matrix(0.35277777,0,0,0.35277777,147.16226,-1.890999)">
      <g
         id="line2d_4">
        <g
           id="g2234">
          <use
             style="stroke:#000000;stroke-width:0.8"
             x="271.87201"
             xlink:href="#m8c25438e73"
             y="307.58401"
             id="use2232"
             width="100%"
             height="100%" />
        </g>
      </g>
      <g
         id="text_4">
        <!-- 0.6 -->
        <g
           transform="matrix(0.1,0,0,-0.1,263.92044,322.18244)"
           id="g2246">
          <defs
             id="defs2238" />
          <use
             xlink:href="#DejaVuSans-48"
             id="use2240"
             x="0"
             y="0"
             width="100%"
             height="100%" />
          <use
             x="63.623047"
             xlink:href="#DejaVuSans-46"
             id="use2242"
             y="0"
             width="100%"
             height="100%" />
          <use
             x="95.410156"
             xlink:href="#DejaVuSans-54"
             id="use2244"
             y="0"
             width="100%"
             height="100%" />
        </g>
      </g>
    </g>
    <g
       id="xtick_5"
       transform="matrix(0.35277777,0,0,0.35277777,147.16226,-1.890999)">
      <g
         id="line2d_5">
        <g
           id="g2252">
          <use
             style="stroke:#000000;stroke-width:0.8"
             x="343.29599"
             xlink:href="#m8c25438e73"
             y="307.58401"
             id="use2250"
             width="100%"
             height="100%" />
        </g>
      </g>
      <g
         id="text_5">
        <!-- 0.8 -->
        <g
           transform="matrix(0.1,0,0,-0.1,335.34444,322.18244)"
           id="g2264">
          <defs
             id="defs2256" />
          <use
             xlink:href="#DejaVuSans-48"
             id="use2258"
             x="0"
             y="0"
             width="100%"
             height="100%" />
          <use
             x="63.623047"
             xlink:href="#DejaVuSans-46"
             id="use2260"
             y="0"
             width="100%"
             height="100%" />
          <use
             x="95.410156"
             xlink:href="#DejaVuSans-56"
             id="use2262"
             y="0"
             width="100%"
             height="100%" />
        </g>
      </g>
    </g>
    <g
       id="xtick_6"
       transform="matrix(0.35277777,0,0,0.35277777,147.16226,-1.890999)">
      <g
         id="line2d_6">
        <g
           id="g2270">
          <use
             style="stroke:#000000;stroke-width:0.8"
             x="414.72"
             xlink:href="#m8c25438e73"
             y="307.58401"
             id="use2268"
             width="100%"
             height="100%" />
        </g>
      </g>
      <g
         id="text_6">
        <!-- 1.0 -->
        <g
           transform="matrix(0.1,0,0,-0.1,406.76844,322.18244)"
           id="g2282">
          <defs
             id="defs2274" />
          <use
             xlink:href="#DejaVuSans-49"
             id="use2276"
             x="0"
             y="0"
             width="100%"
             height="100%" />
          <use
             x="63.623047"
             xlink:href="#DejaVuSans-46"
             id="use2278"
             y="0"
             width="100%"
             height="100%" />
          <use
             x="95.410156"
             xlink:href="#DejaVuSans-48"
             id="use2280"
             y="0"
             width="100%"
             height="100%" />
        </g>
      </g>
    </g>
    <g
       id="text_7"
       transform="matrix(0.35277777,0,0,0.35277777,147.16226,-1.890999)">
      <!-- Training step -->
      <g
         transform="matrix(0.1,0,0,-0.1,204.02953,335.86056)"
         id="g2325">
        <defs
           id="defs2297" />
        <use
           xlink:href="#DejaVuSans-84"
           id="use2299"
           x="0"
           y="0"
           width="100%"
           height="100%" />
        <use
           x="46.333984"
           xlink:href="#DejaVuSans-114"
           id="use2301"
           y="0"
           width="100%"
           height="100%" />
        <use
           x="87.447266"
           xlink:href="#DejaVuSans-97"
           id="use2303"
           y="0"
           width="100%"
           height="100%" />
        <use
           x="148.72656"
           xlink:href="#DejaVuSans-105"
           id="use2305"
           y="0"
           width="100%"
           height="100%" />
        <use
           x="176.50977"
           xlink:href="#DejaVuSans-110"
           id="use2307"
           y="0"
           width="100%"
           height="100%" />
        <use
           x="239.88867"
           xlink:href="#DejaVuSans-105"
           id="use2309"
           y="0"
           width="100%"
           height="100%" />
        <use
           x="267.67188"
           xlink:href="#DejaVuSans-110"
           id="use2311"
           y="0"
           width="100%"
           height="100%" />
        <use
           x="331.05078"
           xlink:href="#DejaVuSans-103"
           id="use2313"
           y="0"
           width="100%"
           height="100%" />
        <use
           x="394.52734"
           xlink:href="#DejaVuSans-32"
           id="use2315"
           y="0"
           width="100%"
           height="100%" />
        <use
           x="426.31445"
           xlink:href="#DejaVuSans-115"
           id="use2317"
           y="0"
           width="100%"
           height="100%" />
        <use
           x="478.41406"
           xlink:href="#DejaVuSans-116"
           id="use2319"
           y="0"
           width="100%"
           height="100%" />
        <use
           x="517.62305"
           xlink:href="#DejaVuSans-101"
           id="use2321"
           y="0"
           width="100%"
           height="100%" />
        <use
           x="579.14648"
           xlink:href="#DejaVuSans-112"
           id="use2323"
           y="0"
           width="100%"
           height="100%" />
      </g>
    </g>
    <g
       id="text_8"
       transform="matrix(0.35277777,0,0,0.35277777,147.16226,-1.890999)">
      <!-- 1e6 -->
      <g
         transform="matrix(0.1,0,0,-0.1,395.84188,334.86056)"
         id="g2334">
        <use
           xlink:href="#DejaVuSans-49"
           id="use2328"
           x="0"
           y="0"
           width="100%"
           height="100%" />
        <use
           x="63.623047"
           xlink:href="#DejaVuSans-101"
           id="use2330"
           y="0"
           width="100%"
           height="100%" />
        <use
           x="125.14648"
           xlink:href="#DejaVuSans-54"
           id="use2332"
           y="0"
           width="100%"
           height="100%" />
      </g>
    </g>
    <g
       id="ytick_1"
       transform="matrix(0.35277777,0,0,0.35277777,147.16226,-1.890999)">
      <g
         id="line2d_7">
        <defs
           id="defs2339" />
        <g
           id="g2343">
          <use
             style="stroke:#000000;stroke-width:0.8"
             x="57.599998"
             xlink:href="#mdde43a083d"
             y="274.50848"
             id="use2341"
             width="100%"
             height="100%" />
        </g>
      </g>
      <g
         id="text_9">
        <!-- 0 -->
        <g
           transform="matrix(0.1,0,0,-0.1,44.2375,278.30771)"
           id="g2348">
          <use
             xlink:href="#DejaVuSans-48"
             id="use2346"
             x="0"
             y="0"
             width="100%"
             height="100%" />
        </g>
      </g>
    </g>
    <g
       id="ytick_2"
       transform="matrix(0.35277777,0,0,0.35277777,147.16226,-1.890999)">
      <g
         id="line2d_8">
        <g
           id="g2354">
          <use
             style="stroke:#000000;stroke-width:0.8"
             x="57.599998"
             xlink:href="#mdde43a083d"
             y="230.80118"
             id="use2352"
             width="100%"
             height="100%" />
        </g>
      </g>
      <g
         id="text_10">
        <!-- 200 -->
        <g
           transform="matrix(0.1,0,0,-0.1,31.5125,234.60039)"
           id="g2363">
          <use
             xlink:href="#DejaVuSans-50"
             id="use2357"
             x="0"
             y="0"
             width="100%"
             height="100%" />
          <use
             x="63.623047"
             xlink:href="#DejaVuSans-48"
             id="use2359"
             y="0"
             width="100%"
             height="100%" />
          <use
             x="127.24609"
             xlink:href="#DejaVuSans-48"
             id="use2361"
             y="0"
             width="100%"
             height="100%" />
        </g>
      </g>
    </g>
    <g
       id="ytick_3"
       transform="matrix(0.35277777,0,0,0.35277777,147.16226,-1.890999)">
      <g
         id="line2d_9">
        <g
           id="g2369">
          <use
             style="stroke:#000000;stroke-width:0.8"
             x="57.599998"
             xlink:href="#mdde43a083d"
             y="187.09386"
             id="use2367"
             width="100%"
             height="100%" />
        </g>
      </g>
      <g
         id="text_11">
        <!-- 400 -->
        <g
           transform="matrix(0.1,0,0,-0.1,31.5125,190.89307)"
           id="g2378">
          <use
             xlink:href="#DejaVuSans-52"
             id="use2372"
             x="0"
             y="0"
             width="100%"
             height="100%" />
          <use
             x="63.623047"
             xlink:href="#DejaVuSans-48"
             id="use2374"
             y="0"
             width="100%"
             height="100%" />
          <use
             x="127.24609"
             xlink:href="#DejaVuSans-48"
             id="use2376"
             y="0"
             width="100%"
             height="100%" />
        </g>
      </g>
    </g>
    <g
       id="ytick_4"
       transform="matrix(0.35277777,0,0,0.35277777,147.16226,-1.890999)">
      <g
         id="line2d_10">
        <g
           id="g2384">
          <use
             style="stroke:#000000;stroke-width:0.8"
             x="57.599998"
             xlink:href="#mdde43a083d"
             y="143.38654"
             id="use2382"
             width="100%"
             height="100%" />
        </g>
      </g>
      <g
         id="text_12">
        <!-- 600 -->
        <g
           transform="matrix(0.1,0,0,-0.1,31.5125,147.18575)"
           id="g2393">
          <use
             xlink:href="#DejaVuSans-54"
             id="use2387"
             x="0"
             y="0"
             width="100%"
             height="100%" />
          <use
             x="63.623047"
             xlink:href="#DejaVuSans-48"
             id="use2389"
             y="0"
             width="100%"
             height="100%" />
          <use
             x="127.24609"
             xlink:href="#DejaVuSans-48"
             id="use2391"
             y="0"
             width="100%"
             height="100%" />
        </g>
      </g>
    </g>
    <g
       id="ytick_5"
       transform="matrix(0.35277777,0,0,0.35277777,147.16226,-1.890999)">
      <g
         id="line2d_11">
        <g
           id="g2399">
          <use
             style="stroke:#000000;stroke-width:0.8"
             x="57.599998"
             xlink:href="#mdde43a083d"
             y="99.679222"
             id="use2397"
             width="100%"
             height="100%" />
        </g>
      </g>
      <g
         id="text_13">
        <!-- 800 -->
        <g
           transform="matrix(0.1,0,0,-0.1,31.5125,103.47844)"
           id="g2408">
          <use
             xlink:href="#DejaVuSans-56"
             id="use2402"
             x="0"
             y="0"
             width="100%"
             height="100%" />
          <use
             x="63.623047"
             xlink:href="#DejaVuSans-48"
             id="use2404"
             y="0"
             width="100%"
             height="100%" />
          <use
             x="127.24609"
             xlink:href="#DejaVuSans-48"
             id="use2406"
             y="0"
             width="100%"
             height="100%" />
        </g>
      </g>
    </g>
    <g
       id="ytick_6"
       transform="matrix(0.35277777,0,0,0.35277777,147.16226,-1.890999)">
      <g
         id="line2d_12">
        <g
           id="g2414">
          <use
             style="stroke:#000000;stroke-width:0.8"
             x="57.599998"
             xlink:href="#mdde43a083d"
             y="55.971901"
             id="use2412"
             width="100%"
             height="100%" />
        </g>
      </g>
      <g
         id="text_14">
        <!-- 1000 -->
        <g
           transform="matrix(0.1,0,0,-0.1,25.15,59.771121)"
           id="g2425">
          <use
             xlink:href="#DejaVuSans-49"
             id="use2417"
             x="0"
             y="0"
             width="100%"
             height="100%" />
          <use
             x="63.623047"
             xlink:href="#DejaVuSans-48"
             id="use2419"
             y="0"
             width="100%"
             height="100%" />
          <use
             x="127.24609"
             xlink:href="#DejaVuSans-48"
             id="use2421"
             y="0"
             width="100%"
             height="100%" />
          <use
             x="190.86914"
             xlink:href="#DejaVuSans-48"
             id="use2423"
             y="0"
             width="100%"
             height="100%" />
        </g>
      </g>
    </g>
    <g
       id="text_15"
       transform="matrix(0.35277777,0,0,0.35277777,147.16226,-1.890999)">
      <!-- Q-value -->
      <g
         transform="matrix(0,-0.1,-0.1,0,19.070312,193.93191)"
         id="g2450">
        <defs
           id="defs2434" />
        <use
           xlink:href="#DejaVuSans-81"
           id="use2436"
           x="0"
           y="0"
           width="100%"
           height="100%" />
        <use
           x="81.460938"
           xlink:href="#DejaVuSans-45"
           id="use2438"
           y="0"
           width="100%"
           height="100%" />
        <use
           x="114.91992"
           xlink:href="#DejaVuSans-118"
           id="use2440"
           y="0"
           width="100%"
           height="100%" />
        <use
           x="174.09961"
           xlink:href="#DejaVuSans-97"
           id="use2442"
           y="0"
           width="100%"
           height="100%" />
        <use
           x="235.37891"
           xlink:href="#DejaVuSans-108"
           id="use2444"
           y="0"
           width="100%"
           height="100%" />
        <use
           x="263.16211"
           xlink:href="#DejaVuSans-117"
           id="use2446"
           y="0"
           width="100%"
           height="100%" />
        <use
           x="326.54102"
           xlink:href="#DejaVuSans-101"
           id="use2448"
           y="0"
           width="100%"
           height="100%" />
      </g>
    </g>
    <path
       clip-path="url(#p861d25af30)"
       d="m 64.200649,275.81971 32.240436,3.93366 7.178115,7.43024 7.17811,7.21171 7.17811,1.09268 4.71184,-23.82049 2.98767,-50.26341 6.97205,-32.34342 7.14776,-1.52975 6.62243,12.67512 6.82099,18.57561 4.6922,14.20488 4.37258,6.55609 4.00796,4.58927 3.29336,2.84098 4.04331,1.09268 3.82011,-5.02634 5.69178,-11.58244 6.29889,-5.02634 6.16746,4.37073 5.07646,6.33756 3.41799,4.80781 3.04695,3.49658 3.11766,2.18537 3.25693,-1.52976 2.14344,-2.62244 1.89131,-1.96683 1.4999,-1.09268 1.66204,-0.65561 2.08201,-0.43707 h 1.96773 l 1.81524,-0.43708 1.7756,0.21854 1.65311,-0.21854 1.89452,0.43708 h 1.79167 l 1.53454,-1.09269 1.50491,-1.09268 2.07987,-0.21854 1.73274,0.65561 2.06987,1.7483 h 3.08909 l 3.67655,-1.96683 h 3.91618 l 2.65768,1.74829 2.44913,0.65561 2.50591,0.87415 2.19593,1.74829 2.26307,0.65561 2.02202,0.21854 h 1.95451 l 1.78703,-0.43708 2.14701,-0.43707 1.45383,0.21854 1.68775,-0.21854 3.25979,1.31122 2.2595,-0.21854 1.73346,-8.30439 1.80203,-33.87317 5.49608,-51.3561 7.17097,-12.67512 7.17097,28.62829 6.63993,29.72098 4.61899,15.5161 3.11051,12.01951 2.44342,11.14537 2.31806,7.43024 2.10951,3.71512 2.19879,0.87415 2.40877,-3.49659 2.46556,-4.37073 2.54912,-1.52976 2.4902,0.87415 2.37164,0.43707 2.31128,0.21854 2.74661,1.52976 h 2.01737 l 2.05165,-1.52976 1.75239,-10.05268 1.84131,-47.64098 4.95968,-81.514144 7.17811,-45.674146 7.14705,12.893659 7.05205,46.111221 6.58315,51.57463 6.18853,35.84 3.58477,19.23122 3.7719,10.70829 5.06932,-0.43707 4.01831,-8.08585 4.31116,-2.84098"
       style="fill:none;stroke:#1f77b4;stroke-width:1.5;stroke-linecap:square"
       id="path2454"
       transform="matrix(0.35277777,0,0,0.35277777,147.16226,-1.890999)" />
    <path
       clip-path="url(#p861d25af30)"
       d="m 64.187078,273.19727 30.444123,-5.24488 3.054805,-14.42341 4.844694,-19.88683 5.35572,-12.23805 5.82713,-0.43708 9.84187,12.01952 4.83326,4.15219 4.10831,6.77464 8.32625,5.24487 5.37466,-0.21853 4.56114,-1.96683 3.86332,-0.43708 2.93196,2.18537 2.6259,0.87415 2.34342,-1.7483 1.88774,-1.09268 1.58382,-0.21854 3.4205,-0.87414 1.70739,-0.87415 h 1.66882 l 2.76054,1.96683 3.31622,1.74829 3.19158,-0.65561 2.81946,-3.27804 2.18736,-3.05952 2.28093,0.21854 1.8938,1.74829 1.76703,0.87415 1.69061,0.43707 1.85738,-0.21853 1.89595,-1.52976 1.69239,-2.4039 1.75846,-1.96683 1.74239,-0.87415 1.99559,0.43707 1.72274,0.87415 1.54383,1.31122 1.60847,0.65561 1.81667,-0.21854 3.17908,-0.87414 1.5274,0.43707 1.43956,0.21854 3.19729,-1.7483 3.18158,1.7483 1.51991,0.21853 1.64168,-0.43707 h 1.46812 l 1.52883,0.21854 2.96052,-0.43708 h 1.4417 l 1.40098,0.21854 1.43741,-0.21854 1.51347,0.21854 2.7084,0.87415 2.88838,0.21853 1.50134,0.43708 1.50919,0.21853 1.54204,-0.21853 1.39598,-0.65561 1.50562,-0.21854 h 3.16658 l 2.98981,-0.43707 1.60704,0.87414 1.51276,0.65561 1.49741,-0.65561 1.50026,-0.43707 1.62239,0.21854 1.47669,-0.21854 h 1.44813 l 1.61739,0.21854 3.04124,0.87414 1.85024,0.21854 1.66703,-0.43707 3.03052,-1.31122 2.86768,-0.43708 2.94445,-0.87414 h 1.64275 l 1.6249,0.21853 1.61311,-0.43707 1.49669,-0.21854 1.55633,0.21854 1.85202,-0.21854 2.58341,0.43708 2.7234,1.52975 1.9338,1.52976 1.79596,0.65561 1.57883,-0.43707 1.5249,-1.09269 2.97873,-1.31122 1.45884,-0.43707 1.54276,0.43707 1.44241,0.87415 1.9388,-0.65561 1.74596,-0.87415 1.66489,0.21854 1.93452,0.87415 2.23772,0.21853 1.72667,-0.87414 1.60776,-1.52976 1.32634,-0.65561 2.86053,0.87415 h 1.68561 l 1.61347,-0.21854 1.36098,-1.52976 1.55561,-4.8078 2.10201,-4.1522 5.77178,5.02635 4.98575,6.11902 3.79726,-0.43707 2.67625,-1.7483 h 2.25022 l 1.85273,0.43708 1.48848,-0.21854 1.38277,-0.43707 1.43812,0.21853 2.93517,0.87415 1.42634,0.87415 2.85839,-0.43708 h 1.29099 l 1.34098,0.43708 2.72018,1.74829 1.32742,0.87415 1.42955,0.21853 1.35991,-0.43707 1.31956,-0.87415 1.32349,-0.65561 h 1.43348 l 1.5324,0.65561 1.48026,0.43708 h 2.80768 l 1.43741,-0.21854 1.38419,-0.43707 2.65019,-1.7483 1.41027,-0.43707 h 2.71376 l 1.36384,0.21854 1.39276,0.43707 h 1.36063 l 1.39705,-0.43707 h 1.30921 l 1.49954,0.21853 h 1.39527 l 1.44884,-0.21853 h 2.74732 l 1.3542,-0.21854 2.72304,0.21854 4.14402,1.31122 1.36527,0.21853 1.39277,-0.21853 1.38491,-0.65561 1.38063,0.21853 1.37134,1.09269 1.39169,0.87414 1.3867,-0.65561 1.3717,-1.31122 1.33777,-0.87414 h 2.77482 l 1.37456,0.21853 1.38027,-0.43707 h 1.37991 l 1.35812,0.21854 1.35099,-0.43708 1.38134,-0.21853 2.79125,1.31122 1.40562,0.43707 1.39956,-0.21854 1.38812,0.43708 1.39134,0.87414 1.47026,0.21854 3.23924,-0.34849 v 0"
       style="fill:none;stroke:#ff7f0e;stroke-width:1.5;stroke-linecap:square"
       id="path2457"
       transform="matrix(0.35277777,0,0,0.35277777,147.16226,-1.890999)" />
    <g
       id="patch_7"
       transform="matrix(0.35277777,0,0,0.35277777,63.549735,73.217812)">
      <path
         d="m 64.6,78.82825 h 158.42969 q 2,0 2,-2 V 48.472 q 0,-2 -2,-2 H 64.6 q -2,0 -2,2 v 28.35625 q 0,2 2,2 z"
         style="opacity:0.8;fill:#ffffff;stroke:#cccccc;stroke-linejoin:miter"
         id="path2472" />
    </g>
    <g
       id="line2d_15"
       transform="matrix(0.35277777,0,0,0.35277777,63.549735,73.217812)">
      <path
         d="m 66.6,54.570437 h 20"
         style="fill:none;stroke:#1f77b4;stroke-width:1.5;stroke-linecap:square"
         id="path2475" />
    </g>
    <g
       id="line2d_16"
       transform="matrix(0.35277777,0,0,0.35277777,170.97491,0.75483437)" />
    <g
       id="text_16"
       transform="matrix(0.35277777,0,0,0.35277777,63.549735,73.217812)">
      <!-- No Normalization -->
      <g
         transform="matrix(0.1,0,0,-0.1,94.6,58.070437)"
         id="g2517">
        <defs
           id="defs2483" />
        <use
           xlink:href="#DejaVuSans-78"
           id="use2485"
           x="0"
           y="0"
           width="100%"
           height="100%" />
        <use
           x="74.804688"
           xlink:href="#DejaVuSans-111"
           id="use2487"
           y="0"
           width="100%"
           height="100%" />
        <use
           x="135.98633"
           xlink:href="#DejaVuSans-32"
           id="use2489"
           y="0"
           width="100%"
           height="100%" />
        <use
           x="167.77344"
           xlink:href="#DejaVuSans-78"
           id="use2491"
           y="0"
           width="100%"
           height="100%" />
        <use
           x="242.57812"
           xlink:href="#DejaVuSans-111"
           id="use2493"
           y="0"
           width="100%"
           height="100%" />
        <use
           x="303.75977"
           xlink:href="#DejaVuSans-114"
           id="use2495"
           y="0"
           width="100%"
           height="100%" />
        <use
           x="343.12305"
           xlink:href="#DejaVuSans-109"
           id="use2497"
           y="0"
           width="100%"
           height="100%" />
        <use
           x="440.53516"
           xlink:href="#DejaVuSans-97"
           id="use2499"
           y="0"
           width="100%"
           height="100%" />
        <use
           x="501.81445"
           xlink:href="#DejaVuSans-108"
           id="use2501"
           y="0"
           width="100%"
           height="100%" />
        <use
           x="529.59766"
           xlink:href="#DejaVuSans-105"
           id="use2503"
           y="0"
           width="100%"
           height="100%" />
        <use
           x="557.38086"
           xlink:href="#DejaVuSans-122"
           id="use2505"
           y="0"
           width="100%"
           height="100%" />
        <use
           x="609.87109"
           xlink:href="#DejaVuSans-97"
           id="use2507"
           y="0"
           width="100%"
           height="100%" />
        <use
           x="671.15039"
           xlink:href="#DejaVuSans-116"
           id="use2509"
           y="0"
           width="100%"
           height="100%" />
        <use
           x="710.35938"
           xlink:href="#DejaVuSans-105"
           id="use2511"
           y="0"
           width="100%"
           height="100%" />
        <use
           x="738.14258"
           xlink:href="#DejaVuSans-111"
           id="use2513"
           y="0"
           width="100%"
           height="100%" />
        <use
           x="799.32422"
           xlink:href="#DejaVuSans-110"
           id="use2515"
           y="0"
           width="100%"
           height="100%" />
      </g>
    </g>
    <g
       id="line2d_17"
       transform="matrix(0.35277777,0,0,0.35277777,63.549735,73.217812)">
      <path
         d="m 66.6,69.248562 h 20"
         style="fill:none;stroke:#ff7f0e;stroke-width:1.5;stroke-linecap:square"
         id="path2520" />
    </g>
    <g
       id="line2d_18"
       transform="matrix(0.35277777,0,0,0.35277777,170.97491,0.75483437)" />
    <g
       id="text_17"
       transform="matrix(0.35277777,0,0,0.35277777,63.549735,73.217812)">
      <!-- With Layer Normalization -->
      <g
         transform="matrix(0.1,0,0,-0.1,94.6,72.748562)"
         id="g2578">
        <defs
           id="defs2528" />
        <use
           xlink:href="#DejaVuSans-87"
           id="use2530"
           x="0"
           y="0"
           width="100%"
           height="100%" />
        <use
           x="96.626953"
           xlink:href="#DejaVuSans-105"
           id="use2532"
           y="0"
           width="100%"
           height="100%" />
        <use
           x="124.41016"
           xlink:href="#DejaVuSans-116"
           id="use2534"
           y="0"
           width="100%"
           height="100%" />
        <use
           x="163.61914"
           xlink:href="#DejaVuSans-104"
           id="use2536"
           y="0"
           width="100%"
           height="100%" />
        <use
           x="226.99805"
           xlink:href="#DejaVuSans-32"
           id="use2538"
           y="0"
           width="100%"
           height="100%" />
        <use
           x="258.78516"
           xlink:href="#DejaVuSans-76"
           id="use2540"
           y="0"
           width="100%"
           height="100%" />
        <use
           x="314.49805"
           xlink:href="#DejaVuSans-97"
           id="use2542"
           y="0"
           width="100%"
           height="100%" />
        <use
           x="375.77734"
           xlink:href="#DejaVuSans-121"
           id="use2544"
           y="0"
           width="100%"
           height="100%" />
        <use
           x="434.95703"
           xlink:href="#DejaVuSans-101"
           id="use2546"
           y="0"
           width="100%"
           height="100%" />
        <use
           x="496.48047"
           xlink:href="#DejaVuSans-114"
           id="use2548"
           y="0"
           width="100%"
           height="100%" />
        <use
           x="537.59375"
           xlink:href="#DejaVuSans-32"
           id="use2550"
           y="0"
           width="100%"
           height="100%" />
        <use
           x="569.38086"
           xlink:href="#DejaVuSans-78"
           id="use2552"
           y="0"
           width="100%"
           height="100%" />
        <use
           x="644.18555"
           xlink:href="#DejaVuSans-111"
           id="use2554"
           y="0"
           width="100%"
           height="100%" />
        <use
           x="705.36719"
           xlink:href="#DejaVuSans-114"
           id="use2556"
           y="0"
           width="100%"
           height="100%" />
        <use
           x="744.73047"
           xlink:href="#DejaVuSans-109"
           id="use2558"
           y="0"
           width="100%"
           height="100%" />
        <use
           x="842.14258"
           xlink:href="#DejaVuSans-97"
           id="use2560"
           y="0"
           width="100%"
           height="100%" />
        <use
           x="903.42188"
           xlink:href="#DejaVuSans-108"
           id="use2562"
           y="0"
           width="100%"
           height="100%" />
        <use
           x="931.20508"
           xlink:href="#DejaVuSans-105"
           id="use2564"
           y="0"
           width="100%"
           height="100%" />
        <use
           x="958.98828"
           xlink:href="#DejaVuSans-122"
           id="use2566"
           y="0"
           width="100%"
           height="100%" />
        <use
           x="1011.4785"
           xlink:href="#DejaVuSans-97"
           id="use2568"
           y="0"
           width="100%"
           height="100%" />
        <use
           x="1072.7578"
           xlink:href="#DejaVuSans-116"
           id="use2570"
           y="0"
           width="100%"
           height="100%" />
        <use
           x="1111.9668"
           xlink:href="#DejaVuSans-105"
           id="use2572"
           y="0"
           width="100%"
           height="100%" />
        <use
           x="1139.75"
           xlink:href="#DejaVuSans-111"
           id="use2574"
           y="0"
           width="100%"
           height="100%" />
        <use
           x="1200.9316"
           xlink:href="#DejaVuSans-110"
           id="use2576"
           y="0"
           width="100%"
           height="100%" />
      </g>
    </g>
    <g
       id="xtick_1-5"
       transform="matrix(0.35277777,0,0,0.35277777,-2.346505,-1.5411328)">
      <g
         id="line2d_1-6">
        <defs
           id="defs2931" />
        <g
           id="g2935">
          <use
             style="stroke:#000000;stroke-width:0.8"
             x="57.599998"
             xlink:href="#m910e6098da"
             y="307.58401"
             id="use2933"
             width="100%"
             height="100%" />
        </g>
      </g>
      <g
         id="text_1-2">
        <!-- 0.0 -->
        <g
           transform="matrix(0.1,0,0,-0.1,49.648438,322.18244)"
           id="g2948">
          <defs
             id="defs2940" />
          <use
             xlink:href="#DejaVuSans-48-9"
             id="use2942"
             x="0"
             y="0"
             width="100%"
             height="100%" />
          <use
             x="63.623047"
             xlink:href="#DejaVuSans-46-1"
             id="use2944"
             y="0"
             width="100%"
             height="100%" />
          <use
             x="95.410156"
             xlink:href="#DejaVuSans-48-9"
             id="use2946"
             y="0"
             width="100%"
             height="100%" />
        </g>
      </g>
    </g>
    <g
       id="xtick_2-2"
       transform="matrix(0.35277777,0,0,0.35277777,-2.346505,-1.5411328)">
      <g
         id="line2d_2-7">
        <g
           id="g2954">
          <use
             style="stroke:#000000;stroke-width:0.8"
             x="129.024"
             xlink:href="#m910e6098da"
             y="307.58401"
             id="use2952"
             width="100%"
             height="100%" />
        </g>
      </g>
      <g
         id="text_2-0">
        <!-- 0.2 -->
        <g
           transform="matrix(0.1,0,0,-0.1,121.07244,322.18244)"
           id="g2966">
          <defs
             id="defs2958" />
          <use
             xlink:href="#DejaVuSans-48-9"
             id="use2960"
             x="0"
             y="0"
             width="100%"
             height="100%" />
          <use
             x="63.623047"
             xlink:href="#DejaVuSans-46-1"
             id="use2962"
             y="0"
             width="100%"
             height="100%" />
          <use
             x="95.410156"
             xlink:href="#DejaVuSans-50-9"
             id="use2964"
             y="0"
             width="100%"
             height="100%" />
        </g>
      </g>
    </g>
    <g
       id="xtick_3-3"
       transform="matrix(0.35277777,0,0,0.35277777,-2.346505,-1.5411328)">
      <g
         id="line2d_3-6">
        <g
           id="g2972">
          <use
             style="stroke:#000000;stroke-width:0.8"
             x="200.448"
             xlink:href="#m910e6098da"
             y="307.58401"
             id="use2970"
             width="100%"
             height="100%" />
        </g>
      </g>
      <g
         id="text_3-0">
        <!-- 0.4 -->
        <g
           transform="matrix(0.1,0,0,-0.1,192.49644,322.18244)"
           id="g2984">
          <defs
             id="defs2976" />
          <use
             xlink:href="#DejaVuSans-48-9"
             id="use2978"
             x="0"
             y="0"
             width="100%"
             height="100%" />
          <use
             x="63.623047"
             xlink:href="#DejaVuSans-46-1"
             id="use2980"
             y="0"
             width="100%"
             height="100%" />
          <use
             x="95.410156"
             xlink:href="#DejaVuSans-52-6"
             id="use2982"
             y="0"
             width="100%"
             height="100%" />
        </g>
      </g>
    </g>
    <g
       id="xtick_4-2"
       transform="matrix(0.35277777,0,0,0.35277777,-2.346505,-1.5411328)">
      <g
         id="line2d_4-6">
        <g
           id="g2990">
          <use
             style="stroke:#000000;stroke-width:0.8"
             x="271.87201"
             xlink:href="#m910e6098da"
             y="307.58401"
             id="use2988"
             width="100%"
             height="100%" />
        </g>
      </g>
      <g
         id="text_4-1">
        <!-- 0.6 -->
        <g
           transform="matrix(0.1,0,0,-0.1,263.92044,322.18244)"
           id="g3002">
          <defs
             id="defs2994" />
          <use
             xlink:href="#DejaVuSans-48-9"
             id="use2996"
             x="0"
             y="0"
             width="100%"
             height="100%" />
          <use
             x="63.623047"
             xlink:href="#DejaVuSans-46-1"
             id="use2998"
             y="0"
             width="100%"
             height="100%" />
          <use
             x="95.410156"
             xlink:href="#DejaVuSans-54-8"
             id="use3000"
             y="0"
             width="100%"
             height="100%" />
        </g>
      </g>
    </g>
    <g
       id="xtick_5-7"
       transform="matrix(0.35277777,0,0,0.35277777,-2.346505,-1.5411328)">
      <g
         id="line2d_5-9">
        <g
           id="g3008">
          <use
             style="stroke:#000000;stroke-width:0.8"
             x="343.29599"
             xlink:href="#m910e6098da"
             y="307.58401"
             id="use3006"
             width="100%"
             height="100%" />
        </g>
      </g>
      <g
         id="text_5-2">
        <!-- 0.8 -->
        <g
           transform="matrix(0.1,0,0,-0.1,335.34444,322.18244)"
           id="g3020">
          <defs
             id="defs3012" />
          <use
             xlink:href="#DejaVuSans-48-9"
             id="use3014"
             x="0"
             y="0"
             width="100%"
             height="100%" />
          <use
             x="63.623047"
             xlink:href="#DejaVuSans-46-1"
             id="use3016"
             y="0"
             width="100%"
             height="100%" />
          <use
             x="95.410156"
             xlink:href="#DejaVuSans-56-0"
             id="use3018"
             y="0"
             width="100%"
             height="100%" />
        </g>
      </g>
    </g>
    <g
       id="xtick_6-2"
       transform="matrix(0.35277777,0,0,0.35277777,-2.346505,-1.5411328)">
      <g
         id="line2d_6-3">
        <g
           id="g3026">
          <use
             style="stroke:#000000;stroke-width:0.8"
             x="414.72"
             xlink:href="#m910e6098da"
             y="307.58401"
             id="use3024"
             width="100%"
             height="100%" />
        </g>
      </g>
      <g
         id="text_6-7">
        <!-- 1.0 -->
        <g
           transform="matrix(0.1,0,0,-0.1,406.76844,322.18244)"
           id="g3038">
          <defs
             id="defs3030" />
          <use
             xlink:href="#DejaVuSans-49-5"
             id="use3032"
             x="0"
             y="0"
             width="100%"
             height="100%" />
          <use
             x="63.623047"
             xlink:href="#DejaVuSans-46-1"
             id="use3034"
             y="0"
             width="100%"
             height="100%" />
          <use
             x="95.410156"
             xlink:href="#DejaVuSans-48-9"
             id="use3036"
             y="0"
             width="100%"
             height="100%" />
        </g>
      </g>
    </g>
    <g
       id="text_7-9"
       transform="matrix(0.35277777,0,0,0.35277777,-2.346505,-1.5411328)">
      <!-- Training step -->
      <g
         transform="matrix(0.1,0,0,-0.1,204.02953,335.86056)"
         id="g3081">
        <defs
           id="defs3053" />
        <use
           xlink:href="#DejaVuSans-84-2"
           id="use3055"
           x="0"
           y="0"
           width="100%"
           height="100%" />
        <use
           x="46.333984"
           xlink:href="#DejaVuSans-114-2"
           id="use3057"
           y="0"
           width="100%"
           height="100%" />
        <use
           x="87.447266"
           xlink:href="#DejaVuSans-97-8"
           id="use3059"
           y="0"
           width="100%"
           height="100%" />
        <use
           x="148.72656"
           xlink:href="#DejaVuSans-105-9"
           id="use3061"
           y="0"
           width="100%"
           height="100%" />
        <use
           x="176.50977"
           xlink:href="#DejaVuSans-110-7"
           id="use3063"
           y="0"
           width="100%"
           height="100%" />
        <use
           x="239.88867"
           xlink:href="#DejaVuSans-105-9"
           id="use3065"
           y="0"
           width="100%"
           height="100%" />
        <use
           x="267.67188"
           xlink:href="#DejaVuSans-110-7"
           id="use3067"
           y="0"
           width="100%"
           height="100%" />
        <use
           x="331.05078"
           xlink:href="#DejaVuSans-103-3"
           id="use3069"
           y="0"
           width="100%"
           height="100%" />
        <use
           x="394.52734"
           xlink:href="#DejaVuSans-32-6"
           id="use3071"
           y="0"
           width="100%"
           height="100%" />
        <use
           x="426.31445"
           xlink:href="#DejaVuSans-115-1"
           id="use3073"
           y="0"
           width="100%"
           height="100%" />
        <use
           x="478.41406"
           xlink:href="#DejaVuSans-116-2"
           id="use3075"
           y="0"
           width="100%"
           height="100%" />
        <use
           x="517.62305"
           xlink:href="#DejaVuSans-101-9"
           id="use3077"
           y="0"
           width="100%"
           height="100%" />
        <use
           x="579.14648"
           xlink:href="#DejaVuSans-112-3"
           id="use3079"
           y="0"
           width="100%"
           height="100%" />
      </g>
    </g>
    <g
       id="text_8-1"
       transform="matrix(0.35277777,0,0,0.35277777,-2.346505,-1.5411328)">
      <!-- 1e6 -->
      <g
         transform="matrix(0.1,0,0,-0.1,395.84188,334.86056)"
         id="g3090">
        <use
           xlink:href="#DejaVuSans-49-5"
           id="use3084"
           x="0"
           y="0"
           width="100%"
           height="100%" />
        <use
           x="63.623047"
           xlink:href="#DejaVuSans-101-9"
           id="use3086"
           y="0"
           width="100%"
           height="100%" />
        <use
           x="125.14648"
           xlink:href="#DejaVuSans-54-8"
           id="use3088"
           y="0"
           width="100%"
           height="100%" />
      </g>
    </g>
    <g
       id="ytick_1-4"
       transform="matrix(0.35277777,0,0,0.35277777,-2.346505,-1.5411328)">
      <g
         id="line2d_7-7">
        <defs
           id="defs3095" />
        <g
           id="g3099">
          <use
             style="stroke:#000000;stroke-width:0.8"
             x="57.599998"
             xlink:href="#m8e4dd0477b"
             y="304.05457"
             id="use3097"
             width="100%"
             height="100%" />
        </g>
      </g>
      <g
         id="text_9-8">
        <!-- 400 -->
        <g
           transform="matrix(0.1,0,0,-0.1,23.132812,307.85379)"
           id="g3113">
          <defs
             id="defs3103" />
          <use
             xlink:href="#DejaVuSans-8722"
             id="use3105"
             x="0"
             y="0"
             width="100%"
             height="100%" />
          <use
             x="83.789062"
             xlink:href="#DejaVuSans-52-6"
             id="use3107"
             y="0"
             width="100%"
             height="100%" />
          <use
             x="147.41211"
             xlink:href="#DejaVuSans-48-9"
             id="use3109"
             y="0"
             width="100%"
             height="100%" />
          <use
             x="211.03516"
             xlink:href="#DejaVuSans-48-9"
             id="use3111"
             y="0"
             width="100%"
             height="100%" />
        </g>
      </g>
    </g>
    <g
       id="ytick_2-4"
       transform="matrix(0.35277777,0,0,0.35277777,-2.346505,-1.5411328)">
      <g
         id="line2d_8-5">
        <g
           id="g3119">
          <use
             style="stroke:#000000;stroke-width:0.8"
             x="57.599998"
             xlink:href="#m8e4dd0477b"
             y="269.78827"
             id="use3117"
             width="100%"
             height="100%" />
        </g>
      </g>
      <g
         id="text_10-0">
        <!-- 300 -->
        <g
           transform="matrix(0.1,0,0,-0.1,23.132812,273.5875)"
           id="g3133">
          <defs
             id="defs3123" />
          <use
             xlink:href="#DejaVuSans-8722"
             id="use3125"
             x="0"
             y="0"
             width="100%"
             height="100%" />
          <use
             x="83.789062"
             xlink:href="#DejaVuSans-51"
             id="use3127"
             y="0"
             width="100%"
             height="100%" />
          <use
             x="147.41211"
             xlink:href="#DejaVuSans-48-9"
             id="use3129"
             y="0"
             width="100%"
             height="100%" />
          <use
             x="211.03516"
             xlink:href="#DejaVuSans-48-9"
             id="use3131"
             y="0"
             width="100%"
             height="100%" />
        </g>
      </g>
    </g>
    <g
       id="ytick_3-3"
       transform="matrix(0.35277777,0,0,0.35277777,-2.346505,-1.5411328)">
      <g
         id="line2d_9-6">
        <g
           id="g3139">
          <use
             style="stroke:#000000;stroke-width:0.8"
             x="57.599998"
             xlink:href="#m8e4dd0477b"
             y="235.52199"
             id="use3137"
             width="100%"
             height="100%" />
        </g>
      </g>
      <g
         id="text_11-1">
        <!-- 200 -->
        <g
           transform="matrix(0.1,0,0,-0.1,23.132812,239.32121)"
           id="g3150">
          <use
             xlink:href="#DejaVuSans-8722"
             id="use3142"
             x="0"
             y="0"
             width="100%"
             height="100%" />
          <use
             x="83.789062"
             xlink:href="#DejaVuSans-50-9"
             id="use3144"
             y="0"
             width="100%"
             height="100%" />
          <use
             x="147.41211"
             xlink:href="#DejaVuSans-48-9"
             id="use3146"
             y="0"
             width="100%"
             height="100%" />
          <use
             x="211.03516"
             xlink:href="#DejaVuSans-48-9"
             id="use3148"
             y="0"
             width="100%"
             height="100%" />
        </g>
      </g>
    </g>
    <g
       id="ytick_4-0"
       transform="matrix(0.35277777,0,0,0.35277777,-2.346505,-1.5411328)">
      <g
         id="line2d_10-6">
        <g
           id="g3156">
          <use
             style="stroke:#000000;stroke-width:0.8"
             x="57.599998"
             xlink:href="#m8e4dd0477b"
             y="201.25571"
             id="use3154"
             width="100%"
             height="100%" />
        </g>
      </g>
      <g
         id="text_12-3">
        <!-- 100 -->
        <g
           transform="matrix(0.1,0,0,-0.1,23.132812,205.05492)"
           id="g3167">
          <use
             xlink:href="#DejaVuSans-8722"
             id="use3159"
             x="0"
             y="0"
             width="100%"
             height="100%" />
          <use
             x="83.789062"
             xlink:href="#DejaVuSans-49-5"
             id="use3161"
             y="0"
             width="100%"
             height="100%" />
          <use
             x="147.41211"
             xlink:href="#DejaVuSans-48-9"
             id="use3163"
             y="0"
             width="100%"
             height="100%" />
          <use
             x="211.03516"
             xlink:href="#DejaVuSans-48-9"
             id="use3165"
             y="0"
             width="100%"
             height="100%" />
        </g>
      </g>
    </g>
    <g
       id="ytick_5-2"
       transform="matrix(0.35277777,0,0,0.35277777,-2.346505,-1.5411328)">
      <g
         id="line2d_11-0">
        <g
           id="g3173">
          <use
             style="stroke:#000000;stroke-width:0.8"
             x="57.599998"
             xlink:href="#m8e4dd0477b"
             y="166.98941"
             id="use3171"
             width="100%"
             height="100%" />
        </g>
      </g>
      <g
         id="text_13-6">
        <!-- 0 -->
        <g
           transform="matrix(0.1,0,0,-0.1,44.2375,170.78863)"
           id="g3178">
          <use
             xlink:href="#DejaVuSans-48-9"
             id="use3176"
             x="0"
             y="0"
             width="100%"
             height="100%" />
        </g>
      </g>
    </g>
    <g
       id="ytick_6-1"
       transform="matrix(0.35277777,0,0,0.35277777,-2.346505,-1.5411328)">
      <g
         id="line2d_12-5">
        <g
           id="g3184">
          <use
             style="stroke:#000000;stroke-width:0.8"
             x="57.599998"
             xlink:href="#m8e4dd0477b"
             y="132.72313"
             id="use3182"
             width="100%"
             height="100%" />
        </g>
      </g>
      <g
         id="text_14-5">
        <!-- 100 -->
        <g
           transform="matrix(0.1,0,0,-0.1,31.5125,136.52235)"
           id="g3193">
          <use
             xlink:href="#DejaVuSans-49-5"
             id="use3187"
             x="0"
             y="0"
             width="100%"
             height="100%" />
          <use
             x="63.623047"
             xlink:href="#DejaVuSans-48-9"
             id="use3189"
             y="0"
             width="100%"
             height="100%" />
          <use
             x="127.24609"
             xlink:href="#DejaVuSans-48-9"
             id="use3191"
             y="0"
             width="100%"
             height="100%" />
        </g>
      </g>
    </g>
    <g
       id="ytick_7"
       transform="matrix(0.35277777,0,0,0.35277777,-2.346505,-1.5411328)">
      <g
         id="line2d_13-4">
        <g
           id="g3199">
          <use
             style="stroke:#000000;stroke-width:0.8"
             x="57.599998"
             xlink:href="#m8e4dd0477b"
             y="98.456841"
             id="use3197"
             width="100%"
             height="100%" />
        </g>
      </g>
      <g
         id="text_15-7">
        <!-- 200 -->
        <g
           transform="matrix(0.1,0,0,-0.1,31.5125,102.25606)"
           id="g3208">
          <use
             xlink:href="#DejaVuSans-50-9"
             id="use3202"
             x="0"
             y="0"
             width="100%"
             height="100%" />
          <use
             x="63.623047"
             xlink:href="#DejaVuSans-48-9"
             id="use3204"
             y="0"
             width="100%"
             height="100%" />
          <use
             x="127.24609"
             xlink:href="#DejaVuSans-48-9"
             id="use3206"
             y="0"
             width="100%"
             height="100%" />
        </g>
      </g>
    </g>
    <g
       id="ytick_8"
       transform="matrix(0.35277777,0,0,0.35277777,-2.346505,-1.5411328)">
      <g
         id="line2d_14-6">
        <g
           id="g3214">
          <use
             style="stroke:#000000;stroke-width:0.8"
             x="57.599998"
             xlink:href="#m8e4dd0477b"
             y="64.190552"
             id="use3212"
             width="100%"
             height="100%" />
        </g>
      </g>
      <g
         id="text_16-5">
        <!-- 300 -->
        <g
           transform="matrix(0.1,0,0,-0.1,31.5125,67.989768)"
           id="g3223">
          <use
             xlink:href="#DejaVuSans-51"
             id="use3217"
             x="0"
             y="0"
             width="100%"
             height="100%" />
          <use
             x="63.623047"
             xlink:href="#DejaVuSans-48-9"
             id="use3219"
             y="0"
             width="100%"
             height="100%" />
          <use
             x="127.24609"
             xlink:href="#DejaVuSans-48-9"
             id="use3221"
             y="0"
             width="100%"
             height="100%" />
        </g>
      </g>
    </g>
    <g
       id="text_17-6"
       transform="matrix(0.35277777,0,0,0.35277777,-2.346505,-1.5411328)">
      <!-- Total return -->
      <g
         transform="matrix(0,-0.1,-0.1,0,17.053125,203.07878)"
         id="g3256">
        <defs
           id="defs3230" />
        <use
           xlink:href="#DejaVuSans-84-2"
           id="use3232"
           x="0"
           y="0"
           width="100%"
           height="100%" />
        <use
           x="44.083984"
           xlink:href="#DejaVuSans-111-9"
           id="use3234"
           y="0"
           width="100%"
           height="100%" />
        <use
           x="105.26562"
           xlink:href="#DejaVuSans-116-2"
           id="use3236"
           y="0"
           width="100%"
           height="100%" />
        <use
           x="144.47461"
           xlink:href="#DejaVuSans-97-8"
           id="use3238"
           y="0"
           width="100%"
           height="100%" />
        <use
           x="205.75391"
           xlink:href="#DejaVuSans-108-3"
           id="use3240"
           y="0"
           width="100%"
           height="100%" />
        <use
           x="233.53711"
           xlink:href="#DejaVuSans-32-6"
           id="use3242"
           y="0"
           width="100%"
           height="100%" />
        <use
           x="265.32422"
           xlink:href="#DejaVuSans-114-2"
           id="use3244"
           y="0"
           width="100%"
           height="100%" />
        <use
           x="304.1875"
           xlink:href="#DejaVuSans-101-9"
           id="use3246"
           y="0"
           width="100%"
           height="100%" />
        <use
           x="365.71094"
           xlink:href="#DejaVuSans-116-2"
           id="use3248"
           y="0"
           width="100%"
           height="100%" />
        <use
           x="404.91992"
           xlink:href="#DejaVuSans-117-7"
           id="use3250"
           y="0"
           width="100%"
           height="100%" />
        <use
           x="468.29883"
           xlink:href="#DejaVuSans-114-2"
           id="use3252"
           y="0"
           width="100%"
           height="100%" />
        <use
           x="507.66211"
           xlink:href="#DejaVuSans-110-7"
           id="use3254"
           y="0"
           width="100%"
           height="100%" />
      </g>
    </g>
    <path
       clip-path="url(#p1ca27fe8a1)"
       d="m 64.200649,236.20732 32.240436,0.34266 h 7.178115 l 7.17811,5.82527 7.17811,23.30108 4.71184,29.81167 2.98767,-6.85326 6.97205,-38.7209 7.14776,-38.72091 6.62243,-24.67173 6.82099,-15.41983 4.6922,-23.9864 4.37258,-29.46901 4.00796,-12.33586 3.29336,1.37065 4.04331,1.37065 3.82011,9.93722 5.69178,26.38505 6.29889,21.93042 6.16746,-3.42663 5.07646,-20.55977 3.41799,-13.36385 3.04695,1.71331 3.11766,-6.5106 3.25693,-21.24509 2.14344,-17.133148 1.89131,-4.797281 1.4999,0.342663 1.66204,-2.741303 2.08201,-3.083966 1.96773,-3.083966 1.81524,-1.370652 1.7756,2.398641 1.65311,13.363852 1.89452,14.39184 1.79167,-3.426627 1.53454,-9.251898 1.50491,-5.825269 2.07987,-4.111955 1.73274,10.62255 2.06987,24.329069 3.08909,16.10515 3.67655,1.37065 3.91618,-17.4758 2.65768,-21.587766 2.44913,-15.077168 2.50591,-4.111954 2.19593,4.111954 2.26307,4.454618 2.02202,3.769292 1.95451,8.223909 1.78703,5.482606 2.14701,-5.139943 1.45383,1.027989 1.68775,5.825273 3.25979,-10.622554 2.2595,-13.363852 1.73346,7.881246 1.80203,51.7421 5.49608,77.78447 7.17097,22.61575 7.17097,-30.15433 6.63993,-37.00759 4.61899,-41.11955 3.11051,-23.64374 2.44342,-6.853257 2.31806,-10.965213 2.10951,-5.139943 2.19879,3.769292 2.40877,1.713314 2.46556,-1.370651 2.54912,-5.139944 2.4902,-3.083966 2.37164,5.482606 2.31128,6.510595 2.74661,-5.825269 2.01737,-10.965212 2.05165,-5.825269 1.75239,8.566572 1.84131,48.658125 4.95968,72.9872 7.17811,34.60895 7.14705,-7.88124 7.05205,-29.81168 6.58315,-37.35025 6.18853,-21.2451 3.58477,16.79048 3.7719,38.72091 5.06932,2.39864 4.01831,-16.79048 4.31116,-3.76929"
       style="fill:none;stroke:#1f77b4;stroke-width:1.5;stroke-linecap:square"
       id="path3260"
       transform="matrix(0.35277777,0,0,0.35277777,-2.346505,-1.5411328)" />
    <path
       clip-path="url(#p1ca27fe8a1)"
       d="m 64.187078,261.90704 30.444123,7.19592 7.899499,-83.26709 5.35572,-22.95841 5.82713,1.02799 5.56357,-4.79728 4.2783,-15.41983 4.83326,-6.16793 4.10831,3.42663 8.32625,-5.48261 5.37466,-12.67853 4.56114,-7.19592 3.86332,-7.88124 2.93196,-17.818474 2.6259,-13.02119 2.34342,-5.482606 1.88774,-1.713314 1.58382,-3.083966 1.6849,-2.055978 1.7356,2.055978 1.70739,7.19592 1.66882,10.965213 2.76054,9.937224 3.31622,3.426629 3.19158,-5.825269 2.81946,-10.62255 2.18736,-9.251898 2.28093,-3.083966 1.8938,0.342663 1.76703,1.027988 1.69061,1.713315 1.85738,-1.370652 1.89595,-4.111954 1.69239,-1.370652 1.75846,1.370652 1.74239,1.027988 3.71833,4.454618 1.54383,-1.370652 1.60847,-4.79728 1.81667,-3.769292 1.5899,-0.342663 3.11658,3.426629 1.43956,1.027989 1.56061,-0.342663 1.63668,-0.685326 h 1.61954 l 1.56204,0.342663 1.51991,0.685326 1.64168,-0.342663 1.46812,0.342663 1.52883,1.713314 1.48883,-0.342663 1.47169,-0.685325 h 2.84268 l 1.43741,-1.370652 1.51347,-0.342663 1.33384,2.39864 1.37456,-1.370651 4.38972,-7.881247 1.50919,0.342663 1.54204,2.055978 1.39598,0.685325 1.50562,-0.685325 h 1.65918 l 2.99338,1.370651 1.50383,-0.685326 1.60704,0.342663 h 1.51276 l 1.49741,-0.342663 1.50026,1.027989 1.62239,-0.685326 1.47669,-2.39864 h 1.44813 l 1.61739,1.370652 1.53883,0.685325 1.50241,-0.685325 3.51727,-2.055978 h 1.6099 l 1.42062,2.055978 1.48705,1.027988 1.38063,-1.370651 1.39276,-2.055978 h 1.55169 l 1.64275,1.027989 1.6249,0.685326 1.61311,1.370651 1.49669,0.685326 1.55633,6.853258 1.85202,14.391841 2.58341,11.650539 2.7234,-0.685326 1.9338,-7.538584 1.79596,-7.538583 3.10373,-15.762493 1.55561,-5.139944 1.42312,-2.39864 1.45884,0.685326 1.54276,6.167932 1.44241,5.139943 1.9388,-3.083966 1.74596,-3.426629 1.66489,1.713315 1.93452,0.342663 2.23772,-4.111955 1.72667,-2.055977 1.60776,0.342663 2.73982,-1.370652 1.44705,0.342663 3.29908,-0.685326 1.36098,3.769292 1.55561,15.41983 2.10201,25.357055 5.77178,12.33586 4.98575,-5.4826 3.79726,-12.67853 2.67625,-14.049179 2.25022,-9.937224 1.85273,-7.19592 1.48848,-5.139944 1.38277,-2.39864 1.43812,-1.713314 2.93517,-0.685326 1.42634,0.685326 1.43633,2.055977 1.42206,1.713314 1.29099,0.342663 2.76518,-1.370651 1.29598,0.685326 1.32742,1.713314 1.42955,0.342663 1.35991,-0.342663 1.31956,0.342663 1.32349,0.685326 1.43348,0.342663 1.5324,-0.685326 1.48026,-1.370652 1.45455,-1.713314 1.35313,-0.685326 1.43741,1.027989 1.38419,0.685325 1.31206,-1.370651 1.33813,-1.713315 1.41027,-1.370651 h 1.3642 l 1.34956,0.342663 1.36384,1.027988 1.39276,-0.342662 2.75768,-1.370652 1.30921,0.342663 1.49954,0.685326 2.84411,0.685325 1.36277,1.027989 2.73875,0.685326 h 4.0901 l 1.38134,-0.685326 1.39562,0.342663 1.36527,0.685326 1.39277,-0.342663 1.38491,0.685326 2.75197,7.538583 h 1.39169 l 1.3867,-3.426629 1.3717,-2.055977 2.72982,-0.685326 h 2.75733 l 1.38027,-0.342663 1.37991,0.342663 h 1.35812 l 1.35099,-0.685326 h 1.38134 l 1.40241,0.342663 1.38884,0.685326 1.40562,3.426629 1.39956,6.510595 1.38812,4.454617 1.39134,2.055978 1.47026,10.279887 3.23924,11.475061 v 0"
       style="fill:none;stroke:#ff7f0e;stroke-width:1.5;stroke-linecap:square"
       id="path3263"
       transform="matrix(0.35277777,0,0,0.35277777,-2.346505,-1.5411328)" />
    <path
       style="fill:none;stroke:#000000;stroke-width:0.273858;stroke-linecap:butt;stroke-linejoin:miter;stroke-miterlimit:4;stroke-dasharray:none;stroke-opacity:1;marker-end:url(#Arrow2Lend)"
       d="M 17.973495,106.96771 H 152.52095"
       id="path4762" />
    <path
       style="fill:none;stroke:#000000;stroke-width:0.264583px;stroke-linecap:butt;stroke-linejoin:miter;stroke-opacity:1;marker-end:url(#marker5082)"
       d="M 17.973495,106.96771 V 13.089266"
       id="path5078" />
    <text
       xml:space="preserve"
       style="font-size:8.46667px;line-height:1.25;font-family:sans-serif;-inkscape-font-specification:sans-serif;stroke-width:0.264583"
       x="36.960522"
       y="7.7829828"
       id="text5122"><tspan
         sodipodi:role="line"
         id="tspan5120"
         x="36.960522"
         y="7.7829828"
         style="font-size:8.46667px;stroke-width:0.264583">Policy performance</tspan></text>
    <path
       style="fill:none;stroke:#000000;stroke-width:0.264583px;stroke-linecap:butt;stroke-linejoin:miter;stroke-opacity:1;marker-end:url(#marker5552)"
       d="M 167.48226,106.61778 V 12.739399"
       id="path5548" />
    <path
       style="fill:none;stroke:#000000;stroke-width:0.273084px;stroke-linecap:butt;stroke-linejoin:miter;stroke-opacity:1;marker-end:url(#marker5588)"
       d="M 167.48226,106.61778 H 301.69205"
       id="path5584" />
    <text
       xml:space="preserve"
       style="font-size:8.46667px;line-height:1.25;font-family:sans-serif;-inkscape-font-specification:sans-serif;stroke-width:0.264583;stroke-linecap:butt;stroke-linejoin:round"
       x="194.09445"
       y="9.3857908"
       id="text5122-4"><tspan
         sodipodi:role="line"
         id="tspan5120-4"
         x="194.09445"
         y="9.3857908"
         style="font-size:8.46667px;stroke-width:0.264583">Average Q-value</tspan></text>
  </g>
</svg>
