<?xml version="1.0" encoding="utf-8" standalone="no"?>
<!DOCTYPE svg PUBLIC "-//W3C//DTD SVG 1.1//EN"
  "http://www.w3.org/Graphics/SVG/1.1/DTD/svg11.dtd">
<!-- Created with matplotlib (https://matplotlib.org/) -->
<svg height="345.6pt" version="1.1" viewBox="0 0 460.8 345.6" width="460.8pt" xmlns="http://www.w3.org/2000/svg" xmlns:xlink="http://www.w3.org/1999/xlink">
 <metadata>
  <rdf:RDF xmlns:cc="http://creativecommons.org/ns#" xmlns:dc="http://purl.org/dc/elements/1.1/" xmlns:rdf="http://www.w3.org/1999/02/22-rdf-syntax-ns#">
   <cc:Work>
    <dc:type rdf:resource="http://purl.org/dc/dcmitype/StillImage"/>
    <dc:date>2021-02-14T11:56:22.329001</dc:date>
    <dc:format>image/svg+xml</dc:format>
    <dc:creator>
     <cc:Agent>
      <dc:title>Matplotlib v3.3.3, https://matplotlib.org/</dc:title>
     </cc:Agent>
    </dc:creator>
   </cc:Work>
  </rdf:RDF>
 </metadata>
 <defs>
  <style type="text/css">*{stroke-linecap:butt;stroke-linejoin:round;}</style>
 </defs>
 <g id="figure_1">
  <g id="patch_1">
   <path d="M 0 345.6 
L 460.8 345.6 
L 460.8 0 
L 0 0 
z
" style="fill:#ffffff;"/>
  </g>
  <g id="axes_1">
   <g id="patch_2">
    <path d="M 57.6 307.584 
L 414.72 307.584 
L 414.72 41.472 
L 57.6 41.472 
z
" style="fill:#ffffff;"/>
   </g>
   <g id="matplotlib.axis_1">
    <g id="xtick_1">
     <g id="line2d_1">
      <defs>
       <path d="M 0 0 
L 0 3.5 
" id="mc0ebddb084" style="stroke:#000000;stroke-width:0.8;"/>
      </defs>
      <g>
       <use style="stroke:#000000;stroke-width:0.8;" x="73.832727" xlink:href="#mc0ebddb084" y="307.584"/>
      </g>
     </g>
     <g id="text_1">
      <!-- 0.0 -->
      <g transform="translate(65.881165 322.182437)scale(0.1 -0.1)">
       <defs>
        <path d="M 31.78125 66.40625 
Q 24.171875 66.40625 20.328125 58.90625 
Q 16.5 51.421875 16.5 36.375 
Q 16.5 21.390625 20.328125 13.890625 
Q 24.171875 6.390625 31.78125 6.390625 
Q 39.453125 6.390625 43.28125 13.890625 
Q 47.125 21.390625 47.125 36.375 
Q 47.125 51.421875 43.28125 58.90625 
Q 39.453125 66.40625 31.78125 66.40625 
z
M 31.78125 74.21875 
Q 44.046875 74.21875 50.515625 64.515625 
Q 56.984375 54.828125 56.984375 36.375 
Q 56.984375 17.96875 50.515625 8.265625 
Q 44.046875 -1.421875 31.78125 -1.421875 
Q 19.53125 -1.421875 13.0625 8.265625 
Q 6.59375 17.96875 6.59375 36.375 
Q 6.59375 54.828125 13.0625 64.515625 
Q 19.53125 74.21875 31.78125 74.21875 
z
" id="DejaVuSans-48"/>
        <path d="M 10.6875 12.40625 
L 21 12.40625 
L 21 0 
L 10.6875 0 
z
" id="DejaVuSans-46"/>
       </defs>
       <use xlink:href="#DejaVuSans-48"/>
       <use x="63.623047" xlink:href="#DejaVuSans-46"/>
       <use x="95.410156" xlink:href="#DejaVuSans-48"/>
      </g>
     </g>
    </g>
    <g id="xtick_2">
     <g id="line2d_2">
      <g>
       <use style="stroke:#000000;stroke-width:0.8;" x="138.959802" xlink:href="#mc0ebddb084" y="307.584"/>
      </g>
     </g>
     <g id="text_2">
      <!-- 0.5 -->
      <g transform="translate(131.00824 322.182437)scale(0.1 -0.1)">
       <defs>
        <path d="M 10.796875 72.90625 
L 49.515625 72.90625 
L 49.515625 64.59375 
L 19.828125 64.59375 
L 19.828125 46.734375 
Q 21.96875 47.46875 24.109375 47.828125 
Q 26.265625 48.1875 28.421875 48.1875 
Q 40.625 48.1875 47.75 41.5 
Q 54.890625 34.8125 54.890625 23.390625 
Q 54.890625 11.625 47.5625 5.09375 
Q 40.234375 -1.421875 26.90625 -1.421875 
Q 22.3125 -1.421875 17.546875 -0.640625 
Q 12.796875 0.140625 7.71875 1.703125 
L 7.71875 11.625 
Q 12.109375 9.234375 16.796875 8.0625 
Q 21.484375 6.890625 26.703125 6.890625 
Q 35.15625 6.890625 40.078125 11.328125 
Q 45.015625 15.765625 45.015625 23.390625 
Q 45.015625 31 40.078125 35.4375 
Q 35.15625 39.890625 26.703125 39.890625 
Q 22.75 39.890625 18.8125 39.015625 
Q 14.890625 38.140625 10.796875 36.28125 
z
" id="DejaVuSans-53"/>
       </defs>
       <use xlink:href="#DejaVuSans-48"/>
       <use x="63.623047" xlink:href="#DejaVuSans-46"/>
       <use x="95.410156" xlink:href="#DejaVuSans-53"/>
      </g>
     </g>
    </g>
    <g id="xtick_3">
     <g id="line2d_3">
      <g>
       <use style="stroke:#000000;stroke-width:0.8;" x="204.086877" xlink:href="#mc0ebddb084" y="307.584"/>
      </g>
     </g>
     <g id="text_3">
      <!-- 1.0 -->
      <g transform="translate(196.135315 322.182437)scale(0.1 -0.1)">
       <defs>
        <path d="M 12.40625 8.296875 
L 28.515625 8.296875 
L 28.515625 63.921875 
L 10.984375 60.40625 
L 10.984375 69.390625 
L 28.421875 72.90625 
L 38.28125 72.90625 
L 38.28125 8.296875 
L 54.390625 8.296875 
L 54.390625 0 
L 12.40625 0 
z
" id="DejaVuSans-49"/>
       </defs>
       <use xlink:href="#DejaVuSans-49"/>
       <use x="63.623047" xlink:href="#DejaVuSans-46"/>
       <use x="95.410156" xlink:href="#DejaVuSans-48"/>
      </g>
     </g>
    </g>
    <g id="xtick_4">
     <g id="line2d_4">
      <g>
       <use style="stroke:#000000;stroke-width:0.8;" x="269.213952" xlink:href="#mc0ebddb084" y="307.584"/>
      </g>
     </g>
     <g id="text_4">
      <!-- 1.5 -->
      <g transform="translate(261.26239 322.182437)scale(0.1 -0.1)">
       <use xlink:href="#DejaVuSans-49"/>
       <use x="63.623047" xlink:href="#DejaVuSans-46"/>
       <use x="95.410156" xlink:href="#DejaVuSans-53"/>
      </g>
     </g>
    </g>
    <g id="xtick_5">
     <g id="line2d_5">
      <g>
       <use style="stroke:#000000;stroke-width:0.8;" x="334.341027" xlink:href="#mc0ebddb084" y="307.584"/>
      </g>
     </g>
     <g id="text_5">
      <!-- 2.0 -->
      <g transform="translate(326.389465 322.182437)scale(0.1 -0.1)">
       <defs>
        <path d="M 19.1875 8.296875 
L 53.609375 8.296875 
L 53.609375 0 
L 7.328125 0 
L 7.328125 8.296875 
Q 12.9375 14.109375 22.625 23.890625 
Q 32.328125 33.6875 34.8125 36.53125 
Q 39.546875 41.84375 41.421875 45.53125 
Q 43.3125 49.21875 43.3125 52.78125 
Q 43.3125 58.59375 39.234375 62.25 
Q 35.15625 65.921875 28.609375 65.921875 
Q 23.96875 65.921875 18.8125 64.3125 
Q 13.671875 62.703125 7.8125 59.421875 
L 7.8125 69.390625 
Q 13.765625 71.78125 18.9375 73 
Q 24.125 74.21875 28.421875 74.21875 
Q 39.75 74.21875 46.484375 68.546875 
Q 53.21875 62.890625 53.21875 53.421875 
Q 53.21875 48.921875 51.53125 44.890625 
Q 49.859375 40.875 45.40625 35.40625 
Q 44.1875 33.984375 37.640625 27.21875 
Q 31.109375 20.453125 19.1875 8.296875 
z
" id="DejaVuSans-50"/>
       </defs>
       <use xlink:href="#DejaVuSans-50"/>
       <use x="63.623047" xlink:href="#DejaVuSans-46"/>
       <use x="95.410156" xlink:href="#DejaVuSans-48"/>
      </g>
     </g>
    </g>
    <g id="xtick_6">
     <g id="line2d_6">
      <g>
       <use style="stroke:#000000;stroke-width:0.8;" x="399.468102" xlink:href="#mc0ebddb084" y="307.584"/>
      </g>
     </g>
     <g id="text_6">
      <!-- 2.5 -->
      <g transform="translate(391.51654 322.182437)scale(0.1 -0.1)">
       <use xlink:href="#DejaVuSans-50"/>
       <use x="63.623047" xlink:href="#DejaVuSans-46"/>
       <use x="95.410156" xlink:href="#DejaVuSans-53"/>
      </g>
     </g>
    </g>
    <g id="text_7">
     <!-- Training step -->
     <g transform="translate(204.029531 335.860562)scale(0.1 -0.1)">
      <defs>
       <path d="M -0.296875 72.90625 
L 61.375 72.90625 
L 61.375 64.59375 
L 35.5 64.59375 
L 35.5 0 
L 25.59375 0 
L 25.59375 64.59375 
L -0.296875 64.59375 
z
" id="DejaVuSans-84"/>
       <path d="M 41.109375 46.296875 
Q 39.59375 47.171875 37.8125 47.578125 
Q 36.03125 48 33.890625 48 
Q 26.265625 48 22.1875 43.046875 
Q 18.109375 38.09375 18.109375 28.8125 
L 18.109375 0 
L 9.078125 0 
L 9.078125 54.6875 
L 18.109375 54.6875 
L 18.109375 46.1875 
Q 20.953125 51.171875 25.484375 53.578125 
Q 30.03125 56 36.53125 56 
Q 37.453125 56 38.578125 55.875 
Q 39.703125 55.765625 41.0625 55.515625 
z
" id="DejaVuSans-114"/>
       <path d="M 34.28125 27.484375 
Q 23.390625 27.484375 19.1875 25 
Q 14.984375 22.515625 14.984375 16.5 
Q 14.984375 11.71875 18.140625 8.90625 
Q 21.296875 6.109375 26.703125 6.109375 
Q 34.1875 6.109375 38.703125 11.40625 
Q 43.21875 16.703125 43.21875 25.484375 
L 43.21875 27.484375 
z
M 52.203125 31.203125 
L 52.203125 0 
L 43.21875 0 
L 43.21875 8.296875 
Q 40.140625 3.328125 35.546875 0.953125 
Q 30.953125 -1.421875 24.3125 -1.421875 
Q 15.921875 -1.421875 10.953125 3.296875 
Q 6 8.015625 6 15.921875 
Q 6 25.140625 12.171875 29.828125 
Q 18.359375 34.515625 30.609375 34.515625 
L 43.21875 34.515625 
L 43.21875 35.40625 
Q 43.21875 41.609375 39.140625 45 
Q 35.0625 48.390625 27.6875 48.390625 
Q 23 48.390625 18.546875 47.265625 
Q 14.109375 46.140625 10.015625 43.890625 
L 10.015625 52.203125 
Q 14.9375 54.109375 19.578125 55.046875 
Q 24.21875 56 28.609375 56 
Q 40.484375 56 46.34375 49.84375 
Q 52.203125 43.703125 52.203125 31.203125 
z
" id="DejaVuSans-97"/>
       <path d="M 9.421875 54.6875 
L 18.40625 54.6875 
L 18.40625 0 
L 9.421875 0 
z
M 9.421875 75.984375 
L 18.40625 75.984375 
L 18.40625 64.59375 
L 9.421875 64.59375 
z
" id="DejaVuSans-105"/>
       <path d="M 54.890625 33.015625 
L 54.890625 0 
L 45.90625 0 
L 45.90625 32.71875 
Q 45.90625 40.484375 42.875 44.328125 
Q 39.84375 48.1875 33.796875 48.1875 
Q 26.515625 48.1875 22.3125 43.546875 
Q 18.109375 38.921875 18.109375 30.90625 
L 18.109375 0 
L 9.078125 0 
L 9.078125 54.6875 
L 18.109375 54.6875 
L 18.109375 46.1875 
Q 21.34375 51.125 25.703125 53.5625 
Q 30.078125 56 35.796875 56 
Q 45.21875 56 50.046875 50.171875 
Q 54.890625 44.34375 54.890625 33.015625 
z
" id="DejaVuSans-110"/>
       <path d="M 45.40625 27.984375 
Q 45.40625 37.75 41.375 43.109375 
Q 37.359375 48.484375 30.078125 48.484375 
Q 22.859375 48.484375 18.828125 43.109375 
Q 14.796875 37.75 14.796875 27.984375 
Q 14.796875 18.265625 18.828125 12.890625 
Q 22.859375 7.515625 30.078125 7.515625 
Q 37.359375 7.515625 41.375 12.890625 
Q 45.40625 18.265625 45.40625 27.984375 
z
M 54.390625 6.78125 
Q 54.390625 -7.171875 48.1875 -13.984375 
Q 42 -20.796875 29.203125 -20.796875 
Q 24.46875 -20.796875 20.265625 -20.09375 
Q 16.0625 -19.390625 12.109375 -17.921875 
L 12.109375 -9.1875 
Q 16.0625 -11.328125 19.921875 -12.34375 
Q 23.78125 -13.375 27.78125 -13.375 
Q 36.625 -13.375 41.015625 -8.765625 
Q 45.40625 -4.15625 45.40625 5.171875 
L 45.40625 9.625 
Q 42.625 4.78125 38.28125 2.390625 
Q 33.9375 0 27.875 0 
Q 17.828125 0 11.671875 7.65625 
Q 5.515625 15.328125 5.515625 27.984375 
Q 5.515625 40.671875 11.671875 48.328125 
Q 17.828125 56 27.875 56 
Q 33.9375 56 38.28125 53.609375 
Q 42.625 51.21875 45.40625 46.390625 
L 45.40625 54.6875 
L 54.390625 54.6875 
z
" id="DejaVuSans-103"/>
       <path id="DejaVuSans-32"/>
       <path d="M 44.28125 53.078125 
L 44.28125 44.578125 
Q 40.484375 46.53125 36.375 47.5 
Q 32.28125 48.484375 27.875 48.484375 
Q 21.1875 48.484375 17.84375 46.4375 
Q 14.5 44.390625 14.5 40.28125 
Q 14.5 37.15625 16.890625 35.375 
Q 19.28125 33.59375 26.515625 31.984375 
L 29.59375 31.296875 
Q 39.15625 29.25 43.1875 25.515625 
Q 47.21875 21.78125 47.21875 15.09375 
Q 47.21875 7.46875 41.1875 3.015625 
Q 35.15625 -1.421875 24.609375 -1.421875 
Q 20.21875 -1.421875 15.453125 -0.5625 
Q 10.6875 0.296875 5.421875 2 
L 5.421875 11.28125 
Q 10.40625 8.6875 15.234375 7.390625 
Q 20.0625 6.109375 24.8125 6.109375 
Q 31.15625 6.109375 34.5625 8.28125 
Q 37.984375 10.453125 37.984375 14.40625 
Q 37.984375 18.0625 35.515625 20.015625 
Q 33.0625 21.96875 24.703125 23.78125 
L 21.578125 24.515625 
Q 13.234375 26.265625 9.515625 29.90625 
Q 5.8125 33.546875 5.8125 39.890625 
Q 5.8125 47.609375 11.28125 51.796875 
Q 16.75 56 26.8125 56 
Q 31.78125 56 36.171875 55.265625 
Q 40.578125 54.546875 44.28125 53.078125 
z
" id="DejaVuSans-115"/>
       <path d="M 18.3125 70.21875 
L 18.3125 54.6875 
L 36.8125 54.6875 
L 36.8125 47.703125 
L 18.3125 47.703125 
L 18.3125 18.015625 
Q 18.3125 11.328125 20.140625 9.421875 
Q 21.96875 7.515625 27.59375 7.515625 
L 36.8125 7.515625 
L 36.8125 0 
L 27.59375 0 
Q 17.1875 0 13.234375 3.875 
Q 9.28125 7.765625 9.28125 18.015625 
L 9.28125 47.703125 
L 2.6875 47.703125 
L 2.6875 54.6875 
L 9.28125 54.6875 
L 9.28125 70.21875 
z
" id="DejaVuSans-116"/>
       <path d="M 56.203125 29.59375 
L 56.203125 25.203125 
L 14.890625 25.203125 
Q 15.484375 15.921875 20.484375 11.0625 
Q 25.484375 6.203125 34.421875 6.203125 
Q 39.59375 6.203125 44.453125 7.46875 
Q 49.3125 8.734375 54.109375 11.28125 
L 54.109375 2.78125 
Q 49.265625 0.734375 44.1875 -0.34375 
Q 39.109375 -1.421875 33.890625 -1.421875 
Q 20.796875 -1.421875 13.15625 6.1875 
Q 5.515625 13.8125 5.515625 26.8125 
Q 5.515625 40.234375 12.765625 48.109375 
Q 20.015625 56 32.328125 56 
Q 43.359375 56 49.78125 48.890625 
Q 56.203125 41.796875 56.203125 29.59375 
z
M 47.21875 32.234375 
Q 47.125 39.59375 43.09375 43.984375 
Q 39.0625 48.390625 32.421875 48.390625 
Q 24.90625 48.390625 20.390625 44.140625 
Q 15.875 39.890625 15.1875 32.171875 
z
" id="DejaVuSans-101"/>
       <path d="M 18.109375 8.203125 
L 18.109375 -20.796875 
L 9.078125 -20.796875 
L 9.078125 54.6875 
L 18.109375 54.6875 
L 18.109375 46.390625 
Q 20.953125 51.265625 25.265625 53.625 
Q 29.59375 56 35.59375 56 
Q 45.5625 56 51.78125 48.09375 
Q 58.015625 40.1875 58.015625 27.296875 
Q 58.015625 14.40625 51.78125 6.484375 
Q 45.5625 -1.421875 35.59375 -1.421875 
Q 29.59375 -1.421875 25.265625 0.953125 
Q 20.953125 3.328125 18.109375 8.203125 
z
M 48.6875 27.296875 
Q 48.6875 37.203125 44.609375 42.84375 
Q 40.53125 48.484375 33.40625 48.484375 
Q 26.265625 48.484375 22.1875 42.84375 
Q 18.109375 37.203125 18.109375 27.296875 
Q 18.109375 17.390625 22.1875 11.75 
Q 26.265625 6.109375 33.40625 6.109375 
Q 40.53125 6.109375 44.609375 11.75 
Q 48.6875 17.390625 48.6875 27.296875 
z
" id="DejaVuSans-112"/>
      </defs>
      <use xlink:href="#DejaVuSans-84"/>
      <use x="46.333984" xlink:href="#DejaVuSans-114"/>
      <use x="87.447266" xlink:href="#DejaVuSans-97"/>
      <use x="148.726562" xlink:href="#DejaVuSans-105"/>
      <use x="176.509766" xlink:href="#DejaVuSans-110"/>
      <use x="239.888672" xlink:href="#DejaVuSans-105"/>
      <use x="267.671875" xlink:href="#DejaVuSans-110"/>
      <use x="331.050781" xlink:href="#DejaVuSans-103"/>
      <use x="394.527344" xlink:href="#DejaVuSans-32"/>
      <use x="426.314453" xlink:href="#DejaVuSans-115"/>
      <use x="478.414062" xlink:href="#DejaVuSans-116"/>
      <use x="517.623047" xlink:href="#DejaVuSans-101"/>
      <use x="579.146484" xlink:href="#DejaVuSans-112"/>
     </g>
    </g>
    <g id="text_8">
     <!-- 1e6 -->
     <g transform="translate(395.841875 334.860562)scale(0.1 -0.1)">
      <defs>
       <path d="M 33.015625 40.375 
Q 26.375 40.375 22.484375 35.828125 
Q 18.609375 31.296875 18.609375 23.390625 
Q 18.609375 15.53125 22.484375 10.953125 
Q 26.375 6.390625 33.015625 6.390625 
Q 39.65625 6.390625 43.53125 10.953125 
Q 47.40625 15.53125 47.40625 23.390625 
Q 47.40625 31.296875 43.53125 35.828125 
Q 39.65625 40.375 33.015625 40.375 
z
M 52.59375 71.296875 
L 52.59375 62.3125 
Q 48.875 64.0625 45.09375 64.984375 
Q 41.3125 65.921875 37.59375 65.921875 
Q 27.828125 65.921875 22.671875 59.328125 
Q 17.53125 52.734375 16.796875 39.40625 
Q 19.671875 43.65625 24.015625 45.921875 
Q 28.375 48.1875 33.59375 48.1875 
Q 44.578125 48.1875 50.953125 41.515625 
Q 57.328125 34.859375 57.328125 23.390625 
Q 57.328125 12.15625 50.6875 5.359375 
Q 44.046875 -1.421875 33.015625 -1.421875 
Q 20.359375 -1.421875 13.671875 8.265625 
Q 6.984375 17.96875 6.984375 36.375 
Q 6.984375 53.65625 15.1875 63.9375 
Q 23.390625 74.21875 37.203125 74.21875 
Q 40.921875 74.21875 44.703125 73.484375 
Q 48.484375 72.75 52.59375 71.296875 
z
" id="DejaVuSans-54"/>
      </defs>
      <use xlink:href="#DejaVuSans-49"/>
      <use x="63.623047" xlink:href="#DejaVuSans-101"/>
      <use x="125.146484" xlink:href="#DejaVuSans-54"/>
     </g>
    </g>
   </g>
   <g id="matplotlib.axis_2">
    <g id="ytick_1">
     <g id="line2d_7">
      <defs>
       <path d="M 0 0 
L -3.5 0 
" id="m2dbe434cf8" style="stroke:#000000;stroke-width:0.8;"/>
      </defs>
      <g>
       <use style="stroke:#000000;stroke-width:0.8;" x="57.6" xlink:href="#m2dbe434cf8" y="284.262501"/>
      </g>
     </g>
     <g id="text_9">
      <!-- $\mathdefault{-10^{2}}$ -->
      <g transform="translate(24.6 288.061719)scale(0.1 -0.1)">
       <defs>
        <path d="M 10.59375 35.5 
L 73.1875 35.5 
L 73.1875 27.203125 
L 10.59375 27.203125 
z
" id="DejaVuSans-8722"/>
       </defs>
       <use transform="translate(0 0.765625)" xlink:href="#DejaVuSans-8722"/>
       <use transform="translate(83.789062 0.765625)" xlink:href="#DejaVuSans-49"/>
       <use transform="translate(147.412109 0.765625)" xlink:href="#DejaVuSans-48"/>
       <use transform="translate(211.992188 39.046875)scale(0.7)" xlink:href="#DejaVuSans-50"/>
      </g>
     </g>
    </g>
    <g id="ytick_2">
     <g id="line2d_8">
      <g>
       <use style="stroke:#000000;stroke-width:0.8;" x="57.6" xlink:href="#m2dbe434cf8" y="244.318847"/>
      </g>
     </g>
     <g id="text_10">
      <!-- $\mathdefault{-10^{1}}$ -->
      <g transform="translate(24.6 248.118066)scale(0.1 -0.1)">
       <use transform="translate(0 0.684375)" xlink:href="#DejaVuSans-8722"/>
       <use transform="translate(83.789062 0.684375)" xlink:href="#DejaVuSans-49"/>
       <use transform="translate(147.412109 0.684375)" xlink:href="#DejaVuSans-48"/>
       <use transform="translate(211.992188 38.965625)scale(0.7)" xlink:href="#DejaVuSans-49"/>
      </g>
     </g>
    </g>
    <g id="ytick_3">
     <g id="line2d_9">
      <g>
       <use style="stroke:#000000;stroke-width:0.8;" x="57.6" xlink:href="#m2dbe434cf8" y="194.208513"/>
      </g>
     </g>
     <g id="text_11">
      <!-- $\mathdefault{-10^{0}}$ -->
      <g transform="translate(24.6 198.007732)scale(0.1 -0.1)">
       <use transform="translate(0 0.765625)" xlink:href="#DejaVuSans-8722"/>
       <use transform="translate(83.789062 0.765625)" xlink:href="#DejaVuSans-49"/>
       <use transform="translate(147.412109 0.765625)" xlink:href="#DejaVuSans-48"/>
       <use transform="translate(211.992188 39.046875)scale(0.7)" xlink:href="#DejaVuSans-48"/>
      </g>
     </g>
    </g>
    <g id="ytick_4">
     <g id="line2d_10">
      <g>
       <use style="stroke:#000000;stroke-width:0.8;" x="57.6" xlink:href="#m2dbe434cf8" y="172.017595"/>
      </g>
     </g>
     <g id="text_12">
      <!-- $\mathdefault{0}$ -->
      <g transform="translate(44.2 175.816813)scale(0.1 -0.1)">
       <use transform="translate(0 0.78125)" xlink:href="#DejaVuSans-48"/>
      </g>
     </g>
    </g>
    <g id="ytick_5">
     <g id="line2d_11">
      <g>
       <use style="stroke:#000000;stroke-width:0.8;" x="57.6" xlink:href="#m2dbe434cf8" y="149.826676"/>
      </g>
     </g>
     <g id="text_13">
      <!-- $\mathdefault{10^{0}}$ -->
      <g transform="translate(33 153.625895)scale(0.1 -0.1)">
       <use transform="translate(0 0.765625)" xlink:href="#DejaVuSans-49"/>
       <use transform="translate(63.623047 0.765625)" xlink:href="#DejaVuSans-48"/>
       <use transform="translate(128.203125 39.046875)scale(0.7)" xlink:href="#DejaVuSans-48"/>
      </g>
     </g>
    </g>
    <g id="ytick_6">
     <g id="line2d_12">
      <g>
       <use style="stroke:#000000;stroke-width:0.8;" x="57.6" xlink:href="#m2dbe434cf8" y="99.716342"/>
      </g>
     </g>
     <g id="text_14">
      <!-- $\mathdefault{10^{1}}$ -->
      <g transform="translate(33 103.515561)scale(0.1 -0.1)">
       <use transform="translate(0 0.684375)" xlink:href="#DejaVuSans-49"/>
       <use transform="translate(63.623047 0.684375)" xlink:href="#DejaVuSans-48"/>
       <use transform="translate(128.203125 38.965625)scale(0.7)" xlink:href="#DejaVuSans-49"/>
      </g>
     </g>
    </g>
    <g id="ytick_7">
     <g id="line2d_13">
      <g>
       <use style="stroke:#000000;stroke-width:0.8;" x="57.6" xlink:href="#m2dbe434cf8" y="59.772689"/>
      </g>
     </g>
     <g id="text_15">
      <!-- $\mathdefault{10^{2}}$ -->
      <g transform="translate(33 63.571908)scale(0.1 -0.1)">
       <use transform="translate(0 0.765625)" xlink:href="#DejaVuSans-49"/>
       <use transform="translate(63.623047 0.765625)" xlink:href="#DejaVuSans-48"/>
       <use transform="translate(128.203125 39.046875)scale(0.7)" xlink:href="#DejaVuSans-50"/>
      </g>
     </g>
    </g>
    <g id="text_16">
     <!-- Score -->
     <g transform="translate(18.520313 188.530344)rotate(-90)scale(0.1 -0.1)">
      <defs>
       <path d="M 53.515625 70.515625 
L 53.515625 60.890625 
Q 47.90625 63.578125 42.921875 64.890625 
Q 37.9375 66.21875 33.296875 66.21875 
Q 25.25 66.21875 20.875 63.09375 
Q 16.5 59.96875 16.5 54.203125 
Q 16.5 49.359375 19.40625 46.890625 
Q 22.3125 44.4375 30.421875 42.921875 
L 36.375 41.703125 
Q 47.40625 39.59375 52.65625 34.296875 
Q 57.90625 29 57.90625 20.125 
Q 57.90625 9.515625 50.796875 4.046875 
Q 43.703125 -1.421875 29.984375 -1.421875 
Q 24.8125 -1.421875 18.96875 -0.25 
Q 13.140625 0.921875 6.890625 3.21875 
L 6.890625 13.375 
Q 12.890625 10.015625 18.65625 8.296875 
Q 24.421875 6.59375 29.984375 6.59375 
Q 38.421875 6.59375 43.015625 9.90625 
Q 47.609375 13.234375 47.609375 19.390625 
Q 47.609375 24.75 44.3125 27.78125 
Q 41.015625 30.8125 33.5 32.328125 
L 27.484375 33.5 
Q 16.453125 35.6875 11.515625 40.375 
Q 6.59375 45.0625 6.59375 53.421875 
Q 6.59375 63.09375 13.40625 68.65625 
Q 20.21875 74.21875 32.171875 74.21875 
Q 37.3125 74.21875 42.625 73.28125 
Q 47.953125 72.359375 53.515625 70.515625 
z
" id="DejaVuSans-83"/>
       <path d="M 48.78125 52.59375 
L 48.78125 44.1875 
Q 44.96875 46.296875 41.140625 47.34375 
Q 37.3125 48.390625 33.40625 48.390625 
Q 24.65625 48.390625 19.8125 42.84375 
Q 14.984375 37.3125 14.984375 27.296875 
Q 14.984375 17.28125 19.8125 11.734375 
Q 24.65625 6.203125 33.40625 6.203125 
Q 37.3125 6.203125 41.140625 7.25 
Q 44.96875 8.296875 48.78125 10.40625 
L 48.78125 2.09375 
Q 45.015625 0.34375 40.984375 -0.53125 
Q 36.96875 -1.421875 32.421875 -1.421875 
Q 20.0625 -1.421875 12.78125 6.34375 
Q 5.515625 14.109375 5.515625 27.296875 
Q 5.515625 40.671875 12.859375 48.328125 
Q 20.21875 56 33.015625 56 
Q 37.15625 56 41.109375 55.140625 
Q 45.0625 54.296875 48.78125 52.59375 
z
" id="DejaVuSans-99"/>
       <path d="M 30.609375 48.390625 
Q 23.390625 48.390625 19.1875 42.75 
Q 14.984375 37.109375 14.984375 27.296875 
Q 14.984375 17.484375 19.15625 11.84375 
Q 23.34375 6.203125 30.609375 6.203125 
Q 37.796875 6.203125 41.984375 11.859375 
Q 46.1875 17.53125 46.1875 27.296875 
Q 46.1875 37.015625 41.984375 42.703125 
Q 37.796875 48.390625 30.609375 48.390625 
z
M 30.609375 56 
Q 42.328125 56 49.015625 48.375 
Q 55.71875 40.765625 55.71875 27.296875 
Q 55.71875 13.875 49.015625 6.21875 
Q 42.328125 -1.421875 30.609375 -1.421875 
Q 18.84375 -1.421875 12.171875 6.21875 
Q 5.515625 13.875 5.515625 27.296875 
Q 5.515625 40.765625 12.171875 48.375 
Q 18.84375 56 30.609375 56 
z
" id="DejaVuSans-111"/>
      </defs>
      <use xlink:href="#DejaVuSans-83"/>
      <use x="63.476562" xlink:href="#DejaVuSans-99"/>
      <use x="118.457031" xlink:href="#DejaVuSans-111"/>
      <use x="179.638672" xlink:href="#DejaVuSans-114"/>
      <use x="218.501953" xlink:href="#DejaVuSans-101"/>
     </g>
    </g>
   </g>
   <g id="line2d_14">
    <path clip-path="url(#pdbc1bdfd7b)" d="M 73.832727 289.596532 
L 74.813557 293.569216 
L 75.794386 295.488 
L 76.775216 295.120847 
L 78.736874 294.069173 
L 82.660192 294.069173 
L 83.641022 294.26519 
L 84.621851 293.670367 
L 85.602681 292.087448 
L 86.58351 292.738049 
L 87.564339 292.844149 
L 89.525998 287.994104 
L 90.506828 282.240953 
L 92.468487 257.189463 
L 93.449316 259.505873 
L 94.430146 265.030188 
L 95.410975 255.453284 
L 96.391804 103.587282 
L 97.372634 75.667867 
L 98.353463 68.634138 
L 99.334293 66.980763 
L 100.315122 64.996052 
L 101.295952 63.428132 
L 102.276781 61.408725 
L 103.257611 60.301074 
L 104.23844 61.408725 
L 105.219269 61.60041 
L 106.200099 63.215278 
L 107.180928 68.925697 
L 108.161758 71.116553 
L 109.142587 68.634138 
L 110.123417 67.78776 
L 111.104246 65.960039 
L 112.085076 60.846061 
L 113.065905 57.198001 
L 114.046734 57.348195 
L 115.027564 58.76188 
L 116.008393 59.947035 
L 116.989223 63.005005 
L 117.970052 65.47135 
L 118.950882 64.533429 
L 119.931711 60.846061 
L 120.912541 58.277738 
L 121.89337 57.806741 
L 122.874199 59.092315 
L 124.835858 59.092315 
L 125.816688 58.926311 
L 126.797517 56.609901 
L 127.778347 54.956526 
L 128.759176 54.825602 
L 129.740005 55.221375 
L 130.720835 55.901749 
L 131.701664 55.901749 
L 134.644153 53.812332 
L 135.624982 54.695659 
L 136.605812 56.465939 
L 137.586641 57.049096 
L 138.56747 56.609901 
L 139.5483 55.088445 
L 140.529129 54.566682 
L 142.490788 56.18155 
L 143.471618 56.465939 
L 144.452447 56.18155 
L 145.433277 56.323162 
L 146.414106 55.901749 
L 147.394935 54.695659 
L 148.375765 54.695659 
L 150.337424 58.598993 
L 151.318253 58.437622 
L 152.299083 57.499701 
L 153.279912 56.323162 
L 154.260742 55.490331 
L 155.241571 56.323162 
L 156.2224 58.277738 
L 157.20323 58.277738 
L 158.184059 57.348195 
L 159.164889 57.198001 
L 160.145718 56.901459 
L 161.126548 55.221375 
L 162.107377 54.31157 
L 163.088207 54.438657 
L 164.069036 54.31157 
L 165.049865 54.566682 
L 166.030695 54.956526 
L 167.011524 55.088445 
L 167.992354 55.355332 
L 169.954013 55.626389 
L 170.934842 55.355332 
L 171.915672 54.695659 
L 172.896501 55.088445 
L 173.87733 55.626389 
L 174.85816 55.221375 
L 175.838989 54.060155 
L 176.819819 53.689736 
L 177.800648 54.695659 
L 178.781478 55.355332 
L 180.743137 53.812332 
L 181.723966 53.568 
L 183.685625 54.185407 
L 185.647284 55.355332 
L 186.628113 54.695659 
L 187.608943 54.825602 
L 188.589772 56.323162 
L 189.570601 57.198001 
L 190.551431 56.609901 
L 191.53226 55.626389 
L 192.51309 55.490331 
L 193.493919 56.041085 
L 194.474749 56.041085 
L 195.455578 54.566682 
L 196.436408 54.060155 
L 197.417237 54.695659 
L 198.398066 55.901749 
L 199.378896 56.041085 
L 200.359725 54.956526 
L 201.340555 55.221375 
L 202.321384 56.609901 
L 203.302214 57.499701 
L 204.283043 57.962323 
L 205.263873 58.119314 
L 207.225531 58.119314 
L 208.206361 57.049096 
L 209.18719 56.465939 
L 211.148849 56.755067 
L 212.129679 57.348195 
L 213.110508 57.652542 
L 214.091338 57.652542 
L 215.072167 58.119314 
L 216.052996 58.119314 
L 218.014655 57.806741 
L 218.995485 57.198001 
L 219.976314 57.499701 
L 220.957144 57.962323 
L 221.937973 57.348195 
L 222.918803 57.652542 
L 223.899632 60.301074 
L 224.880461 62.591955 
L 225.861291 62.188511 
L 226.84212 59.429167 
L 227.82295 57.348195 
L 228.803779 57.806741 
L 229.784609 58.926311 
L 230.765438 58.437622 
L 231.746268 58.926311 
L 232.727097 59.772689 
L 233.707926 58.437622 
L 234.688756 57.348195 
L 236.650415 54.825602 
L 237.631244 54.566682 
L 238.612074 54.695659 
L 239.592903 55.490331 
L 240.573732 57.962323 
L 241.554562 60.123151 
L 242.535391 60.123151 
L 243.516221 60.662489 
L 244.49705 62.188511 
L 246.458709 66.462895 
L 247.439539 65.960039 
L 248.420368 62.797251 
L 249.401197 58.437622 
L 250.382027 56.18155 
L 251.362856 57.049096 
L 252.343686 60.123151 
L 253.324515 62.38906 
L 254.305345 62.188511 
L 255.286174 62.38906 
L 256.267004 64.306664 
L 257.247833 64.763198 
L 258.228662 63.428132 
L 260.190321 60.301074 
L 261.171151 59.092315 
L 262.15198 58.277738 
L 263.13281 58.119314 
L 264.113639 57.198001 
L 265.094469 56.041085 
L 266.075298 57.198001 
L 267.056127 57.962323 
L 268.036957 57.962323 
L 269.998616 60.480841 
L 270.979445 60.301074 
L 271.960275 59.600077 
L 272.941104 59.600077 
L 273.921934 60.123151 
L 274.902763 60.846061 
L 275.883592 60.846061 
L 276.864422 59.947035 
L 277.845251 59.947035 
L 278.826081 62.38906 
L 279.80691 67.514569 
L 280.78774 68.065323 
L 281.768569 63.005005 
L 282.749399 60.123151 
L 283.730228 60.123151 
L 284.711057 60.480841 
L 285.691887 61.990254 
L 286.672716 67.245613 
L 287.653546 74.014492 
L 288.634375 70.143552 
L 289.615205 63.215278 
L 290.596034 60.301074 
L 291.576863 59.947035 
L 293.538522 57.652542 
L 295.500181 59.772689 
L 296.481011 59.772689 
L 297.46184 59.429167 
L 298.44267 58.598993 
L 299.423499 60.846061 
L 300.404328 64.996052 
L 301.385158 63.428132 
L 302.365987 57.806741 
L 303.346817 55.355332 
L 304.327646 55.763523 
L 306.289305 58.926311 
L 307.270135 58.598993 
L 308.250964 58.926311 
L 309.231793 60.480841 
L 310.212623 60.301074 
L 311.193452 58.598993 
L 312.174282 57.198001 
L 313.155111 56.609901 
L 314.135941 56.609901 
L 315.11677 57.049096 
L 316.0976 59.259923 
L 317.078429 60.480841 
L 318.059258 58.598993 
L 319.040088 57.348195 
L 320.020917 58.437622 
L 321.001747 59.259923 
L 322.963406 55.901749 
L 323.944235 55.355332 
L 324.925065 55.901749 
L 325.905894 56.755067 
L 326.886723 57.198001 
L 327.867553 58.277738 
L 328.848382 58.598993 
L 329.829212 57.198001 
L 330.810041 56.465939 
L 331.790871 56.465939 
L 332.7717 57.348195 
L 333.75253 58.437622 
L 334.733359 57.499701 
L 335.714188 55.901749 
L 336.695018 55.355332 
L 337.675847 55.901749 
L 338.656677 56.755067 
L 339.637506 56.755067 
L 341.599165 55.901749 
L 342.579995 56.041085 
L 343.560824 56.901459 
L 344.541653 57.499701 
L 345.522483 57.962323 
L 346.503312 58.926311 
L 347.484142 60.480841 
L 348.464971 59.772689 
L 349.445801 57.806741 
L 351.407459 57.198001 
L 352.388289 56.18155 
L 353.369118 55.490331 
L 354.349948 55.221375 
L 355.330777 55.088445 
L 356.311607 56.041085 
L 357.292436 56.609901 
L 358.273266 55.901749 
L 359.254095 54.566682 
L 360.234924 54.060155 
L 361.215754 53.935801 
L 362.196583 54.060155 
L 363.177413 55.221375 
L 364.158242 56.609901 
L 366.119901 56.609901 
L 367.100731 57.198001 
L 368.08156 56.465939 
L 369.062389 56.465939 
L 370.043219 58.437622 
L 371.024048 59.947035 
L 372.004878 58.926311 
L 372.985707 57.198001 
L 373.966537 57.348195 
L 374.947366 57.806741 
L 375.928196 57.348195 
L 376.909025 57.652542 
L 377.889854 58.277738 
L 378.870684 58.277738 
L 379.851513 58.437622 
L 380.832343 58.926311 
L 381.813172 57.962323 
L 382.794002 57.348195 
L 383.774831 57.652542 
L 384.755661 57.499701 
L 386.717319 58.76188 
L 387.698149 57.348195 
L 388.678978 56.465939 
L 389.659808 55.355332 
L 390.640637 54.956526 
L 391.621467 55.626389 
L 392.602296 55.088445 
L 393.583126 53.935801 
L 394.563955 54.438657 
L 395.544784 55.901749 
L 396.525614 56.323162 
L 397.506443 55.490331 
L 398.487273 54.185407 
L 398.487273 54.185407 
" style="fill:none;stroke:#1f77b4;stroke-linecap:square;stroke-width:1.5;"/>
   </g>
   <g id="line2d_15">
    <path clip-path="url(#pdbc1bdfd7b)" d="M 73.832727 232.294609 
L 74.813557 235.457398 
L 75.794386 149.826676 
L 76.775216 95.165028 
L 77.756045 87.692104 
L 78.736874 89.519826 
L 79.717704 96.553554 
L 80.698533 149.826676 
L 81.679363 248.870161 
L 82.660192 262.179973 
L 83.641022 265.548057 
L 84.621851 263.376813 
L 85.602681 266.050913 
L 86.58351 272.238263 
L 87.564339 276.520621 
L 88.545169 279.039138 
L 89.525998 279.952365 
L 90.506828 278.563839 
L 91.487657 275.401051 
L 92.468487 273.57333 
L 93.449316 273.249072 
L 94.430146 272.238263 
L 95.410975 267.928127 
L 96.391804 260.214025 
L 97.372634 250.155735 
L 98.353463 244.318847 
L 99.334293 240.447907 
L 100.315122 235.457398 
L 101.295952 228.42367 
L 102.276781 194.208513 
L 103.257611 149.826676 
L 104.23844 127.635758 
L 105.219269 115.61152 
L 106.200099 108.577792 
L 107.180928 105.903692 
L 108.161758 101.544063 
L 109.142587 98.062967 
L 111.104246 101.544063 
L 112.085076 98.062967 
L 113.065905 96.553554 
L 115.027564 99.716342 
L 116.008393 99.716342 
L 116.989223 103.587282 
L 117.970052 108.577792 
L 118.950882 108.577792 
L 119.931711 101.544063 
L 120.912541 98.062967 
L 121.89337 96.553554 
L 122.874199 99.716342 
L 125.816688 99.716342 
L 126.797517 96.553554 
L 127.778347 95.165028 
L 129.740005 98.062967 
L 130.720835 99.716342 
L 131.701664 96.553554 
L 132.682494 91.563044 
L 133.663323 88.581905 
L 134.644153 86.845726 
L 135.624982 86.845726 
L 137.586641 90.51137 
L 139.5483 88.581905 
L 140.529129 86.845726 
L 141.509959 88.581905 
L 143.471618 90.51137 
L 144.452447 90.51137 
L 145.433277 89.519826 
L 147.394935 89.519826 
L 148.375765 90.51137 
L 149.356594 92.682614 
L 150.337424 96.553554 
L 151.318253 101.544063 
L 152.299083 103.587282 
L 153.279912 98.062967 
L 154.260742 95.165028 
L 155.241571 98.062967 
L 156.2224 101.544063 
L 157.20323 98.062967 
L 158.184059 95.165028 
L 159.164889 95.165028 
L 161.126548 92.682614 
L 163.088207 95.165028 
L 164.069036 91.563044 
L 165.049865 89.519826 
L 166.030695 89.519826 
L 167.011524 90.51137 
L 167.992354 90.51137 
L 169.954013 86.845726 
L 171.915672 85.267611 
L 173.87733 86.845726 
L 174.85816 88.581905 
L 175.838989 88.581905 
L 176.819819 89.519826 
L 177.800648 91.563044 
L 178.781478 98.062967 
L 179.762307 98.062967 
L 181.723966 87.692104 
L 182.704795 86.038729 
L 183.685625 86.845726 
L 184.666454 88.581905 
L 185.647284 88.581905 
L 186.628113 86.845726 
L 187.608943 86.845726 
L 188.589772 89.519826 
L 189.570601 89.519826 
L 190.551431 86.845726 
L 191.53226 85.267611 
L 192.51309 84.529316 
L 193.493919 85.267611 
L 194.474749 85.267611 
L 196.436408 83.821164 
L 198.398066 85.267611 
L 199.378896 86.845726 
L 200.359725 86.845726 
L 201.340555 89.519826 
L 202.321384 90.51137 
L 204.283043 90.51137 
L 205.263873 92.682614 
L 207.225531 95.165028 
L 208.206361 95.165028 
L 209.18719 96.553554 
L 211.148849 93.879455 
L 212.129679 95.165028 
L 213.110508 98.062967 
L 214.091338 99.716342 
L 215.072167 98.062967 
L 216.052996 95.165028 
L 218.014655 92.682614 
L 218.995485 92.682614 
L 220.957144 95.165028 
L 222.918803 95.165028 
L 224.880461 98.062967 
L 225.861291 95.165028 
L 226.84212 91.563044 
L 227.82295 89.519826 
L 228.803779 89.519826 
L 229.784609 91.563044 
L 231.746268 93.879455 
L 232.727097 95.165028 
L 235.669585 95.165028 
L 237.631244 92.682614 
L 238.612074 91.563044 
L 239.592903 92.682614 
L 240.573732 95.165028 
L 241.554562 98.062967 
L 242.535391 101.544063 
L 243.516221 103.587282 
L 244.49705 105.903692 
L 245.47788 111.74058 
L 246.458709 115.61152 
L 247.439539 108.577792 
L 248.420368 103.587282 
L 249.401197 99.716342 
L 250.382027 98.062967 
L 251.362856 101.544063 
L 253.324515 115.61152 
L 254.305345 115.61152 
L 255.286174 120.602029 
L 256.267004 115.61152 
L 257.247833 108.577792 
L 258.228662 105.903692 
L 259.209492 105.903692 
L 260.190321 108.577792 
L 262.15198 98.062967 
L 263.13281 98.062967 
L 264.113639 99.716342 
L 266.075298 99.716342 
L 267.056127 98.062967 
L 268.036957 95.165028 
L 269.017786 96.553554 
L 269.998616 99.716342 
L 270.979445 103.587282 
L 271.960275 105.903692 
L 272.941104 105.903692 
L 273.921934 108.577792 
L 274.902763 111.74058 
L 275.883592 111.74058 
L 276.864422 108.577792 
L 277.845251 105.903692 
L 278.826081 108.577792 
L 279.80691 111.74058 
L 280.78774 111.74058 
L 282.749399 99.716342 
L 283.730228 99.716342 
L 284.711057 98.062967 
L 285.691887 99.716342 
L 286.672716 99.716342 
L 287.653546 101.544063 
L 289.615205 101.544063 
L 290.596034 105.903692 
L 291.576863 108.577792 
L 292.557693 103.587282 
L 293.538522 101.544063 
L 294.519352 101.544063 
L 295.500181 105.903692 
L 296.481011 105.903692 
L 297.46184 103.587282 
L 298.44267 103.587282 
L 299.423499 115.61152 
L 300.404328 172.017595 
L 301.385158 172.017595 
L 302.365987 127.635758 
L 303.346817 120.602029 
L 304.327646 127.635758 
L 305.308476 127.635758 
L 306.289305 120.602029 
L 307.270135 111.74058 
L 308.250964 108.577792 
L 309.231793 108.577792 
L 310.212623 111.74058 
L 311.193452 108.577792 
L 312.174282 108.577792 
L 313.155111 111.74058 
L 314.135941 115.61152 
L 317.078429 115.61152 
L 318.059258 120.602029 
L 320.020917 120.602029 
L 321.001747 149.826676 
L 321.982576 172.017595 
L 322.963406 172.017595 
L 323.944235 149.826676 
L 324.925065 172.017595 
L 325.905894 172.017595 
L 327.867553 216.399432 
L 328.848382 216.399432 
L 329.829212 172.017595 
L 330.810041 149.826676 
L 339.637506 149.826676 
L 340.618336 127.635758 
L 342.579995 127.635758 
L 343.560824 120.602029 
L 345.522483 120.602029 
L 346.503312 127.635758 
L 347.484142 172.017595 
L 348.464971 172.017595 
L 350.42663 127.635758 
L 351.407459 120.602029 
L 352.388289 120.602029 
L 353.369118 127.635758 
L 354.349948 120.602029 
L 355.330777 115.61152 
L 357.292436 115.61152 
L 358.273266 108.577792 
L 360.234924 108.577792 
L 361.215754 111.74058 
L 362.196583 115.61152 
L 363.177413 127.635758 
L 364.158242 127.635758 
L 365.139072 120.602029 
L 366.119901 115.61152 
L 367.100731 120.602029 
L 368.08156 127.635758 
L 369.062389 127.635758 
L 370.043219 149.826676 
L 371.024048 149.826676 
L 372.004878 127.635758 
L 372.985707 115.61152 
L 373.966537 115.61152 
L 374.947366 127.635758 
L 375.928196 149.826676 
L 377.889854 149.826676 
L 378.870684 127.635758 
L 379.851513 127.635758 
L 381.813172 172.017595 
L 382.794002 172.017595 
L 383.774831 194.208513 
L 384.755661 172.017595 
L 385.73649 216.399432 
L 386.717319 235.457398 
L 387.698149 232.294609 
L 388.678978 216.399432 
L 389.659808 172.017595 
L 390.640637 172.017595 
L 391.621467 194.208513 
L 392.602296 194.208513 
L 393.583126 172.017595 
L 395.544784 172.017595 
L 396.525614 149.826676 
L 397.506443 115.61152 
L 398.487273 108.577792 
L 398.487273 108.577792 
" style="fill:none;stroke:#ff7f0e;stroke-linecap:square;stroke-width:1.5;"/>
   </g>
   <g id="patch_3">
    <path d="M 57.6 307.584 
L 57.6 41.472 
" style="fill:none;stroke:#000000;stroke-linecap:square;stroke-linejoin:miter;stroke-width:0.8;"/>
   </g>
   <g id="patch_4">
    <path d="M 414.72 307.584 
L 414.72 41.472 
" style="fill:none;stroke:#000000;stroke-linecap:square;stroke-linejoin:miter;stroke-width:0.8;"/>
   </g>
   <g id="patch_5">
    <path d="M 57.6 307.584 
L 414.72 307.584 
" style="fill:none;stroke:#000000;stroke-linecap:square;stroke-linejoin:miter;stroke-width:0.8;"/>
   </g>
   <g id="patch_6">
    <path d="M 57.6 41.472 
L 414.72 41.472 
" style="fill:none;stroke:#000000;stroke-linecap:square;stroke-linejoin:miter;stroke-width:0.8;"/>
   </g>
   <g id="legend_1">
    <g id="patch_7">
     <path d="M 279.737188 302.584 
L 407.72 302.584 
Q 409.72 302.584 409.72 300.584 
L 409.72 272.22775 
Q 409.72 270.22775 407.72 270.22775 
L 279.737188 270.22775 
Q 277.737188 270.22775 277.737188 272.22775 
L 277.737188 300.584 
Q 277.737188 302.584 279.737188 302.584 
z
" style="fill:#ffffff;opacity:0.8;stroke:#cccccc;stroke-linejoin:miter;"/>
    </g>
    <g id="line2d_16">
     <path d="M 281.737188 278.326187 
L 301.737188 278.326187 
" style="fill:none;stroke:#1f77b4;stroke-linecap:square;stroke-width:1.5;"/>
    </g>
    <g id="line2d_17"/>
    <g id="text_17">
     <!-- Policy performance -->
     <g transform="translate(309.737188 281.826187)scale(0.1 -0.1)">
      <defs>
       <path d="M 19.671875 64.796875 
L 19.671875 37.40625 
L 32.078125 37.40625 
Q 38.96875 37.40625 42.71875 40.96875 
Q 46.484375 44.53125 46.484375 51.125 
Q 46.484375 57.671875 42.71875 61.234375 
Q 38.96875 64.796875 32.078125 64.796875 
z
M 9.8125 72.90625 
L 32.078125 72.90625 
Q 44.34375 72.90625 50.609375 67.359375 
Q 56.890625 61.8125 56.890625 51.125 
Q 56.890625 40.328125 50.609375 34.8125 
Q 44.34375 29.296875 32.078125 29.296875 
L 19.671875 29.296875 
L 19.671875 0 
L 9.8125 0 
z
" id="DejaVuSans-80"/>
       <path d="M 9.421875 75.984375 
L 18.40625 75.984375 
L 18.40625 0 
L 9.421875 0 
z
" id="DejaVuSans-108"/>
       <path d="M 32.171875 -5.078125 
Q 28.375 -14.84375 24.75 -17.8125 
Q 21.140625 -20.796875 15.09375 -20.796875 
L 7.90625 -20.796875 
L 7.90625 -13.28125 
L 13.1875 -13.28125 
Q 16.890625 -13.28125 18.9375 -11.515625 
Q 21 -9.765625 23.484375 -3.21875 
L 25.09375 0.875 
L 2.984375 54.6875 
L 12.5 54.6875 
L 29.59375 11.921875 
L 46.6875 54.6875 
L 56.203125 54.6875 
z
" id="DejaVuSans-121"/>
       <path d="M 37.109375 75.984375 
L 37.109375 68.5 
L 28.515625 68.5 
Q 23.6875 68.5 21.796875 66.546875 
Q 19.921875 64.59375 19.921875 59.515625 
L 19.921875 54.6875 
L 34.71875 54.6875 
L 34.71875 47.703125 
L 19.921875 47.703125 
L 19.921875 0 
L 10.890625 0 
L 10.890625 47.703125 
L 2.296875 47.703125 
L 2.296875 54.6875 
L 10.890625 54.6875 
L 10.890625 58.5 
Q 10.890625 67.625 15.140625 71.796875 
Q 19.390625 75.984375 28.609375 75.984375 
z
" id="DejaVuSans-102"/>
       <path d="M 52 44.1875 
Q 55.375 50.25 60.0625 53.125 
Q 64.75 56 71.09375 56 
Q 79.640625 56 84.28125 50.015625 
Q 88.921875 44.046875 88.921875 33.015625 
L 88.921875 0 
L 79.890625 0 
L 79.890625 32.71875 
Q 79.890625 40.578125 77.09375 44.375 
Q 74.3125 48.1875 68.609375 48.1875 
Q 61.625 48.1875 57.5625 43.546875 
Q 53.515625 38.921875 53.515625 30.90625 
L 53.515625 0 
L 44.484375 0 
L 44.484375 32.71875 
Q 44.484375 40.625 41.703125 44.40625 
Q 38.921875 48.1875 33.109375 48.1875 
Q 26.21875 48.1875 22.15625 43.53125 
Q 18.109375 38.875 18.109375 30.90625 
L 18.109375 0 
L 9.078125 0 
L 9.078125 54.6875 
L 18.109375 54.6875 
L 18.109375 46.1875 
Q 21.1875 51.21875 25.484375 53.609375 
Q 29.78125 56 35.6875 56 
Q 41.65625 56 45.828125 52.96875 
Q 50 49.953125 52 44.1875 
z
" id="DejaVuSans-109"/>
      </defs>
      <use xlink:href="#DejaVuSans-80"/>
      <use x="56.677734" xlink:href="#DejaVuSans-111"/>
      <use x="117.859375" xlink:href="#DejaVuSans-108"/>
      <use x="145.642578" xlink:href="#DejaVuSans-105"/>
      <use x="173.425781" xlink:href="#DejaVuSans-99"/>
      <use x="228.40625" xlink:href="#DejaVuSans-121"/>
      <use x="287.585938" xlink:href="#DejaVuSans-32"/>
      <use x="319.373047" xlink:href="#DejaVuSans-112"/>
      <use x="382.849609" xlink:href="#DejaVuSans-101"/>
      <use x="444.373047" xlink:href="#DejaVuSans-114"/>
      <use x="485.486328" xlink:href="#DejaVuSans-102"/>
      <use x="520.691406" xlink:href="#DejaVuSans-111"/>
      <use x="581.873047" xlink:href="#DejaVuSans-114"/>
      <use x="621.236328" xlink:href="#DejaVuSans-109"/>
      <use x="718.648438" xlink:href="#DejaVuSans-97"/>
      <use x="779.927734" xlink:href="#DejaVuSans-110"/>
      <use x="843.306641" xlink:href="#DejaVuSans-99"/>
      <use x="898.287109" xlink:href="#DejaVuSans-101"/>
     </g>
    </g>
    <g id="line2d_18">
     <path d="M 281.737188 293.004312 
L 301.737188 293.004312 
" style="fill:none;stroke:#ff7f0e;stroke-linecap:square;stroke-width:1.5;"/>
    </g>
    <g id="line2d_19"/>
    <g id="text_18">
     <!-- Average Q value -->
     <g transform="translate(309.737188 296.504312)scale(0.1 -0.1)">
      <defs>
       <path d="M 34.1875 63.1875 
L 20.796875 26.90625 
L 47.609375 26.90625 
z
M 28.609375 72.90625 
L 39.796875 72.90625 
L 67.578125 0 
L 57.328125 0 
L 50.6875 18.703125 
L 17.828125 18.703125 
L 11.1875 0 
L 0.78125 0 
z
" id="DejaVuSans-65"/>
       <path d="M 2.984375 54.6875 
L 12.5 54.6875 
L 29.59375 8.796875 
L 46.6875 54.6875 
L 56.203125 54.6875 
L 35.6875 0 
L 23.484375 0 
z
" id="DejaVuSans-118"/>
       <path d="M 39.40625 66.21875 
Q 28.65625 66.21875 22.328125 58.203125 
Q 16.015625 50.203125 16.015625 36.375 
Q 16.015625 22.609375 22.328125 14.59375 
Q 28.65625 6.59375 39.40625 6.59375 
Q 50.140625 6.59375 56.421875 14.59375 
Q 62.703125 22.609375 62.703125 36.375 
Q 62.703125 50.203125 56.421875 58.203125 
Q 50.140625 66.21875 39.40625 66.21875 
z
M 53.21875 1.3125 
L 66.21875 -12.890625 
L 54.296875 -12.890625 
L 43.5 -1.21875 
Q 41.890625 -1.3125 41.03125 -1.359375 
Q 40.1875 -1.421875 39.40625 -1.421875 
Q 24.03125 -1.421875 14.8125 8.859375 
Q 5.609375 19.140625 5.609375 36.375 
Q 5.609375 53.65625 14.8125 63.9375 
Q 24.03125 74.21875 39.40625 74.21875 
Q 54.734375 74.21875 63.90625 63.9375 
Q 73.09375 53.65625 73.09375 36.375 
Q 73.09375 23.6875 67.984375 14.640625 
Q 62.890625 5.609375 53.21875 1.3125 
z
" id="DejaVuSans-81"/>
       <path d="M 8.5 21.578125 
L 8.5 54.6875 
L 17.484375 54.6875 
L 17.484375 21.921875 
Q 17.484375 14.15625 20.5 10.265625 
Q 23.53125 6.390625 29.59375 6.390625 
Q 36.859375 6.390625 41.078125 11.03125 
Q 45.3125 15.671875 45.3125 23.6875 
L 45.3125 54.6875 
L 54.296875 54.6875 
L 54.296875 0 
L 45.3125 0 
L 45.3125 8.40625 
Q 42.046875 3.421875 37.71875 1 
Q 33.40625 -1.421875 27.6875 -1.421875 
Q 18.265625 -1.421875 13.375 4.4375 
Q 8.5 10.296875 8.5 21.578125 
z
M 31.109375 56 
z
" id="DejaVuSans-117"/>
      </defs>
      <use xlink:href="#DejaVuSans-65"/>
      <use x="62.533203" xlink:href="#DejaVuSans-118"/>
      <use x="121.712891" xlink:href="#DejaVuSans-101"/>
      <use x="183.236328" xlink:href="#DejaVuSans-114"/>
      <use x="224.349609" xlink:href="#DejaVuSans-97"/>
      <use x="285.628906" xlink:href="#DejaVuSans-103"/>
      <use x="349.105469" xlink:href="#DejaVuSans-101"/>
      <use x="410.628906" xlink:href="#DejaVuSans-32"/>
      <use x="442.416016" xlink:href="#DejaVuSans-81"/>
      <use x="521.126953" xlink:href="#DejaVuSans-32"/>
      <use x="552.914062" xlink:href="#DejaVuSans-118"/>
      <use x="612.09375" xlink:href="#DejaVuSans-97"/>
      <use x="673.373047" xlink:href="#DejaVuSans-108"/>
      <use x="701.15625" xlink:href="#DejaVuSans-117"/>
      <use x="764.535156" xlink:href="#DejaVuSans-101"/>
     </g>
    </g>
   </g>
  </g>
 </g>
 <defs>
  <clipPath id="pdbc1bdfd7b">
   <rect height="266.112" width="357.12" x="57.6" y="41.472"/>
  </clipPath>
 </defs>
</svg>
